<?xml version="1.0" encoding="utf-8" standalone="no"?>
<!DOCTYPE svg PUBLIC "-//W3C//DTD SVG 1.1//EN"
  "http://www.w3.org/Graphics/SVG/1.1/DTD/svg11.dtd">
<svg xmlns:xlink="http://www.w3.org/1999/xlink" width="460.8pt" height="345.6pt" viewBox="0 0 460.8 345.6" xmlns="http://www.w3.org/2000/svg" version="1.1">
 <metadata>
  <rdf:RDF xmlns:dc="http://purl.org/dc/elements/1.1/" xmlns:cc="http://creativecommons.org/ns#" xmlns:rdf="http://www.w3.org/1999/02/22-rdf-syntax-ns#">
   <cc:Work>
    <dc:type rdf:resource="http://purl.org/dc/dcmitype/StillImage"/>
    <dc:date>2022-08-18T11:57:50.788017</dc:date>
    <dc:format>image/svg+xml</dc:format>
    <dc:creator>
     <cc:Agent>
      <dc:title>Matplotlib v3.5.2, https://matplotlib.org/</dc:title>
     </cc:Agent>
    </dc:creator>
   </cc:Work>
  </rdf:RDF>
 </metadata>
 <defs>
  <style type="text/css">*{stroke-linejoin: round; stroke-linecap: butt}</style>
 </defs>
 <g id="figure_1">
  <g id="patch_1">
   <path d="M 0 345.6 
L 460.8 345.6 
L 460.8 0 
L 0 0 
z
" style="fill: #ffffff"/>
  </g>
  <g id="axes_1">
   <g id="patch_2">
    <path d="M 57.6 307.584 
L 414.72 307.584 
L 414.72 41.472 
L 57.6 41.472 
z
" style="fill: #ffffff"/>
   </g>
   <g id="matplotlib.axis_1">
    <g id="xtick_1">
     <g id="line2d_1">
      <defs>
       <path id="m8469ed4985" d="M 0 0 
L 0 3.5 
" style="stroke: #000000; stroke-width: 0.8"/>
      </defs>
      <g>
       <use xlink:href="#m8469ed4985" x="73.832727" y="307.584" style="stroke: #000000; stroke-width: 0.8"/>
      </g>
     </g>
     <g id="text_1">
      <!-- 0.00 -->
      <g transform="translate(62.699915 322.182437)scale(0.1 -0.1)">
       <defs>
        <path id="DejaVuSans-30" d="M 2034 4250 
Q 1547 4250 1301 3770 
Q 1056 3291 1056 2328 
Q 1056 1369 1301 889 
Q 1547 409 2034 409 
Q 2525 409 2770 889 
Q 3016 1369 3016 2328 
Q 3016 3291 2770 3770 
Q 2525 4250 2034 4250 
z
M 2034 4750 
Q 2819 4750 3233 4129 
Q 3647 3509 3647 2328 
Q 3647 1150 3233 529 
Q 2819 -91 2034 -91 
Q 1250 -91 836 529 
Q 422 1150 422 2328 
Q 422 3509 836 4129 
Q 1250 4750 2034 4750 
z
" transform="scale(0.015625)"/>
        <path id="DejaVuSans-2e" d="M 684 794 
L 1344 794 
L 1344 0 
L 684 0 
L 684 794 
z
" transform="scale(0.015625)"/>
       </defs>
       <use xlink:href="#DejaVuSans-30"/>
       <use xlink:href="#DejaVuSans-2e" x="63.623047"/>
       <use xlink:href="#DejaVuSans-30" x="95.410156"/>
       <use xlink:href="#DejaVuSans-30" x="159.033203"/>
      </g>
     </g>
    </g>
    <g id="xtick_2">
     <g id="line2d_2">
      <g>
       <use xlink:href="#m8469ed4985" x="114.751059" y="307.584" style="stroke: #000000; stroke-width: 0.8"/>
      </g>
     </g>
     <g id="text_2">
      <!-- 0.25 -->
      <g transform="translate(103.618247 322.182437)scale(0.1 -0.1)">
       <defs>
        <path id="DejaVuSans-32" d="M 1228 531 
L 3431 531 
L 3431 0 
L 469 0 
L 469 531 
Q 828 903 1448 1529 
Q 2069 2156 2228 2338 
Q 2531 2678 2651 2914 
Q 2772 3150 2772 3378 
Q 2772 3750 2511 3984 
Q 2250 4219 1831 4219 
Q 1534 4219 1204 4116 
Q 875 4013 500 3803 
L 500 4441 
Q 881 4594 1212 4672 
Q 1544 4750 1819 4750 
Q 2544 4750 2975 4387 
Q 3406 4025 3406 3419 
Q 3406 3131 3298 2873 
Q 3191 2616 2906 2266 
Q 2828 2175 2409 1742 
Q 1991 1309 1228 531 
z
" transform="scale(0.015625)"/>
        <path id="DejaVuSans-35" d="M 691 4666 
L 3169 4666 
L 3169 4134 
L 1269 4134 
L 1269 2991 
Q 1406 3038 1543 3061 
Q 1681 3084 1819 3084 
Q 2600 3084 3056 2656 
Q 3513 2228 3513 1497 
Q 3513 744 3044 326 
Q 2575 -91 1722 -91 
Q 1428 -91 1123 -41 
Q 819 9 494 109 
L 494 744 
Q 775 591 1075 516 
Q 1375 441 1709 441 
Q 2250 441 2565 725 
Q 2881 1009 2881 1497 
Q 2881 1984 2565 2268 
Q 2250 2553 1709 2553 
Q 1456 2553 1204 2497 
Q 953 2441 691 2322 
L 691 4666 
z
" transform="scale(0.015625)"/>
       </defs>
       <use xlink:href="#DejaVuSans-30"/>
       <use xlink:href="#DejaVuSans-2e" x="63.623047"/>
       <use xlink:href="#DejaVuSans-32" x="95.410156"/>
       <use xlink:href="#DejaVuSans-35" x="159.033203"/>
      </g>
     </g>
    </g>
    <g id="xtick_3">
     <g id="line2d_3">
      <g>
       <use xlink:href="#m8469ed4985" x="155.669391" y="307.584" style="stroke: #000000; stroke-width: 0.8"/>
      </g>
     </g>
     <g id="text_3">
      <!-- 0.50 -->
      <g transform="translate(144.536578 322.182437)scale(0.1 -0.1)">
       <use xlink:href="#DejaVuSans-30"/>
       <use xlink:href="#DejaVuSans-2e" x="63.623047"/>
       <use xlink:href="#DejaVuSans-35" x="95.410156"/>
       <use xlink:href="#DejaVuSans-30" x="159.033203"/>
      </g>
     </g>
    </g>
    <g id="xtick_4">
     <g id="line2d_4">
      <g>
       <use xlink:href="#m8469ed4985" x="196.587723" y="307.584" style="stroke: #000000; stroke-width: 0.8"/>
      </g>
     </g>
     <g id="text_4">
      <!-- 0.75 -->
      <g transform="translate(185.45491 322.182437)scale(0.1 -0.1)">
       <defs>
        <path id="DejaVuSans-37" d="M 525 4666 
L 3525 4666 
L 3525 4397 
L 1831 0 
L 1172 0 
L 2766 4134 
L 525 4134 
L 525 4666 
z
" transform="scale(0.015625)"/>
       </defs>
       <use xlink:href="#DejaVuSans-30"/>
       <use xlink:href="#DejaVuSans-2e" x="63.623047"/>
       <use xlink:href="#DejaVuSans-37" x="95.410156"/>
       <use xlink:href="#DejaVuSans-35" x="159.033203"/>
      </g>
     </g>
    </g>
    <g id="xtick_5">
     <g id="line2d_5">
      <g>
       <use xlink:href="#m8469ed4985" x="237.506054" y="307.584" style="stroke: #000000; stroke-width: 0.8"/>
      </g>
     </g>
     <g id="text_5">
      <!-- 1.00 -->
      <g transform="translate(226.373242 322.182437)scale(0.1 -0.1)">
       <defs>
        <path id="DejaVuSans-31" d="M 794 531 
L 1825 531 
L 1825 4091 
L 703 3866 
L 703 4441 
L 1819 4666 
L 2450 4666 
L 2450 531 
L 3481 531 
L 3481 0 
L 794 0 
L 794 531 
z
" transform="scale(0.015625)"/>
       </defs>
       <use xlink:href="#DejaVuSans-31"/>
       <use xlink:href="#DejaVuSans-2e" x="63.623047"/>
       <use xlink:href="#DejaVuSans-30" x="95.410156"/>
       <use xlink:href="#DejaVuSans-30" x="159.033203"/>
      </g>
     </g>
    </g>
    <g id="xtick_6">
     <g id="line2d_6">
      <g>
       <use xlink:href="#m8469ed4985" x="278.424386" y="307.584" style="stroke: #000000; stroke-width: 0.8"/>
      </g>
     </g>
     <g id="text_6">
      <!-- 1.25 -->
      <g transform="translate(267.291574 322.182437)scale(0.1 -0.1)">
       <use xlink:href="#DejaVuSans-31"/>
       <use xlink:href="#DejaVuSans-2e" x="63.623047"/>
       <use xlink:href="#DejaVuSans-32" x="95.410156"/>
       <use xlink:href="#DejaVuSans-35" x="159.033203"/>
      </g>
     </g>
    </g>
    <g id="xtick_7">
     <g id="line2d_7">
      <g>
       <use xlink:href="#m8469ed4985" x="319.342718" y="307.584" style="stroke: #000000; stroke-width: 0.8"/>
      </g>
     </g>
     <g id="text_7">
      <!-- 1.50 -->
      <g transform="translate(308.209906 322.182437)scale(0.1 -0.1)">
       <use xlink:href="#DejaVuSans-31"/>
       <use xlink:href="#DejaVuSans-2e" x="63.623047"/>
       <use xlink:href="#DejaVuSans-35" x="95.410156"/>
       <use xlink:href="#DejaVuSans-30" x="159.033203"/>
      </g>
     </g>
    </g>
    <g id="xtick_8">
     <g id="line2d_8">
      <g>
       <use xlink:href="#m8469ed4985" x="360.26105" y="307.584" style="stroke: #000000; stroke-width: 0.8"/>
      </g>
     </g>
     <g id="text_8">
      <!-- 1.75 -->
      <g transform="translate(349.128237 322.182437)scale(0.1 -0.1)">
       <use xlink:href="#DejaVuSans-31"/>
       <use xlink:href="#DejaVuSans-2e" x="63.623047"/>
       <use xlink:href="#DejaVuSans-37" x="95.410156"/>
       <use xlink:href="#DejaVuSans-35" x="159.033203"/>
      </g>
     </g>
    </g>
    <g id="xtick_9">
     <g id="line2d_9">
      <g>
       <use xlink:href="#m8469ed4985" x="401.179382" y="307.584" style="stroke: #000000; stroke-width: 0.8"/>
      </g>
     </g>
     <g id="text_9">
      <!-- 2.00 -->
      <g transform="translate(390.046569 322.182437)scale(0.1 -0.1)">
       <use xlink:href="#DejaVuSans-32"/>
       <use xlink:href="#DejaVuSans-2e" x="63.623047"/>
       <use xlink:href="#DejaVuSans-30" x="95.410156"/>
       <use xlink:href="#DejaVuSans-30" x="159.033203"/>
      </g>
     </g>
    </g>
    <g id="text_10">
     <!-- GT VS -->
     <g transform="translate(221.229531 335.860562)scale(0.1 -0.1)">
      <defs>
       <path id="DejaVuSans-47" d="M 3809 666 
L 3809 1919 
L 2778 1919 
L 2778 2438 
L 4434 2438 
L 4434 434 
Q 4069 175 3628 42 
Q 3188 -91 2688 -91 
Q 1594 -91 976 548 
Q 359 1188 359 2328 
Q 359 3472 976 4111 
Q 1594 4750 2688 4750 
Q 3144 4750 3555 4637 
Q 3966 4525 4313 4306 
L 4313 3634 
Q 3963 3931 3569 4081 
Q 3175 4231 2741 4231 
Q 1884 4231 1454 3753 
Q 1025 3275 1025 2328 
Q 1025 1384 1454 906 
Q 1884 428 2741 428 
Q 3075 428 3337 486 
Q 3600 544 3809 666 
z
" transform="scale(0.015625)"/>
       <path id="DejaVuSans-54" d="M -19 4666 
L 3928 4666 
L 3928 4134 
L 2272 4134 
L 2272 0 
L 1638 0 
L 1638 4134 
L -19 4134 
L -19 4666 
z
" transform="scale(0.015625)"/>
       <path id="DejaVuSans-20" transform="scale(0.015625)"/>
       <path id="DejaVuSans-56" d="M 1831 0 
L 50 4666 
L 709 4666 
L 2188 738 
L 3669 4666 
L 4325 4666 
L 2547 0 
L 1831 0 
z
" transform="scale(0.015625)"/>
       <path id="DejaVuSans-53" d="M 3425 4513 
L 3425 3897 
Q 3066 4069 2747 4153 
Q 2428 4238 2131 4238 
Q 1616 4238 1336 4038 
Q 1056 3838 1056 3469 
Q 1056 3159 1242 3001 
Q 1428 2844 1947 2747 
L 2328 2669 
Q 3034 2534 3370 2195 
Q 3706 1856 3706 1288 
Q 3706 609 3251 259 
Q 2797 -91 1919 -91 
Q 1588 -91 1214 -16 
Q 841 59 441 206 
L 441 856 
Q 825 641 1194 531 
Q 1563 422 1919 422 
Q 2459 422 2753 634 
Q 3047 847 3047 1241 
Q 3047 1584 2836 1778 
Q 2625 1972 2144 2069 
L 1759 2144 
Q 1053 2284 737 2584 
Q 422 2884 422 3419 
Q 422 4038 858 4394 
Q 1294 4750 2059 4750 
Q 2388 4750 2728 4690 
Q 3069 4631 3425 4513 
z
" transform="scale(0.015625)"/>
      </defs>
      <use xlink:href="#DejaVuSans-47"/>
      <use xlink:href="#DejaVuSans-54" x="73.865234"/>
      <use xlink:href="#DejaVuSans-20" x="134.949219"/>
      <use xlink:href="#DejaVuSans-56" x="166.736328"/>
      <use xlink:href="#DejaVuSans-53" x="235.144531"/>
     </g>
    </g>
   </g>
   <g id="matplotlib.axis_2">
    <g id="ytick_1">
     <g id="line2d_10">
      <defs>
       <path id="me8e45163f8" d="M 0 0 
L -3.5 0 
" style="stroke: #000000; stroke-width: 0.8"/>
      </defs>
      <g>
       <use xlink:href="#me8e45163f8" x="57.6" y="257.998001" style="stroke: #000000; stroke-width: 0.8"/>
      </g>
     </g>
     <g id="text_11">
      <!-- 0 -->
      <g transform="translate(44.2375 261.79722)scale(0.1 -0.1)">
       <use xlink:href="#DejaVuSans-30"/>
      </g>
     </g>
    </g>
    <g id="ytick_2">
     <g id="line2d_11">
      <g>
       <use xlink:href="#me8e45163f8" x="57.6" y="202.427717" style="stroke: #000000; stroke-width: 0.8"/>
      </g>
     </g>
     <g id="text_12">
      <!-- 1 -->
      <g transform="translate(44.2375 206.226936)scale(0.1 -0.1)">
       <use xlink:href="#DejaVuSans-31"/>
      </g>
     </g>
    </g>
    <g id="ytick_3">
     <g id="line2d_12">
      <g>
       <use xlink:href="#me8e45163f8" x="57.6" y="146.857432" style="stroke: #000000; stroke-width: 0.8"/>
      </g>
     </g>
     <g id="text_13">
      <!-- 2 -->
      <g transform="translate(44.2375 150.656651)scale(0.1 -0.1)">
       <use xlink:href="#DejaVuSans-32"/>
      </g>
     </g>
    </g>
    <g id="ytick_4">
     <g id="line2d_13">
      <g>
       <use xlink:href="#me8e45163f8" x="57.6" y="91.287148" style="stroke: #000000; stroke-width: 0.8"/>
      </g>
     </g>
     <g id="text_14">
      <!-- 3 -->
      <g transform="translate(44.2375 95.086367)scale(0.1 -0.1)">
       <defs>
        <path id="DejaVuSans-33" d="M 2597 2516 
Q 3050 2419 3304 2112 
Q 3559 1806 3559 1356 
Q 3559 666 3084 287 
Q 2609 -91 1734 -91 
Q 1441 -91 1130 -33 
Q 819 25 488 141 
L 488 750 
Q 750 597 1062 519 
Q 1375 441 1716 441 
Q 2309 441 2620 675 
Q 2931 909 2931 1356 
Q 2931 1769 2642 2001 
Q 2353 2234 1838 2234 
L 1294 2234 
L 1294 2753 
L 1863 2753 
Q 2328 2753 2575 2939 
Q 2822 3125 2822 3475 
Q 2822 3834 2567 4026 
Q 2313 4219 1838 4219 
Q 1578 4219 1281 4162 
Q 984 4106 628 3988 
L 628 4550 
Q 988 4650 1302 4700 
Q 1616 4750 1894 4750 
Q 2613 4750 3031 4423 
Q 3450 4097 3450 3541 
Q 3450 3153 3228 2886 
Q 3006 2619 2597 2516 
z
" transform="scale(0.015625)"/>
       </defs>
       <use xlink:href="#DejaVuSans-33"/>
      </g>
     </g>
    </g>
    <g id="text_15">
     <!-- rVS -->
     <g transform="translate(38.157812 183.178)rotate(-90)scale(0.1 -0.1)">
      <defs>
       <path id="DejaVuSans-72" d="M 2631 2963 
Q 2534 3019 2420 3045 
Q 2306 3072 2169 3072 
Q 1681 3072 1420 2755 
Q 1159 2438 1159 1844 
L 1159 0 
L 581 0 
L 581 3500 
L 1159 3500 
L 1159 2956 
Q 1341 3275 1631 3429 
Q 1922 3584 2338 3584 
Q 2397 3584 2469 3576 
Q 2541 3569 2628 3553 
L 2631 2963 
z
" transform="scale(0.015625)"/>
      </defs>
      <use xlink:href="#DejaVuSans-72"/>
      <use xlink:href="#DejaVuSans-56" x="41.113281"/>
      <use xlink:href="#DejaVuSans-53" x="109.521484"/>
     </g>
    </g>
   </g>
   <g id="line2d_14">
    <path d="M 73.832727 291.236709 
L 81.638856 292.71403 
L 81.638856 292.714023 
L 91.371938 291.473678 
L 91.371938 291.475776 
L 95.532431 289.089689 
L 95.532431 289.090648 
L 106.758698 277.686946 
L 106.758698 277.687722 
L 122.329669 261.253003 
L 122.329669 261.255345 
L 131.107145 257.333738 
L 131.107145 257.335182 
L 132.919704 257.028453 
L 132.919704 257.030734 
L 171.251296 261.660672 
L 171.251296 261.659474 
L 175.572903 263.233577 
L 175.572903 263.232763 
L 180.648508 265.307127 
L 180.648508 265.305992 
L 192.445323 269.735617 
L 192.445323 269.733796 
L 196.859625 270.93829 
L 196.859625 270.93732 
L 243.294853 252.074924 
L 243.294853 252.075864 
L 283.097511 211.142857 
L 283.097511 211.143558 
L 296.697303 203.707309 
L 297.128377 203.189211 
L 297.128377 203.19002 
L 302.596155 194.719867 
L 302.596155 194.720551 
L 305.963403 187.808751 
L 305.963403 187.808875 
L 325.239766 137.068734 
L 325.239766 137.069618 
L 327.354794 132.271017 
L 327.354794 132.271718 
L 329.854011 127.271452 
L 329.854011 127.272811 
L 338.690417 116.841664 
L 338.690417 116.843123 
L 349.716353 120.653796 
L 349.716353 120.652471 
L 356.210059 129.650823 
L 356.210059 129.650135 
L 359.624462 135.539689 
L 359.624462 135.537349 
L 361.836973 139.588154 
L 361.836973 139.586966 
L 378.393138 168.737489 
L 378.393138 168.736599 
L 383.536656 175.615461 
L 383.536656 175.614642 
L 393.014393 184.268013 
L 393.014393 184.268013 
" clip-path="url(#p3b14084822)" style="fill: none; stroke: #1f77b4; stroke-width: 1.5; stroke-linecap: square"/>
   </g>
   <g id="line2d_15">
    <path d="M 101.121023 248.390377 
L 101.121023 248.387452 
L 101.121023 248.38827 
L 114.65457 214.951505 
L 114.65457 214.951766 
L 116.72063 210.91081 
L 116.72063 210.91167 
L 124.419989 198.571693 
L 169.197032 166.114089 
L 169.197032 166.115733 
L 229.343117 237.658955 
L 229.343117 237.658688 
L 229.938113 238.119614 
L 229.938113 238.118483 
L 246.765308 235.363756 
L 246.765308 235.365411 
L 294.087784 206.399432 
L 294.087784 206.401109 
L 351.868281 123.219485 
L 351.868281 123.220517 
L 355.223817 128.067731 
L 355.223817 128.066899 
L 380.601525 171.865958 
L 380.601525 171.865881 
L 398.487273 186.905349 
L 398.487273 186.905189 
" clip-path="url(#p3b14084822)" style="fill: none; stroke: #ff7f0e; stroke-width: 1.5; stroke-linecap: square"/>
   </g>
   <g id="line2d_16">
    <path d="M 80.691273 295.485155 
L 80.691273 295.488 
L 80.691273 295.484968 
L 80.691273 295.485945 
L 82.93866 292.181655 
L 82.93866 292.182626 
L 117.771381 208.976954 
L 117.771381 208.979248 
L 125.225364 197.502569 
L 125.225364 197.504472 
L 138.858393 183.188243 
L 138.858393 183.188761 
L 141.498271 180.85184 
L 141.498271 180.853437 
L 157.014911 169.066864 
L 157.014911 169.067703 
L 159.289549 167.909851 
L 159.289549 167.910588 
L 164.540385 166.233001 
L 164.540385 166.235158 
L 165.888124 166.060041 
L 165.888124 166.060608 
L 169.696059 166.184859 
L 169.696059 166.18465 
L 174.781222 167.787651 
L 174.781222 167.786574 
L 188.655817 179.310941 
L 188.655817 179.308447 
L 210.345756 210.577215 
L 210.345756 210.576795 
L 217.709911 222.837467 
L 217.709911 222.836617 
L 222.538665 230.089836 
L 222.538665 230.088552 
L 232.555475 239.696994 
L 245.941967 236.122249 
L 245.941967 236.123461 
L 251.559653 230.268341 
L 251.559653 230.271208 
L 283.587256 211.037598 
L 283.587256 211.039644 
L 315.52906 163.078926 
L 315.52906 163.079616 
L 317.683671 157.033757 
L 317.683671 157.034578 
L 367.661426 139.81418 
L 367.661426 139.815576 
L 369.441664 141.796562 
L 369.441664 141.796331 
L 388.314469 160.92951 
L 388.314469 160.927031 
L 393.04885 166.574034 
L 393.04885 166.572085 
" clip-path="url(#p3b14084822)" style="fill: none; stroke: #2ca02c; stroke-width: 1.5; stroke-linecap: square"/>
   </g>
   <g id="line2d_17">
    <path d="M 84.20304 259.266851 
L 84.20304 259.265914 
L 84.20304 259.269008 
L 90.248904 252.24582 
L 90.248904 252.247405 
L 92.057628 249.718715 
L 92.057628 249.719626 
L 99.413349 237.930893 
L 99.413349 237.931992 
L 105.112533 227.888282 
L 105.112533 227.888941 
L 113.882481 212.854312 
L 113.882481 212.854788 
L 119.958071 203.748203 
L 119.958071 203.749907 
L 123.621611 198.937179 
L 123.621611 198.937185 
L 132.218528 189.420973 
L 132.218528 189.421335 
L 138.36208 183.634831 
L 138.36208 183.636242 
L 146.818049 176.34089 
L 146.818049 176.34134 
L 150.437753 173.471605 
L 150.437753 173.472742 
L 155.103369 170.205713 
L 155.103369 170.205732 
L 157.230146 168.948767 
L 157.230146 168.949234 
L 159.345303 167.88553 
L 159.345303 167.885789 
L 167.090331 166.000456 
L 167.090331 166.000762 
L 170.28956 166.287882 
L 170.28956 166.287556 
L 191.004705 182.046425 
L 191.004705 182.045471 
L 198.376406 191.755988 
L 198.376406 191.755435 
L 204.461424 200.928268 
L 204.461424 200.927442 
L 208.439656 207.39174 
L 208.439656 207.391453 
L 217.007038 221.70184 
L 217.007038 221.701319 
L 222.838912 230.498096 
L 222.838912 230.497961 
L 230.941426 238.810666 
L 230.941426 238.810097 
L 233.081238 239.923926 
L 244.414715 237.405974 
L 244.414715 237.406876 
L 250.114402 231.899029 
L 250.114402 231.899825 
L 257.92311 222.963209 
L 257.92311 222.963853 
L 259.967527 220.796384 
L 259.967527 220.796935 
L 266.657834 215.195857 
L 266.657834 215.198288 
L 275.175723 211.937777 
L 275.175723 211.938595 
L 294.681289 205.855278 
L 294.681289 205.856051 
L 305.970841 187.306015 
L 320.843894 140.817312 
L 320.843894 140.817902 
L 336.905737 89.601491 
L 336.905737 89.602263 
L 347.926622 77.692075 
L 347.926622 77.69258 
L 350.361553 78.724501 
L 350.361553 78.723007 
L 356.531388 86.904004 
L 356.531388 86.903492 
L 360.724296 96.272556 
L 360.724296 96.270608 
L 363.149493 102.715959 
L 363.149493 102.715421 
L 372.307459 130.270464 
L 372.307459 130.270057 
L 389.600959 173.673586 
L 389.600959 173.671815 
L 392.096819 177.744852 
L 392.096819 177.743535 
L 395.017066 181.781811 
L 395.017066 181.779523 
" clip-path="url(#p3b14084822)" style="fill: none; stroke: #d62728; stroke-width: 1.5; stroke-linecap: square"/>
   </g>
   <g id="line2d_18">
    <path d="M 78.425126 274.20439 
L 78.425126 274.205141 
L 78.425126 274.203643 
L 78.892678 275.108545 
L 78.892678 275.108173 
L 85.989085 283.861095 
L 85.989085 283.860484 
L 87.086503 284.374108 
L 87.086503 284.372784 
L 97.299127 279.19305 
L 97.299127 279.193497 
L 100.441924 274.540211 
L 100.441924 274.541578 
L 104.117378 267.786576 
L 104.117378 267.787264 
L 107.879049 259.812075 
L 107.879049 259.814654 
L 114.170089 245.202157 
L 114.170089 245.202441 
L 134.629417 201.456301 
L 134.629417 201.457324 
L 137.121005 197.182317 
L 137.121005 197.183923 
L 141.328623 190.507535 
L 141.328623 190.508369 
L 153.682298 174.921005 
L 153.682298 174.922218 
L 163.902603 167.878479 
L 163.902603 167.878583 
L 171.018649 167.157423 
L 171.018649 167.159874 
L 188.298738 178.952679 
L 188.298738 178.952062 
L 194.50736 186.464692 
L 194.50736 186.463729 
L 197.593085 190.649163 
L 197.593085 190.648798 
L 209.266597 208.768007 
L 209.266597 208.767356 
L 214.771376 218.017263 
L 214.771376 218.016857 
L 220.894636 227.746574 
L 220.894636 227.745905 
L 225.231181 233.54178 
L 234.118171 240.278949 
L 234.118171 240.278291 
L 239.77541 240.072863 
L 239.77541 240.073484 
L 246.690795 235.435439 
L 246.690795 235.436007 
L 262.238628 218.608921 
L 262.238628 218.609587 
L 274.970364 211.974272 
L 274.970364 211.974289 
L 282.179577 211.201857 
L 282.179577 211.20313 
L 285.341445 210.747915 
L 285.341445 210.748756 
L 290.241681 209.067034 
L 290.241681 209.067896 
L 291.529665 208.329951 
L 291.529665 208.330385 
L 300.29126 198.666166 
L 300.29126 198.666509 
L 307.806026 182.74961 
L 307.806026 182.751099 
L 327.903214 115.687719 
L 327.903214 115.688207 
L 332.051598 102.354948 
L 332.051598 102.355401 
L 343.055707 79.672281 
L 343.055707 79.673662 
L 350.044366 78.512959 
L 350.044366 78.514008 
L 356.695228 87.217966 
L 356.695228 87.217522 
L 362.00864 99.521073 
L 362.00864 99.519401 
L 363.922036 104.724932 
L 363.922036 104.723878 
L 368.089854 116.783711 
L 368.089854 116.780621 
L 397.697182 162.57214 
L 397.697182 162.570804 
" clip-path="url(#p3b14084822)" style="fill: none; stroke: #9467bd; stroke-width: 1.5; stroke-linecap: square"/>
   </g>
   <g id="line2d_19">
    <path d="M 97.499579 278.933787 
L 97.499579 278.931851 
L 97.499579 278.932886 
L 135.879515 199.282374 
L 135.879515 199.283471 
L 140.138443 192.32879 
L 140.138443 192.329464 
L 143.560304 187.238321 
L 143.560304 187.23883 
L 146.245821 183.553981 
L 146.245821 183.554825 
L 183.048622 173.70942 
L 183.048622 173.709834 
L 208.868523 208.104619 
L 208.868523 208.104237 
L 223.767289 231.666473 
L 223.767289 231.665519 
L 248.828432 230.329971 
L 248.828432 230.330939 
L 286.513096 205.320733 
L 286.513096 205.322354 
L 287.386293 205.307669 
L 287.386293 205.308809 
L 297.496334 200.474289 
L 297.496334 200.475218 
L 339.815117 83.931869 
L 339.815117 83.932357 
L 371.295052 126.180569 
L 371.295052 126.178335 
" clip-path="url(#p3b14084822)" style="fill: none; stroke: #8c564b; stroke-width: 1.5; stroke-linecap: square"/>
   </g>
   <g id="line2d_20">
    <path d="M 144.619896 185.683475 
L 144.619896 185.685341 
L 144.619896 185.68473 
L 144.619896 185.685448 
L 144.619896 185.685077 
L 144.619896 185.684703 
L 144.619896 185.685548 
L 144.619896 185.68479 
L 144.619896 185.683929 
L 144.619896 185.684153 
L 144.619896 185.684355 
L 144.619896 185.68539 
L 144.619896 185.685009 
L 144.619896 185.68466 
L 144.619896 185.68368 
L 144.619896 185.685166 
L 144.619896 185.68504 
L 144.619896 185.685587 
L 144.619896 185.685949 
L 144.619896 185.685342 
L 144.619896 185.685399 
L 144.619896 185.685218 
L 144.619896 185.684255 
L 144.619896 185.685467 
L 144.619896 185.684913 
L 210.321918 186.038521 
L 210.321918 186.038548 
L 210.321918 186.03925 
L 210.321918 186.039474 
L 210.321918 186.039044 
L 210.321918 186.039933 
L 210.321918 186.039009 
L 210.321918 186.039352 
L 210.321918 186.038807 
L 210.321918 186.038971 
L 210.321918 186.038872 
L 210.321918 186.039006 
L 210.321918 186.039165 
L 210.321918 186.038984 
L 210.321918 186.039101 
L 210.321918 186.04007 
L 210.321918 186.03925 
L 210.321918 186.039136 
L 210.321918 186.039666 
L 210.321918 186.039148 
L 210.321918 186.038928 
L 210.321918 186.039518 
L 210.321918 186.039301 
L 210.321918 186.038452 
L 210.321918 186.038483 
" clip-path="url(#p3b14084822)" style="fill: none; stroke: #e377c2; stroke-width: 1.5; stroke-linecap: square"/>
   </g>
   <g id="line2d_21">
    <path d="M 74.308445 264.887814 
L 74.308445 264.889698 
L 74.308445 264.887737 
L 74.308445 264.887763 
L 90.460332 284.573399 
L 90.460332 284.572325 
L 104.059498 267.902718 
L 104.059498 267.90288 
L 107.669347 260.278007 
L 107.669347 260.278336 
L 128.024489 213.995265 
L 159.629167 167.884437 
L 159.629167 167.884684 
L 173.015358 157.859726 
L 173.015358 157.861606 
L 174.391857 157.21629 
L 174.391857 157.216896 
L 181.108083 155.413305 
L 181.108083 155.414651 
L 190.039193 157.349592 
L 190.039193 157.348629 
L 194.179761 160.341372 
L 194.179761 160.339337 
L 197.913806 164.324378 
L 197.913806 164.323655 
L 210.830307 187.157545 
L 210.830307 187.155881 
L 221.383728 211.4989 
L 221.383728 211.4963 
L 243.968048 234.104683 
L 243.968048 234.103517 
L 246.780659 231.391838 
L 253.66778 219.789595 
L 253.66778 219.790911 
L 270.726472 176.566186 
L 270.726472 176.566682 
L 277.406387 162.060948 
L 277.406387 162.06268 
L 285.128373 150.81375 
L 285.128373 150.816271 
L 316.130996 133.963931 
L 316.130996 133.965209 
L 318.426481 130.885591 
L 318.426481 130.88595 
L 319.007622 130.019681 
L 322.571767 123.943713 
L 322.571767 123.945301 
L 325.688201 117.611075 
L 325.688201 117.61247 
L 339.743775 82.192292 
L 339.743775 82.194105 
L 352.49548 56.296786 
L 352.49548 56.29845 
L 355.129061 53.568 
L 355.129061 53.568368 
L 370.725625 62.130068 
L 370.725625 62.127614 
L 374.351353 69.767307 
L 378.31685 79.879873 
L 390.085649 114.937867 
L 390.085649 114.93616 
L 398.398821 137.44984 
L 398.398821 137.44809 
" clip-path="url(#p3b14084822)" style="fill: none; stroke: #7f7f7f; stroke-width: 1.5; stroke-linecap: square"/>
   </g>
   <g id="patch_3">
    <path d="M 57.6 307.584 
L 57.6 41.472 
" style="fill: none; stroke: #000000; stroke-width: 0.8; stroke-linejoin: miter; stroke-linecap: square"/>
   </g>
   <g id="patch_4">
    <path d="M 414.72 307.584 
L 414.72 41.472 
" style="fill: none; stroke: #000000; stroke-width: 0.8; stroke-linejoin: miter; stroke-linecap: square"/>
   </g>
   <g id="patch_5">
    <path d="M 57.6 307.584 
L 414.72 307.584 
" style="fill: none; stroke: #000000; stroke-width: 0.8; stroke-linejoin: miter; stroke-linecap: square"/>
   </g>
   <g id="patch_6">
    <path d="M 57.6 41.472 
L 414.72 41.472 
" style="fill: none; stroke: #000000; stroke-width: 0.8; stroke-linejoin: miter; stroke-linecap: square"/>
   </g>
   <g id="text_16">
    <!-- Evolvement of rVS mapping over time -->
    <g transform="translate(121.493437 35.472)scale(0.12 -0.12)">
     <defs>
      <path id="DejaVuSans-45" d="M 628 4666 
L 3578 4666 
L 3578 4134 
L 1259 4134 
L 1259 2753 
L 3481 2753 
L 3481 2222 
L 1259 2222 
L 1259 531 
L 3634 531 
L 3634 0 
L 628 0 
L 628 4666 
z
" transform="scale(0.015625)"/>
      <path id="DejaVuSans-76" d="M 191 3500 
L 800 3500 
L 1894 563 
L 2988 3500 
L 3597 3500 
L 2284 0 
L 1503 0 
L 191 3500 
z
" transform="scale(0.015625)"/>
      <path id="DejaVuSans-6f" d="M 1959 3097 
Q 1497 3097 1228 2736 
Q 959 2375 959 1747 
Q 959 1119 1226 758 
Q 1494 397 1959 397 
Q 2419 397 2687 759 
Q 2956 1122 2956 1747 
Q 2956 2369 2687 2733 
Q 2419 3097 1959 3097 
z
M 1959 3584 
Q 2709 3584 3137 3096 
Q 3566 2609 3566 1747 
Q 3566 888 3137 398 
Q 2709 -91 1959 -91 
Q 1206 -91 779 398 
Q 353 888 353 1747 
Q 353 2609 779 3096 
Q 1206 3584 1959 3584 
z
" transform="scale(0.015625)"/>
      <path id="DejaVuSans-6c" d="M 603 4863 
L 1178 4863 
L 1178 0 
L 603 0 
L 603 4863 
z
" transform="scale(0.015625)"/>
      <path id="DejaVuSans-65" d="M 3597 1894 
L 3597 1613 
L 953 1613 
Q 991 1019 1311 708 
Q 1631 397 2203 397 
Q 2534 397 2845 478 
Q 3156 559 3463 722 
L 3463 178 
Q 3153 47 2828 -22 
Q 2503 -91 2169 -91 
Q 1331 -91 842 396 
Q 353 884 353 1716 
Q 353 2575 817 3079 
Q 1281 3584 2069 3584 
Q 2775 3584 3186 3129 
Q 3597 2675 3597 1894 
z
M 3022 2063 
Q 3016 2534 2758 2815 
Q 2500 3097 2075 3097 
Q 1594 3097 1305 2825 
Q 1016 2553 972 2059 
L 3022 2063 
z
" transform="scale(0.015625)"/>
      <path id="DejaVuSans-6d" d="M 3328 2828 
Q 3544 3216 3844 3400 
Q 4144 3584 4550 3584 
Q 5097 3584 5394 3201 
Q 5691 2819 5691 2113 
L 5691 0 
L 5113 0 
L 5113 2094 
Q 5113 2597 4934 2840 
Q 4756 3084 4391 3084 
Q 3944 3084 3684 2787 
Q 3425 2491 3425 1978 
L 3425 0 
L 2847 0 
L 2847 2094 
Q 2847 2600 2669 2842 
Q 2491 3084 2119 3084 
Q 1678 3084 1418 2786 
Q 1159 2488 1159 1978 
L 1159 0 
L 581 0 
L 581 3500 
L 1159 3500 
L 1159 2956 
Q 1356 3278 1631 3431 
Q 1906 3584 2284 3584 
Q 2666 3584 2933 3390 
Q 3200 3197 3328 2828 
z
" transform="scale(0.015625)"/>
      <path id="DejaVuSans-6e" d="M 3513 2113 
L 3513 0 
L 2938 0 
L 2938 2094 
Q 2938 2591 2744 2837 
Q 2550 3084 2163 3084 
Q 1697 3084 1428 2787 
Q 1159 2491 1159 1978 
L 1159 0 
L 581 0 
L 581 3500 
L 1159 3500 
L 1159 2956 
Q 1366 3272 1645 3428 
Q 1925 3584 2291 3584 
Q 2894 3584 3203 3211 
Q 3513 2838 3513 2113 
z
" transform="scale(0.015625)"/>
      <path id="DejaVuSans-74" d="M 1172 4494 
L 1172 3500 
L 2356 3500 
L 2356 3053 
L 1172 3053 
L 1172 1153 
Q 1172 725 1289 603 
Q 1406 481 1766 481 
L 2356 481 
L 2356 0 
L 1766 0 
Q 1100 0 847 248 
Q 594 497 594 1153 
L 594 3053 
L 172 3053 
L 172 3500 
L 594 3500 
L 594 4494 
L 1172 4494 
z
" transform="scale(0.015625)"/>
      <path id="DejaVuSans-66" d="M 2375 4863 
L 2375 4384 
L 1825 4384 
Q 1516 4384 1395 4259 
Q 1275 4134 1275 3809 
L 1275 3500 
L 2222 3500 
L 2222 3053 
L 1275 3053 
L 1275 0 
L 697 0 
L 697 3053 
L 147 3053 
L 147 3500 
L 697 3500 
L 697 3744 
Q 697 4328 969 4595 
Q 1241 4863 1831 4863 
L 2375 4863 
z
" transform="scale(0.015625)"/>
      <path id="DejaVuSans-61" d="M 2194 1759 
Q 1497 1759 1228 1600 
Q 959 1441 959 1056 
Q 959 750 1161 570 
Q 1363 391 1709 391 
Q 2188 391 2477 730 
Q 2766 1069 2766 1631 
L 2766 1759 
L 2194 1759 
z
M 3341 1997 
L 3341 0 
L 2766 0 
L 2766 531 
Q 2569 213 2275 61 
Q 1981 -91 1556 -91 
Q 1019 -91 701 211 
Q 384 513 384 1019 
Q 384 1609 779 1909 
Q 1175 2209 1959 2209 
L 2766 2209 
L 2766 2266 
Q 2766 2663 2505 2880 
Q 2244 3097 1772 3097 
Q 1472 3097 1187 3025 
Q 903 2953 641 2809 
L 641 3341 
Q 956 3463 1253 3523 
Q 1550 3584 1831 3584 
Q 2591 3584 2966 3190 
Q 3341 2797 3341 1997 
z
" transform="scale(0.015625)"/>
      <path id="DejaVuSans-70" d="M 1159 525 
L 1159 -1331 
L 581 -1331 
L 581 3500 
L 1159 3500 
L 1159 2969 
Q 1341 3281 1617 3432 
Q 1894 3584 2278 3584 
Q 2916 3584 3314 3078 
Q 3713 2572 3713 1747 
Q 3713 922 3314 415 
Q 2916 -91 2278 -91 
Q 1894 -91 1617 61 
Q 1341 213 1159 525 
z
M 3116 1747 
Q 3116 2381 2855 2742 
Q 2594 3103 2138 3103 
Q 1681 3103 1420 2742 
Q 1159 2381 1159 1747 
Q 1159 1113 1420 752 
Q 1681 391 2138 391 
Q 2594 391 2855 752 
Q 3116 1113 3116 1747 
z
" transform="scale(0.015625)"/>
      <path id="DejaVuSans-69" d="M 603 3500 
L 1178 3500 
L 1178 0 
L 603 0 
L 603 3500 
z
M 603 4863 
L 1178 4863 
L 1178 4134 
L 603 4134 
L 603 4863 
z
" transform="scale(0.015625)"/>
      <path id="DejaVuSans-67" d="M 2906 1791 
Q 2906 2416 2648 2759 
Q 2391 3103 1925 3103 
Q 1463 3103 1205 2759 
Q 947 2416 947 1791 
Q 947 1169 1205 825 
Q 1463 481 1925 481 
Q 2391 481 2648 825 
Q 2906 1169 2906 1791 
z
M 3481 434 
Q 3481 -459 3084 -895 
Q 2688 -1331 1869 -1331 
Q 1566 -1331 1297 -1286 
Q 1028 -1241 775 -1147 
L 775 -588 
Q 1028 -725 1275 -790 
Q 1522 -856 1778 -856 
Q 2344 -856 2625 -561 
Q 2906 -266 2906 331 
L 2906 616 
Q 2728 306 2450 153 
Q 2172 0 1784 0 
Q 1141 0 747 490 
Q 353 981 353 1791 
Q 353 2603 747 3093 
Q 1141 3584 1784 3584 
Q 2172 3584 2450 3431 
Q 2728 3278 2906 2969 
L 2906 3500 
L 3481 3500 
L 3481 434 
z
" transform="scale(0.015625)"/>
     </defs>
     <use xlink:href="#DejaVuSans-45"/>
     <use xlink:href="#DejaVuSans-76" x="63.183594"/>
     <use xlink:href="#DejaVuSans-6f" x="122.363281"/>
     <use xlink:href="#DejaVuSans-6c" x="183.544922"/>
     <use xlink:href="#DejaVuSans-76" x="211.328125"/>
     <use xlink:href="#DejaVuSans-65" x="270.507812"/>
     <use xlink:href="#DejaVuSans-6d" x="332.03125"/>
     <use xlink:href="#DejaVuSans-65" x="429.443359"/>
     <use xlink:href="#DejaVuSans-6e" x="490.966797"/>
     <use xlink:href="#DejaVuSans-74" x="554.345703"/>
     <use xlink:href="#DejaVuSans-20" x="593.554688"/>
     <use xlink:href="#DejaVuSans-6f" x="625.341797"/>
     <use xlink:href="#DejaVuSans-66" x="686.523438"/>
     <use xlink:href="#DejaVuSans-20" x="721.728516"/>
     <use xlink:href="#DejaVuSans-72" x="753.515625"/>
     <use xlink:href="#DejaVuSans-56" x="794.628906"/>
     <use xlink:href="#DejaVuSans-53" x="863.037109"/>
     <use xlink:href="#DejaVuSans-20" x="926.513672"/>
     <use xlink:href="#DejaVuSans-6d" x="958.300781"/>
     <use xlink:href="#DejaVuSans-61" x="1055.712891"/>
     <use xlink:href="#DejaVuSans-70" x="1116.992188"/>
     <use xlink:href="#DejaVuSans-70" x="1180.46875"/>
     <use xlink:href="#DejaVuSans-69" x="1243.945312"/>
     <use xlink:href="#DejaVuSans-6e" x="1271.728516"/>
     <use xlink:href="#DejaVuSans-67" x="1335.107422"/>
     <use xlink:href="#DejaVuSans-20" x="1398.583984"/>
     <use xlink:href="#DejaVuSans-6f" x="1430.371094"/>
     <use xlink:href="#DejaVuSans-76" x="1491.552734"/>
     <use xlink:href="#DejaVuSans-65" x="1550.732422"/>
     <use xlink:href="#DejaVuSans-72" x="1612.255859"/>
     <use xlink:href="#DejaVuSans-20" x="1653.369141"/>
     <use xlink:href="#DejaVuSans-74" x="1685.15625"/>
     <use xlink:href="#DejaVuSans-69" x="1724.365234"/>
     <use xlink:href="#DejaVuSans-6d" x="1752.148438"/>
     <use xlink:href="#DejaVuSans-65" x="1849.560547"/>
    </g>
   </g>
   <g id="legend_1">
    <g id="patch_7">
     <path d="M 64.6 166.897 
L 280.675 166.897 
Q 282.675 166.897 282.675 164.897 
L 282.675 48.472 
Q 282.675 46.472 280.675 46.472 
L 64.6 46.472 
Q 62.6 46.472 62.6 48.472 
L 62.6 164.897 
Q 62.6 166.897 64.6 166.897 
z
" style="fill: #ffffff; opacity: 0.8; stroke: #cccccc; stroke-linejoin: miter"/>
    </g>
    <g id="line2d_22">
     <path d="M 66.6 54.570438 
L 76.6 54.570438 
L 86.6 54.570438 
" style="fill: none; stroke: #1f77b4; stroke-width: 1.5; stroke-linecap: square"/>
    </g>
    <g id="text_17">
     <!-- mapping at t=0 -->
     <g transform="translate(94.6 58.070438)scale(0.1 -0.1)">
      <defs>
       <path id="DejaVuSans-3d" d="M 678 2906 
L 4684 2906 
L 4684 2381 
L 678 2381 
L 678 2906 
z
M 678 1631 
L 4684 1631 
L 4684 1100 
L 678 1100 
L 678 1631 
z
" transform="scale(0.015625)"/>
      </defs>
      <use xlink:href="#DejaVuSans-6d"/>
      <use xlink:href="#DejaVuSans-61" x="97.412109"/>
      <use xlink:href="#DejaVuSans-70" x="158.691406"/>
      <use xlink:href="#DejaVuSans-70" x="222.167969"/>
      <use xlink:href="#DejaVuSans-69" x="285.644531"/>
      <use xlink:href="#DejaVuSans-6e" x="313.427734"/>
      <use xlink:href="#DejaVuSans-67" x="376.806641"/>
      <use xlink:href="#DejaVuSans-20" x="440.283203"/>
      <use xlink:href="#DejaVuSans-61" x="472.070312"/>
      <use xlink:href="#DejaVuSans-74" x="533.349609"/>
      <use xlink:href="#DejaVuSans-20" x="572.558594"/>
      <use xlink:href="#DejaVuSans-74" x="604.345703"/>
      <use xlink:href="#DejaVuSans-3d" x="643.554688"/>
      <use xlink:href="#DejaVuSans-30" x="727.34375"/>
     </g>
    </g>
    <g id="line2d_23">
     <path d="M 66.6 69.248563 
L 76.6 69.248563 
L 86.6 69.248563 
" style="fill: none; stroke: #ff7f0e; stroke-width: 1.5; stroke-linecap: square"/>
    </g>
    <g id="text_18">
     <!-- mapping at t=175.20000000000002 -->
     <g transform="translate(94.6 72.748563)scale(0.1 -0.1)">
      <use xlink:href="#DejaVuSans-6d"/>
      <use xlink:href="#DejaVuSans-61" x="97.412109"/>
      <use xlink:href="#DejaVuSans-70" x="158.691406"/>
      <use xlink:href="#DejaVuSans-70" x="222.167969"/>
      <use xlink:href="#DejaVuSans-69" x="285.644531"/>
      <use xlink:href="#DejaVuSans-6e" x="313.427734"/>
      <use xlink:href="#DejaVuSans-67" x="376.806641"/>
      <use xlink:href="#DejaVuSans-20" x="440.283203"/>
      <use xlink:href="#DejaVuSans-61" x="472.070312"/>
      <use xlink:href="#DejaVuSans-74" x="533.349609"/>
      <use xlink:href="#DejaVuSans-20" x="572.558594"/>
      <use xlink:href="#DejaVuSans-74" x="604.345703"/>
      <use xlink:href="#DejaVuSans-3d" x="643.554688"/>
      <use xlink:href="#DejaVuSans-31" x="727.34375"/>
      <use xlink:href="#DejaVuSans-37" x="790.966797"/>
      <use xlink:href="#DejaVuSans-35" x="854.589844"/>
      <use xlink:href="#DejaVuSans-2e" x="918.212891"/>
      <use xlink:href="#DejaVuSans-32" x="950"/>
      <use xlink:href="#DejaVuSans-30" x="1013.623047"/>
      <use xlink:href="#DejaVuSans-30" x="1077.246094"/>
      <use xlink:href="#DejaVuSans-30" x="1140.869141"/>
      <use xlink:href="#DejaVuSans-30" x="1204.492188"/>
      <use xlink:href="#DejaVuSans-30" x="1268.115234"/>
      <use xlink:href="#DejaVuSans-30" x="1331.738281"/>
      <use xlink:href="#DejaVuSans-30" x="1395.361328"/>
      <use xlink:href="#DejaVuSans-30" x="1458.984375"/>
      <use xlink:href="#DejaVuSans-30" x="1522.607422"/>
      <use xlink:href="#DejaVuSans-30" x="1586.230469"/>
      <use xlink:href="#DejaVuSans-30" x="1649.853516"/>
      <use xlink:href="#DejaVuSans-30" x="1713.476562"/>
      <use xlink:href="#DejaVuSans-32" x="1777.099609"/>
     </g>
    </g>
    <g id="line2d_24">
     <path d="M 66.6 83.926688 
L 76.6 83.926688 
L 86.6 83.926688 
" style="fill: none; stroke: #2ca02c; stroke-width: 1.5; stroke-linecap: square"/>
    </g>
    <g id="text_19">
     <!-- mapping at t=250.20000000000002 -->
     <g transform="translate(94.6 87.426688)scale(0.1 -0.1)">
      <use xlink:href="#DejaVuSans-6d"/>
      <use xlink:href="#DejaVuSans-61" x="97.412109"/>
      <use xlink:href="#DejaVuSans-70" x="158.691406"/>
      <use xlink:href="#DejaVuSans-70" x="222.167969"/>
      <use xlink:href="#DejaVuSans-69" x="285.644531"/>
      <use xlink:href="#DejaVuSans-6e" x="313.427734"/>
      <use xlink:href="#DejaVuSans-67" x="376.806641"/>
      <use xlink:href="#DejaVuSans-20" x="440.283203"/>
      <use xlink:href="#DejaVuSans-61" x="472.070312"/>
      <use xlink:href="#DejaVuSans-74" x="533.349609"/>
      <use xlink:href="#DejaVuSans-20" x="572.558594"/>
      <use xlink:href="#DejaVuSans-74" x="604.345703"/>
      <use xlink:href="#DejaVuSans-3d" x="643.554688"/>
      <use xlink:href="#DejaVuSans-32" x="727.34375"/>
      <use xlink:href="#DejaVuSans-35" x="790.966797"/>
      <use xlink:href="#DejaVuSans-30" x="854.589844"/>
      <use xlink:href="#DejaVuSans-2e" x="918.212891"/>
      <use xlink:href="#DejaVuSans-32" x="950"/>
      <use xlink:href="#DejaVuSans-30" x="1013.623047"/>
      <use xlink:href="#DejaVuSans-30" x="1077.246094"/>
      <use xlink:href="#DejaVuSans-30" x="1140.869141"/>
      <use xlink:href="#DejaVuSans-30" x="1204.492188"/>
      <use xlink:href="#DejaVuSans-30" x="1268.115234"/>
      <use xlink:href="#DejaVuSans-30" x="1331.738281"/>
      <use xlink:href="#DejaVuSans-30" x="1395.361328"/>
      <use xlink:href="#DejaVuSans-30" x="1458.984375"/>
      <use xlink:href="#DejaVuSans-30" x="1522.607422"/>
      <use xlink:href="#DejaVuSans-30" x="1586.230469"/>
      <use xlink:href="#DejaVuSans-30" x="1649.853516"/>
      <use xlink:href="#DejaVuSans-30" x="1713.476562"/>
      <use xlink:href="#DejaVuSans-32" x="1777.099609"/>
     </g>
    </g>
    <g id="line2d_25">
     <path d="M 66.6 98.604813 
L 76.6 98.604813 
L 86.6 98.604813 
" style="fill: none; stroke: #d62728; stroke-width: 1.5; stroke-linecap: square"/>
    </g>
    <g id="text_20">
     <!-- mapping at t=400.20000000000005 -->
     <g transform="translate(94.6 102.104813)scale(0.1 -0.1)">
      <defs>
       <path id="DejaVuSans-34" d="M 2419 4116 
L 825 1625 
L 2419 1625 
L 2419 4116 
z
M 2253 4666 
L 3047 4666 
L 3047 1625 
L 3713 1625 
L 3713 1100 
L 3047 1100 
L 3047 0 
L 2419 0 
L 2419 1100 
L 313 1100 
L 313 1709 
L 2253 4666 
z
" transform="scale(0.015625)"/>
      </defs>
      <use xlink:href="#DejaVuSans-6d"/>
      <use xlink:href="#DejaVuSans-61" x="97.412109"/>
      <use xlink:href="#DejaVuSans-70" x="158.691406"/>
      <use xlink:href="#DejaVuSans-70" x="222.167969"/>
      <use xlink:href="#DejaVuSans-69" x="285.644531"/>
      <use xlink:href="#DejaVuSans-6e" x="313.427734"/>
      <use xlink:href="#DejaVuSans-67" x="376.806641"/>
      <use xlink:href="#DejaVuSans-20" x="440.283203"/>
      <use xlink:href="#DejaVuSans-61" x="472.070312"/>
      <use xlink:href="#DejaVuSans-74" x="533.349609"/>
      <use xlink:href="#DejaVuSans-20" x="572.558594"/>
      <use xlink:href="#DejaVuSans-74" x="604.345703"/>
      <use xlink:href="#DejaVuSans-3d" x="643.554688"/>
      <use xlink:href="#DejaVuSans-34" x="727.34375"/>
      <use xlink:href="#DejaVuSans-30" x="790.966797"/>
      <use xlink:href="#DejaVuSans-30" x="854.589844"/>
      <use xlink:href="#DejaVuSans-2e" x="918.212891"/>
      <use xlink:href="#DejaVuSans-32" x="950"/>
      <use xlink:href="#DejaVuSans-30" x="1013.623047"/>
      <use xlink:href="#DejaVuSans-30" x="1077.246094"/>
      <use xlink:href="#DejaVuSans-30" x="1140.869141"/>
      <use xlink:href="#DejaVuSans-30" x="1204.492188"/>
      <use xlink:href="#DejaVuSans-30" x="1268.115234"/>
      <use xlink:href="#DejaVuSans-30" x="1331.738281"/>
      <use xlink:href="#DejaVuSans-30" x="1395.361328"/>
      <use xlink:href="#DejaVuSans-30" x="1458.984375"/>
      <use xlink:href="#DejaVuSans-30" x="1522.607422"/>
      <use xlink:href="#DejaVuSans-30" x="1586.230469"/>
      <use xlink:href="#DejaVuSans-30" x="1649.853516"/>
      <use xlink:href="#DejaVuSans-30" x="1713.476562"/>
      <use xlink:href="#DejaVuSans-35" x="1777.099609"/>
     </g>
    </g>
    <g id="line2d_26">
     <path d="M 66.6 113.282938 
L 76.6 113.282938 
L 86.6 113.282938 
" style="fill: none; stroke: #9467bd; stroke-width: 1.5; stroke-linecap: square"/>
    </g>
    <g id="text_21">
     <!-- mapping at t=700.2 -->
     <g transform="translate(94.6 116.782938)scale(0.1 -0.1)">
      <use xlink:href="#DejaVuSans-6d"/>
      <use xlink:href="#DejaVuSans-61" x="97.412109"/>
      <use xlink:href="#DejaVuSans-70" x="158.691406"/>
      <use xlink:href="#DejaVuSans-70" x="222.167969"/>
      <use xlink:href="#DejaVuSans-69" x="285.644531"/>
      <use xlink:href="#DejaVuSans-6e" x="313.427734"/>
      <use xlink:href="#DejaVuSans-67" x="376.806641"/>
      <use xlink:href="#DejaVuSans-20" x="440.283203"/>
      <use xlink:href="#DejaVuSans-61" x="472.070312"/>
      <use xlink:href="#DejaVuSans-74" x="533.349609"/>
      <use xlink:href="#DejaVuSans-20" x="572.558594"/>
      <use xlink:href="#DejaVuSans-74" x="604.345703"/>
      <use xlink:href="#DejaVuSans-3d" x="643.554688"/>
      <use xlink:href="#DejaVuSans-37" x="727.34375"/>
      <use xlink:href="#DejaVuSans-30" x="790.966797"/>
      <use xlink:href="#DejaVuSans-30" x="854.589844"/>
      <use xlink:href="#DejaVuSans-2e" x="918.212891"/>
      <use xlink:href="#DejaVuSans-32" x="950"/>
     </g>
    </g>
    <g id="line2d_27">
     <path d="M 66.6 127.961063 
L 76.6 127.961063 
L 86.6 127.961063 
" style="fill: none; stroke: #8c564b; stroke-width: 1.5; stroke-linecap: square"/>
    </g>
    <g id="text_22">
     <!-- mapping at t=940.2 -->
     <g transform="translate(94.6 131.461063)scale(0.1 -0.1)">
      <defs>
       <path id="DejaVuSans-39" d="M 703 97 
L 703 672 
Q 941 559 1184 500 
Q 1428 441 1663 441 
Q 2288 441 2617 861 
Q 2947 1281 2994 2138 
Q 2813 1869 2534 1725 
Q 2256 1581 1919 1581 
Q 1219 1581 811 2004 
Q 403 2428 403 3163 
Q 403 3881 828 4315 
Q 1253 4750 1959 4750 
Q 2769 4750 3195 4129 
Q 3622 3509 3622 2328 
Q 3622 1225 3098 567 
Q 2575 -91 1691 -91 
Q 1453 -91 1209 -44 
Q 966 3 703 97 
z
M 1959 2075 
Q 2384 2075 2632 2365 
Q 2881 2656 2881 3163 
Q 2881 3666 2632 3958 
Q 2384 4250 1959 4250 
Q 1534 4250 1286 3958 
Q 1038 3666 1038 3163 
Q 1038 2656 1286 2365 
Q 1534 2075 1959 2075 
z
" transform="scale(0.015625)"/>
      </defs>
      <use xlink:href="#DejaVuSans-6d"/>
      <use xlink:href="#DejaVuSans-61" x="97.412109"/>
      <use xlink:href="#DejaVuSans-70" x="158.691406"/>
      <use xlink:href="#DejaVuSans-70" x="222.167969"/>
      <use xlink:href="#DejaVuSans-69" x="285.644531"/>
      <use xlink:href="#DejaVuSans-6e" x="313.427734"/>
      <use xlink:href="#DejaVuSans-67" x="376.806641"/>
      <use xlink:href="#DejaVuSans-20" x="440.283203"/>
      <use xlink:href="#DejaVuSans-61" x="472.070312"/>
      <use xlink:href="#DejaVuSans-74" x="533.349609"/>
      <use xlink:href="#DejaVuSans-20" x="572.558594"/>
      <use xlink:href="#DejaVuSans-74" x="604.345703"/>
      <use xlink:href="#DejaVuSans-3d" x="643.554688"/>
      <use xlink:href="#DejaVuSans-39" x="727.34375"/>
      <use xlink:href="#DejaVuSans-34" x="790.966797"/>
      <use xlink:href="#DejaVuSans-30" x="854.589844"/>
      <use xlink:href="#DejaVuSans-2e" x="918.212891"/>
      <use xlink:href="#DejaVuSans-32" x="950"/>
     </g>
    </g>
    <g id="line2d_28">
     <path d="M 66.6 142.639188 
L 76.6 142.639188 
L 86.6 142.639188 
" style="fill: none; stroke: #e377c2; stroke-width: 1.5; stroke-linecap: square"/>
    </g>
    <g id="text_23">
     <!-- mapping at t=1010.2 -->
     <g transform="translate(94.6 146.139188)scale(0.1 -0.1)">
      <use xlink:href="#DejaVuSans-6d"/>
      <use xlink:href="#DejaVuSans-61" x="97.412109"/>
      <use xlink:href="#DejaVuSans-70" x="158.691406"/>
      <use xlink:href="#DejaVuSans-70" x="222.167969"/>
      <use xlink:href="#DejaVuSans-69" x="285.644531"/>
      <use xlink:href="#DejaVuSans-6e" x="313.427734"/>
      <use xlink:href="#DejaVuSans-67" x="376.806641"/>
      <use xlink:href="#DejaVuSans-20" x="440.283203"/>
      <use xlink:href="#DejaVuSans-61" x="472.070312"/>
      <use xlink:href="#DejaVuSans-74" x="533.349609"/>
      <use xlink:href="#DejaVuSans-20" x="572.558594"/>
      <use xlink:href="#DejaVuSans-74" x="604.345703"/>
      <use xlink:href="#DejaVuSans-3d" x="643.554688"/>
      <use xlink:href="#DejaVuSans-31" x="727.34375"/>
      <use xlink:href="#DejaVuSans-30" x="790.966797"/>
      <use xlink:href="#DejaVuSans-31" x="854.589844"/>
      <use xlink:href="#DejaVuSans-30" x="918.212891"/>
      <use xlink:href="#DejaVuSans-2e" x="981.835938"/>
      <use xlink:href="#DejaVuSans-32" x="1013.623047"/>
     </g>
    </g>
    <g id="line2d_29">
     <path d="M 66.6 157.317313 
L 76.6 157.317313 
L 86.6 157.317313 
" style="fill: none; stroke: #7f7f7f; stroke-width: 1.5; stroke-linecap: square"/>
    </g>
    <g id="text_24">
     <!-- mapping at t=1020.2 -->
     <g transform="translate(94.6 160.817313)scale(0.1 -0.1)">
      <use xlink:href="#DejaVuSans-6d"/>
      <use xlink:href="#DejaVuSans-61" x="97.412109"/>
      <use xlink:href="#DejaVuSans-70" x="158.691406"/>
      <use xlink:href="#DejaVuSans-70" x="222.167969"/>
      <use xlink:href="#DejaVuSans-69" x="285.644531"/>
      <use xlink:href="#DejaVuSans-6e" x="313.427734"/>
      <use xlink:href="#DejaVuSans-67" x="376.806641"/>
      <use xlink:href="#DejaVuSans-20" x="440.283203"/>
      <use xlink:href="#DejaVuSans-61" x="472.070312"/>
      <use xlink:href="#DejaVuSans-74" x="533.349609"/>
      <use xlink:href="#DejaVuSans-20" x="572.558594"/>
      <use xlink:href="#DejaVuSans-74" x="604.345703"/>
      <use xlink:href="#DejaVuSans-3d" x="643.554688"/>
      <use xlink:href="#DejaVuSans-31" x="727.34375"/>
      <use xlink:href="#DejaVuSans-30" x="790.966797"/>
      <use xlink:href="#DejaVuSans-32" x="854.589844"/>
      <use xlink:href="#DejaVuSans-30" x="918.212891"/>
      <use xlink:href="#DejaVuSans-2e" x="981.835938"/>
      <use xlink:href="#DejaVuSans-32" x="1013.623047"/>
     </g>
    </g>
   </g>
  </g>
 </g>
 <defs>
  <clipPath id="p3b14084822">
   <rect x="57.6" y="41.472" width="357.12" height="266.112"/>
  </clipPath>
 </defs>
</svg>
