<?xml version="1.0" encoding="utf-8" standalone="no"?>
<!DOCTYPE svg PUBLIC "-//W3C//DTD SVG 1.1//EN"
  "http://www.w3.org/Graphics/SVG/1.1/DTD/svg11.dtd">
<svg xmlns:xlink="http://www.w3.org/1999/xlink" width="460.8pt" height="345.6pt" viewBox="0 0 460.8 345.6" xmlns="http://www.w3.org/2000/svg" version="1.1">
 <metadata>
  <rdf:RDF xmlns:dc="http://purl.org/dc/elements/1.1/" xmlns:cc="http://creativecommons.org/ns#" xmlns:rdf="http://www.w3.org/1999/02/22-rdf-syntax-ns#">
   <cc:Work>
    <dc:type rdf:resource="http://purl.org/dc/dcmitype/StillImage"/>
    <dc:date>2022-08-17T17:45:55.454517</dc:date>
    <dc:format>image/svg+xml</dc:format>
    <dc:creator>
     <cc:Agent>
      <dc:title>Matplotlib v3.5.2, https://matplotlib.org/</dc:title>
     </cc:Agent>
    </dc:creator>
   </cc:Work>
  </rdf:RDF>
 </metadata>
 <defs>
  <style type="text/css">*{stroke-linejoin: round; stroke-linecap: butt}</style>
 </defs>
 <g id="figure_1">
  <g id="patch_1">
   <path d="M 0 345.6 
L 460.8 345.6 
L 460.8 0 
L 0 0 
z
" style="fill: #ffffff"/>
  </g>
  <g id="axes_1">
   <g id="patch_2">
    <path d="M 57.6 307.584 
L 414.72 307.584 
L 414.72 41.472 
L 57.6 41.472 
z
" style="fill: #ffffff"/>
   </g>
   <g id="matplotlib.axis_1">
    <g id="xtick_1">
     <g id="line2d_1">
      <defs>
       <path id="m1e2f10495c" d="M 0 0 
L 0 3.5 
" style="stroke: #000000; stroke-width: 0.8"/>
      </defs>
      <g>
       <use xlink:href="#m1e2f10495c" x="73.832727" y="307.584" style="stroke: #000000; stroke-width: 0.8"/>
      </g>
     </g>
     <g id="text_1">
      <!-- 0.00 -->
      <g transform="translate(62.699915 322.182437)scale(0.1 -0.1)">
       <defs>
        <path id="DejaVuSans-30" d="M 2034 4250 
Q 1547 4250 1301 3770 
Q 1056 3291 1056 2328 
Q 1056 1369 1301 889 
Q 1547 409 2034 409 
Q 2525 409 2770 889 
Q 3016 1369 3016 2328 
Q 3016 3291 2770 3770 
Q 2525 4250 2034 4250 
z
M 2034 4750 
Q 2819 4750 3233 4129 
Q 3647 3509 3647 2328 
Q 3647 1150 3233 529 
Q 2819 -91 2034 -91 
Q 1250 -91 836 529 
Q 422 1150 422 2328 
Q 422 3509 836 4129 
Q 1250 4750 2034 4750 
z
" transform="scale(0.015625)"/>
        <path id="DejaVuSans-2e" d="M 684 794 
L 1344 794 
L 1344 0 
L 684 0 
L 684 794 
z
" transform="scale(0.015625)"/>
       </defs>
       <use xlink:href="#DejaVuSans-30"/>
       <use xlink:href="#DejaVuSans-2e" x="63.623047"/>
       <use xlink:href="#DejaVuSans-30" x="95.410156"/>
       <use xlink:href="#DejaVuSans-30" x="159.033203"/>
      </g>
     </g>
    </g>
    <g id="xtick_2">
     <g id="line2d_2">
      <g>
       <use xlink:href="#m1e2f10495c" x="114.44134" y="307.584" style="stroke: #000000; stroke-width: 0.8"/>
      </g>
     </g>
     <g id="text_2">
      <!-- 0.25 -->
      <g transform="translate(103.308528 322.182437)scale(0.1 -0.1)">
       <defs>
        <path id="DejaVuSans-32" d="M 1228 531 
L 3431 531 
L 3431 0 
L 469 0 
L 469 531 
Q 828 903 1448 1529 
Q 2069 2156 2228 2338 
Q 2531 2678 2651 2914 
Q 2772 3150 2772 3378 
Q 2772 3750 2511 3984 
Q 2250 4219 1831 4219 
Q 1534 4219 1204 4116 
Q 875 4013 500 3803 
L 500 4441 
Q 881 4594 1212 4672 
Q 1544 4750 1819 4750 
Q 2544 4750 2975 4387 
Q 3406 4025 3406 3419 
Q 3406 3131 3298 2873 
Q 3191 2616 2906 2266 
Q 2828 2175 2409 1742 
Q 1991 1309 1228 531 
z
" transform="scale(0.015625)"/>
        <path id="DejaVuSans-35" d="M 691 4666 
L 3169 4666 
L 3169 4134 
L 1269 4134 
L 1269 2991 
Q 1406 3038 1543 3061 
Q 1681 3084 1819 3084 
Q 2600 3084 3056 2656 
Q 3513 2228 3513 1497 
Q 3513 744 3044 326 
Q 2575 -91 1722 -91 
Q 1428 -91 1123 -41 
Q 819 9 494 109 
L 494 744 
Q 775 591 1075 516 
Q 1375 441 1709 441 
Q 2250 441 2565 725 
Q 2881 1009 2881 1497 
Q 2881 1984 2565 2268 
Q 2250 2553 1709 2553 
Q 1456 2553 1204 2497 
Q 953 2441 691 2322 
L 691 4666 
z
" transform="scale(0.015625)"/>
       </defs>
       <use xlink:href="#DejaVuSans-30"/>
       <use xlink:href="#DejaVuSans-2e" x="63.623047"/>
       <use xlink:href="#DejaVuSans-32" x="95.410156"/>
       <use xlink:href="#DejaVuSans-35" x="159.033203"/>
      </g>
     </g>
    </g>
    <g id="xtick_3">
     <g id="line2d_3">
      <g>
       <use xlink:href="#m1e2f10495c" x="155.049953" y="307.584" style="stroke: #000000; stroke-width: 0.8"/>
      </g>
     </g>
     <g id="text_3">
      <!-- 0.50 -->
      <g transform="translate(143.917141 322.182437)scale(0.1 -0.1)">
       <use xlink:href="#DejaVuSans-30"/>
       <use xlink:href="#DejaVuSans-2e" x="63.623047"/>
       <use xlink:href="#DejaVuSans-35" x="95.410156"/>
       <use xlink:href="#DejaVuSans-30" x="159.033203"/>
      </g>
     </g>
    </g>
    <g id="xtick_4">
     <g id="line2d_4">
      <g>
       <use xlink:href="#m1e2f10495c" x="195.658566" y="307.584" style="stroke: #000000; stroke-width: 0.8"/>
      </g>
     </g>
     <g id="text_4">
      <!-- 0.75 -->
      <g transform="translate(184.525754 322.182437)scale(0.1 -0.1)">
       <defs>
        <path id="DejaVuSans-37" d="M 525 4666 
L 3525 4666 
L 3525 4397 
L 1831 0 
L 1172 0 
L 2766 4134 
L 525 4134 
L 525 4666 
z
" transform="scale(0.015625)"/>
       </defs>
       <use xlink:href="#DejaVuSans-30"/>
       <use xlink:href="#DejaVuSans-2e" x="63.623047"/>
       <use xlink:href="#DejaVuSans-37" x="95.410156"/>
       <use xlink:href="#DejaVuSans-35" x="159.033203"/>
      </g>
     </g>
    </g>
    <g id="xtick_5">
     <g id="line2d_5">
      <g>
       <use xlink:href="#m1e2f10495c" x="236.267179" y="307.584" style="stroke: #000000; stroke-width: 0.8"/>
      </g>
     </g>
     <g id="text_5">
      <!-- 1.00 -->
      <g transform="translate(225.134367 322.182437)scale(0.1 -0.1)">
       <defs>
        <path id="DejaVuSans-31" d="M 794 531 
L 1825 531 
L 1825 4091 
L 703 3866 
L 703 4441 
L 1819 4666 
L 2450 4666 
L 2450 531 
L 3481 531 
L 3481 0 
L 794 0 
L 794 531 
z
" transform="scale(0.015625)"/>
       </defs>
       <use xlink:href="#DejaVuSans-31"/>
       <use xlink:href="#DejaVuSans-2e" x="63.623047"/>
       <use xlink:href="#DejaVuSans-30" x="95.410156"/>
       <use xlink:href="#DejaVuSans-30" x="159.033203"/>
      </g>
     </g>
    </g>
    <g id="xtick_6">
     <g id="line2d_6">
      <g>
       <use xlink:href="#m1e2f10495c" x="276.875792" y="307.584" style="stroke: #000000; stroke-width: 0.8"/>
      </g>
     </g>
     <g id="text_6">
      <!-- 1.25 -->
      <g transform="translate(265.74298 322.182437)scale(0.1 -0.1)">
       <use xlink:href="#DejaVuSans-31"/>
       <use xlink:href="#DejaVuSans-2e" x="63.623047"/>
       <use xlink:href="#DejaVuSans-32" x="95.410156"/>
       <use xlink:href="#DejaVuSans-35" x="159.033203"/>
      </g>
     </g>
    </g>
    <g id="xtick_7">
     <g id="line2d_7">
      <g>
       <use xlink:href="#m1e2f10495c" x="317.484406" y="307.584" style="stroke: #000000; stroke-width: 0.8"/>
      </g>
     </g>
     <g id="text_7">
      <!-- 1.50 -->
      <g transform="translate(306.351593 322.182437)scale(0.1 -0.1)">
       <use xlink:href="#DejaVuSans-31"/>
       <use xlink:href="#DejaVuSans-2e" x="63.623047"/>
       <use xlink:href="#DejaVuSans-35" x="95.410156"/>
       <use xlink:href="#DejaVuSans-30" x="159.033203"/>
      </g>
     </g>
    </g>
    <g id="xtick_8">
     <g id="line2d_8">
      <g>
       <use xlink:href="#m1e2f10495c" x="358.093019" y="307.584" style="stroke: #000000; stroke-width: 0.8"/>
      </g>
     </g>
     <g id="text_8">
      <!-- 1.75 -->
      <g transform="translate(346.960206 322.182437)scale(0.1 -0.1)">
       <use xlink:href="#DejaVuSans-31"/>
       <use xlink:href="#DejaVuSans-2e" x="63.623047"/>
       <use xlink:href="#DejaVuSans-37" x="95.410156"/>
       <use xlink:href="#DejaVuSans-35" x="159.033203"/>
      </g>
     </g>
    </g>
    <g id="xtick_9">
     <g id="line2d_9">
      <g>
       <use xlink:href="#m1e2f10495c" x="398.701632" y="307.584" style="stroke: #000000; stroke-width: 0.8"/>
      </g>
     </g>
     <g id="text_9">
      <!-- 2.00 -->
      <g transform="translate(387.568819 322.182437)scale(0.1 -0.1)">
       <use xlink:href="#DejaVuSans-32"/>
       <use xlink:href="#DejaVuSans-2e" x="63.623047"/>
       <use xlink:href="#DejaVuSans-30" x="95.410156"/>
       <use xlink:href="#DejaVuSans-30" x="159.033203"/>
      </g>
     </g>
    </g>
    <g id="text_10">
     <!-- GT VS -->
     <g transform="translate(221.229531 335.860562)scale(0.1 -0.1)">
      <defs>
       <path id="DejaVuSans-47" d="M 3809 666 
L 3809 1919 
L 2778 1919 
L 2778 2438 
L 4434 2438 
L 4434 434 
Q 4069 175 3628 42 
Q 3188 -91 2688 -91 
Q 1594 -91 976 548 
Q 359 1188 359 2328 
Q 359 3472 976 4111 
Q 1594 4750 2688 4750 
Q 3144 4750 3555 4637 
Q 3966 4525 4313 4306 
L 4313 3634 
Q 3963 3931 3569 4081 
Q 3175 4231 2741 4231 
Q 1884 4231 1454 3753 
Q 1025 3275 1025 2328 
Q 1025 1384 1454 906 
Q 1884 428 2741 428 
Q 3075 428 3337 486 
Q 3600 544 3809 666 
z
" transform="scale(0.015625)"/>
       <path id="DejaVuSans-54" d="M -19 4666 
L 3928 4666 
L 3928 4134 
L 2272 4134 
L 2272 0 
L 1638 0 
L 1638 4134 
L -19 4134 
L -19 4666 
z
" transform="scale(0.015625)"/>
       <path id="DejaVuSans-20" transform="scale(0.015625)"/>
       <path id="DejaVuSans-56" d="M 1831 0 
L 50 4666 
L 709 4666 
L 2188 738 
L 3669 4666 
L 4325 4666 
L 2547 0 
L 1831 0 
z
" transform="scale(0.015625)"/>
       <path id="DejaVuSans-53" d="M 3425 4513 
L 3425 3897 
Q 3066 4069 2747 4153 
Q 2428 4238 2131 4238 
Q 1616 4238 1336 4038 
Q 1056 3838 1056 3469 
Q 1056 3159 1242 3001 
Q 1428 2844 1947 2747 
L 2328 2669 
Q 3034 2534 3370 2195 
Q 3706 1856 3706 1288 
Q 3706 609 3251 259 
Q 2797 -91 1919 -91 
Q 1588 -91 1214 -16 
Q 841 59 441 206 
L 441 856 
Q 825 641 1194 531 
Q 1563 422 1919 422 
Q 2459 422 2753 634 
Q 3047 847 3047 1241 
Q 3047 1584 2836 1778 
Q 2625 1972 2144 2069 
L 1759 2144 
Q 1053 2284 737 2584 
Q 422 2884 422 3419 
Q 422 4038 858 4394 
Q 1294 4750 2059 4750 
Q 2388 4750 2728 4690 
Q 3069 4631 3425 4513 
z
" transform="scale(0.015625)"/>
      </defs>
      <use xlink:href="#DejaVuSans-47"/>
      <use xlink:href="#DejaVuSans-54" x="73.865234"/>
      <use xlink:href="#DejaVuSans-20" x="134.949219"/>
      <use xlink:href="#DejaVuSans-56" x="166.736328"/>
      <use xlink:href="#DejaVuSans-53" x="235.144531"/>
     </g>
    </g>
   </g>
   <g id="matplotlib.axis_2">
    <g id="ytick_1">
     <g id="line2d_10">
      <defs>
       <path id="m02f1be4129" d="M 0 0 
L -3.5 0 
" style="stroke: #000000; stroke-width: 0.8"/>
      </defs>
      <g>
       <use xlink:href="#m02f1be4129" x="57.6" y="285.554332" style="stroke: #000000; stroke-width: 0.8"/>
      </g>
     </g>
     <g id="text_11">
      <!-- −0.5 -->
      <g transform="translate(26.317187 289.353551)scale(0.1 -0.1)">
       <defs>
        <path id="DejaVuSans-2212" d="M 678 2272 
L 4684 2272 
L 4684 1741 
L 678 1741 
L 678 2272 
z
" transform="scale(0.015625)"/>
       </defs>
       <use xlink:href="#DejaVuSans-2212"/>
       <use xlink:href="#DejaVuSans-30" x="83.789062"/>
       <use xlink:href="#DejaVuSans-2e" x="147.412109"/>
       <use xlink:href="#DejaVuSans-35" x="179.199219"/>
      </g>
     </g>
    </g>
    <g id="ytick_2">
     <g id="line2d_11">
      <g>
       <use xlink:href="#m02f1be4129" x="57.6" y="254.529269" style="stroke: #000000; stroke-width: 0.8"/>
      </g>
     </g>
     <g id="text_12">
      <!-- 0.0 -->
      <g transform="translate(34.696875 258.328488)scale(0.1 -0.1)">
       <use xlink:href="#DejaVuSans-30"/>
       <use xlink:href="#DejaVuSans-2e" x="63.623047"/>
       <use xlink:href="#DejaVuSans-30" x="95.410156"/>
      </g>
     </g>
    </g>
    <g id="ytick_3">
     <g id="line2d_12">
      <g>
       <use xlink:href="#m02f1be4129" x="57.6" y="223.504206" style="stroke: #000000; stroke-width: 0.8"/>
      </g>
     </g>
     <g id="text_13">
      <!-- 0.5 -->
      <g transform="translate(34.696875 227.303424)scale(0.1 -0.1)">
       <use xlink:href="#DejaVuSans-30"/>
       <use xlink:href="#DejaVuSans-2e" x="63.623047"/>
       <use xlink:href="#DejaVuSans-35" x="95.410156"/>
      </g>
     </g>
    </g>
    <g id="ytick_4">
     <g id="line2d_13">
      <g>
       <use xlink:href="#m02f1be4129" x="57.6" y="192.479142" style="stroke: #000000; stroke-width: 0.8"/>
      </g>
     </g>
     <g id="text_14">
      <!-- 1.0 -->
      <g transform="translate(34.696875 196.278361)scale(0.1 -0.1)">
       <use xlink:href="#DejaVuSans-31"/>
       <use xlink:href="#DejaVuSans-2e" x="63.623047"/>
       <use xlink:href="#DejaVuSans-30" x="95.410156"/>
      </g>
     </g>
    </g>
    <g id="ytick_5">
     <g id="line2d_14">
      <g>
       <use xlink:href="#m02f1be4129" x="57.6" y="161.454079" style="stroke: #000000; stroke-width: 0.8"/>
      </g>
     </g>
     <g id="text_15">
      <!-- 1.5 -->
      <g transform="translate(34.696875 165.253298)scale(0.1 -0.1)">
       <use xlink:href="#DejaVuSans-31"/>
       <use xlink:href="#DejaVuSans-2e" x="63.623047"/>
       <use xlink:href="#DejaVuSans-35" x="95.410156"/>
      </g>
     </g>
    </g>
    <g id="ytick_6">
     <g id="line2d_15">
      <g>
       <use xlink:href="#m02f1be4129" x="57.6" y="130.429015" style="stroke: #000000; stroke-width: 0.8"/>
      </g>
     </g>
     <g id="text_16">
      <!-- 2.0 -->
      <g transform="translate(34.696875 134.228234)scale(0.1 -0.1)">
       <use xlink:href="#DejaVuSans-32"/>
       <use xlink:href="#DejaVuSans-2e" x="63.623047"/>
       <use xlink:href="#DejaVuSans-30" x="95.410156"/>
      </g>
     </g>
    </g>
    <g id="ytick_7">
     <g id="line2d_16">
      <g>
       <use xlink:href="#m02f1be4129" x="57.6" y="99.403952" style="stroke: #000000; stroke-width: 0.8"/>
      </g>
     </g>
     <g id="text_17">
      <!-- 2.5 -->
      <g transform="translate(34.696875 103.203171)scale(0.1 -0.1)">
       <use xlink:href="#DejaVuSans-32"/>
       <use xlink:href="#DejaVuSans-2e" x="63.623047"/>
       <use xlink:href="#DejaVuSans-35" x="95.410156"/>
      </g>
     </g>
    </g>
    <g id="ytick_8">
     <g id="line2d_17">
      <g>
       <use xlink:href="#m02f1be4129" x="57.6" y="68.378889" style="stroke: #000000; stroke-width: 0.8"/>
      </g>
     </g>
     <g id="text_18">
      <!-- 3.0 -->
      <g transform="translate(34.696875 72.178107)scale(0.1 -0.1)">
       <defs>
        <path id="DejaVuSans-33" d="M 2597 2516 
Q 3050 2419 3304 2112 
Q 3559 1806 3559 1356 
Q 3559 666 3084 287 
Q 2609 -91 1734 -91 
Q 1441 -91 1130 -33 
Q 819 25 488 141 
L 488 750 
Q 750 597 1062 519 
Q 1375 441 1716 441 
Q 2309 441 2620 675 
Q 2931 909 2931 1356 
Q 2931 1769 2642 2001 
Q 2353 2234 1838 2234 
L 1294 2234 
L 1294 2753 
L 1863 2753 
Q 2328 2753 2575 2939 
Q 2822 3125 2822 3475 
Q 2822 3834 2567 4026 
Q 2313 4219 1838 4219 
Q 1578 4219 1281 4162 
Q 984 4106 628 3988 
L 628 4550 
Q 988 4650 1302 4700 
Q 1616 4750 1894 4750 
Q 2613 4750 3031 4423 
Q 3450 4097 3450 3541 
Q 3450 3153 3228 2886 
Q 3006 2619 2597 2516 
z
" transform="scale(0.015625)"/>
       </defs>
       <use xlink:href="#DejaVuSans-33"/>
       <use xlink:href="#DejaVuSans-2e" x="63.623047"/>
       <use xlink:href="#DejaVuSans-30" x="95.410156"/>
      </g>
     </g>
    </g>
    <g id="text_19">
     <!-- rVS -->
     <g transform="translate(20.2375 183.178)rotate(-90)scale(0.1 -0.1)">
      <defs>
       <path id="DejaVuSans-72" d="M 2631 2963 
Q 2534 3019 2420 3045 
Q 2306 3072 2169 3072 
Q 1681 3072 1420 2755 
Q 1159 2438 1159 1844 
L 1159 0 
L 581 0 
L 581 3500 
L 1159 3500 
L 1159 2956 
Q 1341 3275 1631 3429 
Q 1922 3584 2338 3584 
Q 2397 3584 2469 3576 
Q 2541 3569 2628 3553 
L 2631 2963 
z
" transform="scale(0.015625)"/>
      </defs>
      <use xlink:href="#DejaVuSans-72"/>
      <use xlink:href="#DejaVuSans-56" x="41.113281"/>
      <use xlink:href="#DejaVuSans-53" x="109.521484"/>
     </g>
    </g>
   </g>
   <g id="line2d_18">
    <path d="M 73.832727 230.293844 
L 82.089193 251.167098 
L 82.089193 251.164116 
L 84.575729 258.021847 
L 84.575729 258.018258 
L 87.813064 266.426511 
L 87.813064 266.424384 
L 91.706433 274.936594 
L 91.706433 274.935276 
L 120.271007 257.159493 
L 120.271007 257.161563 
L 128.694927 238.61571 
L 128.694927 238.616468 
L 136.765268 223.029079 
L 136.765268 223.030721 
L 142.642076 213.692275 
L 142.642076 213.694144 
L 167.562479 191.849678 
L 167.562479 191.851403 
L 172.923482 191.458246 
L 172.923482 191.459299 
L 174.017898 191.651773 
L 174.017898 191.650647 
L 192.997998 213.973712 
L 192.997998 213.971665 
L 203.737574 240.102209 
L 203.737574 240.100156 
L 220.933691 271.203468 
L 220.933691 271.201227 
L 224.450991 272.27351 
L 224.450991 272.271802 
L 233.317151 265.669956 
L 233.317151 265.6711 
L 276.140158 212.316695 
L 276.140158 212.319565 
L 277.777019 213.232685 
L 277.777019 213.229926 
L 280.588217 215.274417 
L 280.588217 215.273442 
L 306.300948 244.866346 
L 306.300948 244.86498 
L 311.005916 247.362738 
L 311.005916 247.362312 
L 334.701273 211.819656 
L 334.701273 211.821655 
L 338.57153 199.538331 
L 338.57153 199.539198 
L 363.913054 143.834643 
L 363.913054 143.836253 
L 382.818357 177.053396 
L 382.818357 177.053357 
L 393.179674 208.718455 
L 393.179674 208.716679 
" clip-path="url(#p159ad591e3)" style="fill: none; stroke: #1f77b4; stroke-width: 1.5; stroke-linecap: square"/>
   </g>
   <g id="line2d_19">
    <path d="M 75.916114 234.883527 
L 75.916114 234.883008 
L 75.916114 234.88465 
L 75.916114 234.883524 
L 75.916114 234.882663 
L 75.916114 234.883179 
L 75.916114 234.882098 
L 75.916114 234.882732 
L 75.916114 234.881243 
L 75.916114 234.883155 
L 75.916114 234.882333 
L 75.916114 234.883782 
L 75.916114 234.882495 
L 75.916114 234.883846 
L 75.916114 234.883553 
L 75.916114 234.882565 
L 75.916114 234.88292 
L 75.916114 234.882285 
L 75.916114 234.882709 
L 75.916114 234.883971 
L 75.916114 234.883801 
L 75.916114 234.88277 
L 75.916114 234.882476 
L 75.916114 234.882803 
L 75.916114 234.88282 
L 96.960915 282.306469 
L 96.960915 282.30329 
L 96.960915 282.304327 
L 96.960915 282.30508 
L 96.960915 282.303306 
L 96.960915 282.303741 
L 96.960915 282.30413 
L 96.960915 282.303903 
L 96.960915 282.30255 
L 96.960915 282.304663 
L 96.960915 282.304526 
L 96.960915 282.302684 
L 96.960915 282.30325 
L 96.960915 282.304362 
L 96.960915 282.303895 
L 96.960915 282.303197 
L 96.960915 282.303832 
L 96.960915 282.30317 
L 96.960915 282.304222 
L 96.960915 282.303616 
L 96.960915 282.303073 
L 96.960915 282.304181 
L 96.960915 282.304511 
L 96.960915 282.30405 
L 96.960915 282.305184 
L 161.968168 176.346506 
L 161.968168 176.344328 
L 161.968168 176.346398 
L 161.968168 176.346145 
L 161.968168 176.346913 
L 161.968168 176.34784 
L 161.968168 176.345942 
L 161.968168 176.345179 
L 161.968168 176.347146 
L 161.968168 176.348105 
L 161.968168 176.346443 
L 161.968168 176.346332 
L 161.968168 176.346634 
L 161.968168 176.346353 
L 161.968168 176.346455 
L 161.968168 176.346599 
L 161.968168 176.345957 
L 161.968168 176.346845 
L 161.968168 176.347208 
L 161.968168 176.346494 
L 161.968168 176.347941 
L 161.968168 176.346613 
L 161.968168 176.345531 
L 161.968168 176.347412 
L 161.968168 176.347527 
L 214.881908 223.626038 
L 214.881908 223.628456 
L 214.881908 223.624592 
L 214.881908 223.625768 
L 214.881908 223.626131 
L 214.881908 223.624905 
L 214.881908 223.625421 
L 214.881908 223.625909 
L 214.881908 223.624816 
L 214.881908 223.625263 
L 214.881908 223.624884 
L 214.881908 223.626054 
L 214.881908 223.625429 
L 214.881908 223.626128 
L 214.881908 223.625106 
L 214.881908 223.625817 
L 214.881908 223.626153 
L 214.881908 223.625244 
L 214.881908 223.62496 
L 214.881908 223.626421 
L 214.881908 223.624413 
L 214.881908 223.625748 
L 214.881908 223.625999 
L 214.881908 223.625462 
L 214.881908 223.626525 
" clip-path="url(#p159ad591e3)" style="fill: none; stroke: #ff7f0e; stroke-width: 1.5; stroke-linecap: square"/>
   </g>
   <g id="line2d_20">
    <path d="M 74.447658 231.633245 
L 74.447658 231.634583 
L 74.447658 231.632764 
L 74.447658 231.633857 
L 93.10632 274.14102 
L 93.10632 274.139942 
L 94.830836 277.664912 
L 94.830836 277.663986 
L 97.442126 282.592811 
L 97.442126 282.591551 
L 106.532075 294.104546 
L 106.532075 294.103811 
L 107.378198 294.607894 
L 107.378198 294.607472 
L 110.230987 295.473749 
L 110.230987 295.471679 
L 110.620628 295.488 
L 110.620628 295.48638 
L 113.567101 294.775021 
L 113.567101 294.77592 
L 115.463126 293.54474 
L 115.463126 293.545839 
L 129.3011 268.322102 
L 129.3011 268.325398 
L 132.19053 260.401657 
L 132.19053 260.401925 
L 137.116667 245.878329 
L 137.116667 245.879943 
L 150.938955 203.666698 
L 160.426928 176.363678 
L 160.426928 176.366015 
L 163.377181 168.504577 
L 163.377181 168.505601 
L 179.139745 140.330276 
L 179.45913 140.146287 
L 179.45913 140.146783 
L 181.945437 139.407456 
L 181.945437 139.408582 
L 189.090838 144.697039 
L 189.090838 144.696009 
L 202.486379 180.905455 
L 202.486379 180.905164 
L 218.234703 232.720878 
L 218.234703 232.720464 
L 222.430741 241.41696 
L 222.430741 241.416499 
L 225.515659 245.68732 
L 225.515659 245.686123 
L 226.555857 246.711502 
L 226.555857 246.707085 
L 233.147677 248.516134 
L 233.147677 248.51501 
L 236.859665 246.396496 
L 238.389537 244.999425 
L 238.389537 245.00082 
L 248.086161 231.917895 
L 248.086161 231.919649 
L 255.947041 220.627374 
L 255.947041 220.627575 
L 258.65151 217.459541 
L 258.65151 217.461447 
L 262.221084 214.147064 
L 284.598087 219.085061 
L 284.598087 219.084276 
L 286.083297 220.721909 
L 286.083297 220.721788 
L 306.140912 244.740324 
L 306.140912 244.739344 
L 311.930518 247.543801 
L 311.930518 247.543053 
L 322.484834 240.666753 
L 322.484834 240.666755 
L 328.234407 229.54217 
L 328.234407 229.543434 
L 333.029091 216.819291 
L 333.029091 216.819656 
L 347.042158 172.411368 
L 347.042158 172.414494 
L 350.446259 162.878237 
L 352.190592 158.563303 
L 352.190592 158.563936 
L 363.821026 143.840328 
L 363.821026 143.841488 
L 367.368898 145.017273 
L 367.368898 145.016855 
L 373.850233 153.884741 
L 373.850233 153.883395 
L 374.956787 156.16885 
L 374.956787 156.16769 
L 380.550158 170.368857 
L 380.550158 170.366687 
L 390.030557 199.434383 
L 390.030557 199.433182 
L 394.976219 213.618533 
L 394.976219 213.615284 
" clip-path="url(#p159ad591e3)" style="fill: none; stroke: #2ca02c; stroke-width: 1.5; stroke-linecap: square"/>
   </g>
   <g id="line2d_21">
    <path d="M 93.288626 275.895909 
L 93.288626 275.892818 
L 93.288626 275.893183 
L 97.594594 283.403449 
L 97.594594 283.401661 
L 108.818968 295.211387 
L 108.818968 295.210205 
L 116.050192 293.043503 
L 116.050192 293.043852 
L 119.569816 288.855785 
L 119.569816 288.856524 
L 137.253216 245.462458 
L 137.253216 245.463291 
L 146.837276 216.049805 
L 146.837276 216.050589 
L 177.525913 141.566027 
L 177.525913 141.566849 
L 181.557349 139.440241 
L 181.557349 139.440494 
L 190.594322 147.224153 
L 190.594322 147.222741 
L 200.858424 175.252772 
L 200.858424 175.251886 
L 204.803386 189.192857 
L 204.803386 189.19164 
L 205.19089 190.593615 
L 205.19089 190.592157 
L 231.468587 248.785142 
L 231.468587 248.784353 
L 257.554845 218.682778 
L 257.554845 218.683264 
L 261.86954 214.425975 
L 261.86954 214.426566 
L 279.296363 214.262804 
L 279.296363 214.26359 
L 295.000427 232.045676 
L 295.000427 232.044948 
L 296.579213 234.126936 
L 296.579213 234.126386 
L 300.206326 238.699398 
L 312.045438 247.55689 
L 312.045438 247.556203 
L 314.371334 247.462744 
L 314.371334 247.463514 
L 326.060798 234.333593 
L 326.060798 234.33506 
L 328.944512 227.836288 
L 328.944512 227.837269 
L 332.510499 218.320705 
L 337.581681 202.733949 
L 337.581681 202.734843 
L 342.203735 187.533926 
L 342.203735 187.535442 
L 355.316401 149.227664 
L 355.316401 149.227978 
L 356.628318 146.284178 
L 356.628318 146.284568 
L 358.969406 141.522075 
L 358.969406 141.523569 
L 380.769777 115.752058 
L 380.769777 115.753427 
L 388.389103 104.962495 
L 388.389103 104.96338 
L 389.801936 102.428915 
L 389.801936 102.430533 
L 395.51056 90.482416 
L 395.51056 90.484269 
L 398.487273 83.331925 
L 398.487273 83.333373 
" clip-path="url(#p159ad591e3)" style="fill: none; stroke: #d62728; stroke-width: 1.5; stroke-linecap: square"/>
   </g>
   <g id="line2d_22">
    <path d="M 75.309767 260.523655 
L 75.309767 260.524757 
L 75.309767 260.522726 
L 76.827684 260.775514 
L 76.827684 260.774475 
L 79.349196 261.835434 
L 79.349196 261.834672 
L 87.821135 270.618609 
L 87.821135 270.617845 
L 100.225694 289.295723 
L 100.225694 289.295088 
L 102.637598 292.131869 
L 102.637598 292.131355 
L 104.274488 293.702327 
L 104.274488 293.702291 
L 114.64593 294.760267 
L 114.64593 294.759179 
L 124.732281 279.54336 
L 124.732281 279.544186 
L 127.554539 272.887205 
L 127.554539 272.888289 
L 133.409569 256.916984 
L 133.409569 256.918746 
L 135.487191 250.783656 
L 147.138104 215.133125 
L 147.138104 215.133561 
L 154.988816 191.734918 
L 154.988816 191.735116 
L 158.564458 181.523102 
L 158.564458 181.523371 
L 163.212446 168.932802 
L 163.212446 168.933412 
L 164.840748 164.784903 
L 169.7809 153.451371 
L 169.7809 153.452074 
L 172.483031 148.324312 
L 172.483031 148.325302 
L 174.370705 145.322658 
L 174.370705 145.322815 
L 179.368596 140.196441 
L 179.368596 140.197102 
L 180.374686 139.728045 
L 180.374686 139.728088 
L 182.002825 139.408076 
L 182.002825 139.408194 
L 184.473125 140.000999 
L 184.473125 140.000676 
L 186.404647 141.39539 
L 186.404647 141.394246 
L 193.219727 152.736048 
L 193.219727 152.735687 
L 199.199433 169.719758 
L 199.199433 169.719748 
L 203.012419 182.768732 
L 203.012419 182.767968 
L 209.131839 204.751896 
L 209.131839 204.751028 
L 219.328186 235.293038 
L 219.328186 235.292399 
L 221.190289 239.183106 
L 221.190289 239.182196 
L 228.470743 248.051445 
L 228.470743 248.050969 
L 229.284576 248.411458 
L 229.284576 248.410971 
L 233.870135 248.259917 
L 233.870135 248.260368 
L 234.153259 248.138577 
L 234.153259 248.139483 
L 238.264122 245.124712 
L 238.264122 245.125729 
L 238.683322 244.702306 
L 238.683322 244.702605 
L 243.08492 239.306168 
L 243.08492 239.306775 
L 248.230436 231.698543 
L 248.230436 231.699348 
L 249.19769 230.224848 
L 249.19769 230.225622 
L 254.603522 222.379642 
L 254.603522 222.380231 
L 256.759814 219.623016 
L 256.759814 219.623405 
L 266.189612 211.791508 
L 266.189612 211.793104 
L 271.524468 210.953879 
L 271.524468 210.95535 
L 280.431987 215.144972 
L 280.431987 215.144539 
L 287.701725 222.618836 
L 287.701725 222.617942 
L 300.221104 238.717459 
L 300.221104 238.716773 
L 302.951429 241.789465 
L 302.951429 241.789085 
L 319.360675 244.722249 
L 320.901782 243.102206 
L 320.901782 243.103679 
L 321.836595 241.945165 
L 321.836595 241.945674 
L 325.930233 235.381428 
L 327.431375 232.401421 
L 329.982111 226.713441 
L 331.491548 223.02315 
L 331.491548 223.024944 
L 338.84961 202.663495 
L 338.84961 202.665407 
L 354.248781 159.105147 
L 354.248781 159.106233 
L 358.248415 149.127083 
L 358.248415 149.128149 
L 371.615122 117.283014 
L 371.615122 117.285065 
L 379.690668 96.562128 
L 379.690668 96.562725 
L 390.431419 67.695023 
L 393.649516 59.498502 
L 393.649516 59.49964 
L 396.114677 53.568 
L 396.114677 53.568451 
" clip-path="url(#p159ad591e3)" style="fill: none; stroke: #9467bd; stroke-width: 1.5; stroke-linecap: square"/>
   </g>
   <g id="patch_3">
    <path d="M 57.6 307.584 
L 57.6 41.472 
" style="fill: none; stroke: #000000; stroke-width: 0.8; stroke-linejoin: miter; stroke-linecap: square"/>
   </g>
   <g id="patch_4">
    <path d="M 414.72 307.584 
L 414.72 41.472 
" style="fill: none; stroke: #000000; stroke-width: 0.8; stroke-linejoin: miter; stroke-linecap: square"/>
   </g>
   <g id="patch_5">
    <path d="M 57.6 307.584 
L 414.72 307.584 
" style="fill: none; stroke: #000000; stroke-width: 0.8; stroke-linejoin: miter; stroke-linecap: square"/>
   </g>
   <g id="patch_6">
    <path d="M 57.6 41.472 
L 414.72 41.472 
" style="fill: none; stroke: #000000; stroke-width: 0.8; stroke-linejoin: miter; stroke-linecap: square"/>
   </g>
   <g id="text_20">
    <!-- Evolvement of rVS mapping over time -->
    <g transform="translate(121.493437 35.472)scale(0.12 -0.12)">
     <defs>
      <path id="DejaVuSans-45" d="M 628 4666 
L 3578 4666 
L 3578 4134 
L 1259 4134 
L 1259 2753 
L 3481 2753 
L 3481 2222 
L 1259 2222 
L 1259 531 
L 3634 531 
L 3634 0 
L 628 0 
L 628 4666 
z
" transform="scale(0.015625)"/>
      <path id="DejaVuSans-76" d="M 191 3500 
L 800 3500 
L 1894 563 
L 2988 3500 
L 3597 3500 
L 2284 0 
L 1503 0 
L 191 3500 
z
" transform="scale(0.015625)"/>
      <path id="DejaVuSans-6f" d="M 1959 3097 
Q 1497 3097 1228 2736 
Q 959 2375 959 1747 
Q 959 1119 1226 758 
Q 1494 397 1959 397 
Q 2419 397 2687 759 
Q 2956 1122 2956 1747 
Q 2956 2369 2687 2733 
Q 2419 3097 1959 3097 
z
M 1959 3584 
Q 2709 3584 3137 3096 
Q 3566 2609 3566 1747 
Q 3566 888 3137 398 
Q 2709 -91 1959 -91 
Q 1206 -91 779 398 
Q 353 888 353 1747 
Q 353 2609 779 3096 
Q 1206 3584 1959 3584 
z
" transform="scale(0.015625)"/>
      <path id="DejaVuSans-6c" d="M 603 4863 
L 1178 4863 
L 1178 0 
L 603 0 
L 603 4863 
z
" transform="scale(0.015625)"/>
      <path id="DejaVuSans-65" d="M 3597 1894 
L 3597 1613 
L 953 1613 
Q 991 1019 1311 708 
Q 1631 397 2203 397 
Q 2534 397 2845 478 
Q 3156 559 3463 722 
L 3463 178 
Q 3153 47 2828 -22 
Q 2503 -91 2169 -91 
Q 1331 -91 842 396 
Q 353 884 353 1716 
Q 353 2575 817 3079 
Q 1281 3584 2069 3584 
Q 2775 3584 3186 3129 
Q 3597 2675 3597 1894 
z
M 3022 2063 
Q 3016 2534 2758 2815 
Q 2500 3097 2075 3097 
Q 1594 3097 1305 2825 
Q 1016 2553 972 2059 
L 3022 2063 
z
" transform="scale(0.015625)"/>
      <path id="DejaVuSans-6d" d="M 3328 2828 
Q 3544 3216 3844 3400 
Q 4144 3584 4550 3584 
Q 5097 3584 5394 3201 
Q 5691 2819 5691 2113 
L 5691 0 
L 5113 0 
L 5113 2094 
Q 5113 2597 4934 2840 
Q 4756 3084 4391 3084 
Q 3944 3084 3684 2787 
Q 3425 2491 3425 1978 
L 3425 0 
L 2847 0 
L 2847 2094 
Q 2847 2600 2669 2842 
Q 2491 3084 2119 3084 
Q 1678 3084 1418 2786 
Q 1159 2488 1159 1978 
L 1159 0 
L 581 0 
L 581 3500 
L 1159 3500 
L 1159 2956 
Q 1356 3278 1631 3431 
Q 1906 3584 2284 3584 
Q 2666 3584 2933 3390 
Q 3200 3197 3328 2828 
z
" transform="scale(0.015625)"/>
      <path id="DejaVuSans-6e" d="M 3513 2113 
L 3513 0 
L 2938 0 
L 2938 2094 
Q 2938 2591 2744 2837 
Q 2550 3084 2163 3084 
Q 1697 3084 1428 2787 
Q 1159 2491 1159 1978 
L 1159 0 
L 581 0 
L 581 3500 
L 1159 3500 
L 1159 2956 
Q 1366 3272 1645 3428 
Q 1925 3584 2291 3584 
Q 2894 3584 3203 3211 
Q 3513 2838 3513 2113 
z
" transform="scale(0.015625)"/>
      <path id="DejaVuSans-74" d="M 1172 4494 
L 1172 3500 
L 2356 3500 
L 2356 3053 
L 1172 3053 
L 1172 1153 
Q 1172 725 1289 603 
Q 1406 481 1766 481 
L 2356 481 
L 2356 0 
L 1766 0 
Q 1100 0 847 248 
Q 594 497 594 1153 
L 594 3053 
L 172 3053 
L 172 3500 
L 594 3500 
L 594 4494 
L 1172 4494 
z
" transform="scale(0.015625)"/>
      <path id="DejaVuSans-66" d="M 2375 4863 
L 2375 4384 
L 1825 4384 
Q 1516 4384 1395 4259 
Q 1275 4134 1275 3809 
L 1275 3500 
L 2222 3500 
L 2222 3053 
L 1275 3053 
L 1275 0 
L 697 0 
L 697 3053 
L 147 3053 
L 147 3500 
L 697 3500 
L 697 3744 
Q 697 4328 969 4595 
Q 1241 4863 1831 4863 
L 2375 4863 
z
" transform="scale(0.015625)"/>
      <path id="DejaVuSans-61" d="M 2194 1759 
Q 1497 1759 1228 1600 
Q 959 1441 959 1056 
Q 959 750 1161 570 
Q 1363 391 1709 391 
Q 2188 391 2477 730 
Q 2766 1069 2766 1631 
L 2766 1759 
L 2194 1759 
z
M 3341 1997 
L 3341 0 
L 2766 0 
L 2766 531 
Q 2569 213 2275 61 
Q 1981 -91 1556 -91 
Q 1019 -91 701 211 
Q 384 513 384 1019 
Q 384 1609 779 1909 
Q 1175 2209 1959 2209 
L 2766 2209 
L 2766 2266 
Q 2766 2663 2505 2880 
Q 2244 3097 1772 3097 
Q 1472 3097 1187 3025 
Q 903 2953 641 2809 
L 641 3341 
Q 956 3463 1253 3523 
Q 1550 3584 1831 3584 
Q 2591 3584 2966 3190 
Q 3341 2797 3341 1997 
z
" transform="scale(0.015625)"/>
      <path id="DejaVuSans-70" d="M 1159 525 
L 1159 -1331 
L 581 -1331 
L 581 3500 
L 1159 3500 
L 1159 2969 
Q 1341 3281 1617 3432 
Q 1894 3584 2278 3584 
Q 2916 3584 3314 3078 
Q 3713 2572 3713 1747 
Q 3713 922 3314 415 
Q 2916 -91 2278 -91 
Q 1894 -91 1617 61 
Q 1341 213 1159 525 
z
M 3116 1747 
Q 3116 2381 2855 2742 
Q 2594 3103 2138 3103 
Q 1681 3103 1420 2742 
Q 1159 2381 1159 1747 
Q 1159 1113 1420 752 
Q 1681 391 2138 391 
Q 2594 391 2855 752 
Q 3116 1113 3116 1747 
z
" transform="scale(0.015625)"/>
      <path id="DejaVuSans-69" d="M 603 3500 
L 1178 3500 
L 1178 0 
L 603 0 
L 603 3500 
z
M 603 4863 
L 1178 4863 
L 1178 4134 
L 603 4134 
L 603 4863 
z
" transform="scale(0.015625)"/>
      <path id="DejaVuSans-67" d="M 2906 1791 
Q 2906 2416 2648 2759 
Q 2391 3103 1925 3103 
Q 1463 3103 1205 2759 
Q 947 2416 947 1791 
Q 947 1169 1205 825 
Q 1463 481 1925 481 
Q 2391 481 2648 825 
Q 2906 1169 2906 1791 
z
M 3481 434 
Q 3481 -459 3084 -895 
Q 2688 -1331 1869 -1331 
Q 1566 -1331 1297 -1286 
Q 1028 -1241 775 -1147 
L 775 -588 
Q 1028 -725 1275 -790 
Q 1522 -856 1778 -856 
Q 2344 -856 2625 -561 
Q 2906 -266 2906 331 
L 2906 616 
Q 2728 306 2450 153 
Q 2172 0 1784 0 
Q 1141 0 747 490 
Q 353 981 353 1791 
Q 353 2603 747 3093 
Q 1141 3584 1784 3584 
Q 2172 3584 2450 3431 
Q 2728 3278 2906 2969 
L 2906 3500 
L 3481 3500 
L 3481 434 
z
" transform="scale(0.015625)"/>
     </defs>
     <use xlink:href="#DejaVuSans-45"/>
     <use xlink:href="#DejaVuSans-76" x="63.183594"/>
     <use xlink:href="#DejaVuSans-6f" x="122.363281"/>
     <use xlink:href="#DejaVuSans-6c" x="183.544922"/>
     <use xlink:href="#DejaVuSans-76" x="211.328125"/>
     <use xlink:href="#DejaVuSans-65" x="270.507812"/>
     <use xlink:href="#DejaVuSans-6d" x="332.03125"/>
     <use xlink:href="#DejaVuSans-65" x="429.443359"/>
     <use xlink:href="#DejaVuSans-6e" x="490.966797"/>
     <use xlink:href="#DejaVuSans-74" x="554.345703"/>
     <use xlink:href="#DejaVuSans-20" x="593.554688"/>
     <use xlink:href="#DejaVuSans-6f" x="625.341797"/>
     <use xlink:href="#DejaVuSans-66" x="686.523438"/>
     <use xlink:href="#DejaVuSans-20" x="721.728516"/>
     <use xlink:href="#DejaVuSans-72" x="753.515625"/>
     <use xlink:href="#DejaVuSans-56" x="794.628906"/>
     <use xlink:href="#DejaVuSans-53" x="863.037109"/>
     <use xlink:href="#DejaVuSans-20" x="926.513672"/>
     <use xlink:href="#DejaVuSans-6d" x="958.300781"/>
     <use xlink:href="#DejaVuSans-61" x="1055.712891"/>
     <use xlink:href="#DejaVuSans-70" x="1116.992188"/>
     <use xlink:href="#DejaVuSans-70" x="1180.46875"/>
     <use xlink:href="#DejaVuSans-69" x="1243.945312"/>
     <use xlink:href="#DejaVuSans-6e" x="1271.728516"/>
     <use xlink:href="#DejaVuSans-67" x="1335.107422"/>
     <use xlink:href="#DejaVuSans-20" x="1398.583984"/>
     <use xlink:href="#DejaVuSans-6f" x="1430.371094"/>
     <use xlink:href="#DejaVuSans-76" x="1491.552734"/>
     <use xlink:href="#DejaVuSans-65" x="1550.732422"/>
     <use xlink:href="#DejaVuSans-72" x="1612.255859"/>
     <use xlink:href="#DejaVuSans-20" x="1653.369141"/>
     <use xlink:href="#DejaVuSans-74" x="1685.15625"/>
     <use xlink:href="#DejaVuSans-69" x="1724.365234"/>
     <use xlink:href="#DejaVuSans-6d" x="1752.148438"/>
     <use xlink:href="#DejaVuSans-65" x="1849.560547"/>
    </g>
   </g>
   <g id="legend_1">
    <g id="patch_7">
     <path d="M 64.6 122.862625 
L 280.675 122.862625 
Q 282.675 122.862625 282.675 120.862625 
L 282.675 48.472 
Q 282.675 46.472 280.675 46.472 
L 64.6 46.472 
Q 62.6 46.472 62.6 48.472 
L 62.6 120.862625 
Q 62.6 122.862625 64.6 122.862625 
z
" style="fill: #ffffff; opacity: 0.8; stroke: #cccccc; stroke-linejoin: miter"/>
    </g>
    <g id="line2d_23">
     <path d="M 66.6 54.570438 
L 76.6 54.570438 
L 86.6 54.570438 
" style="fill: none; stroke: #1f77b4; stroke-width: 1.5; stroke-linecap: square"/>
    </g>
    <g id="text_21">
     <!-- mapping at t=0 -->
     <g transform="translate(94.6 58.070438)scale(0.1 -0.1)">
      <defs>
       <path id="DejaVuSans-3d" d="M 678 2906 
L 4684 2906 
L 4684 2381 
L 678 2381 
L 678 2906 
z
M 678 1631 
L 4684 1631 
L 4684 1100 
L 678 1100 
L 678 1631 
z
" transform="scale(0.015625)"/>
      </defs>
      <use xlink:href="#DejaVuSans-6d"/>
      <use xlink:href="#DejaVuSans-61" x="97.412109"/>
      <use xlink:href="#DejaVuSans-70" x="158.691406"/>
      <use xlink:href="#DejaVuSans-70" x="222.167969"/>
      <use xlink:href="#DejaVuSans-69" x="285.644531"/>
      <use xlink:href="#DejaVuSans-6e" x="313.427734"/>
      <use xlink:href="#DejaVuSans-67" x="376.806641"/>
      <use xlink:href="#DejaVuSans-20" x="440.283203"/>
      <use xlink:href="#DejaVuSans-61" x="472.070312"/>
      <use xlink:href="#DejaVuSans-74" x="533.349609"/>
      <use xlink:href="#DejaVuSans-20" x="572.558594"/>
      <use xlink:href="#DejaVuSans-74" x="604.345703"/>
      <use xlink:href="#DejaVuSans-3d" x="643.554688"/>
      <use xlink:href="#DejaVuSans-30" x="727.34375"/>
     </g>
    </g>
    <g id="line2d_24">
     <path d="M 66.6 69.248563 
L 76.6 69.248563 
L 86.6 69.248563 
" style="fill: none; stroke: #ff7f0e; stroke-width: 1.5; stroke-linecap: square"/>
    </g>
    <g id="text_22">
     <!-- mapping at t=130.20000000000002 -->
     <g transform="translate(94.6 72.748563)scale(0.1 -0.1)">
      <use xlink:href="#DejaVuSans-6d"/>
      <use xlink:href="#DejaVuSans-61" x="97.412109"/>
      <use xlink:href="#DejaVuSans-70" x="158.691406"/>
      <use xlink:href="#DejaVuSans-70" x="222.167969"/>
      <use xlink:href="#DejaVuSans-69" x="285.644531"/>
      <use xlink:href="#DejaVuSans-6e" x="313.427734"/>
      <use xlink:href="#DejaVuSans-67" x="376.806641"/>
      <use xlink:href="#DejaVuSans-20" x="440.283203"/>
      <use xlink:href="#DejaVuSans-61" x="472.070312"/>
      <use xlink:href="#DejaVuSans-74" x="533.349609"/>
      <use xlink:href="#DejaVuSans-20" x="572.558594"/>
      <use xlink:href="#DejaVuSans-74" x="604.345703"/>
      <use xlink:href="#DejaVuSans-3d" x="643.554688"/>
      <use xlink:href="#DejaVuSans-31" x="727.34375"/>
      <use xlink:href="#DejaVuSans-33" x="790.966797"/>
      <use xlink:href="#DejaVuSans-30" x="854.589844"/>
      <use xlink:href="#DejaVuSans-2e" x="918.212891"/>
      <use xlink:href="#DejaVuSans-32" x="950"/>
      <use xlink:href="#DejaVuSans-30" x="1013.623047"/>
      <use xlink:href="#DejaVuSans-30" x="1077.246094"/>
      <use xlink:href="#DejaVuSans-30" x="1140.869141"/>
      <use xlink:href="#DejaVuSans-30" x="1204.492188"/>
      <use xlink:href="#DejaVuSans-30" x="1268.115234"/>
      <use xlink:href="#DejaVuSans-30" x="1331.738281"/>
      <use xlink:href="#DejaVuSans-30" x="1395.361328"/>
      <use xlink:href="#DejaVuSans-30" x="1458.984375"/>
      <use xlink:href="#DejaVuSans-30" x="1522.607422"/>
      <use xlink:href="#DejaVuSans-30" x="1586.230469"/>
      <use xlink:href="#DejaVuSans-30" x="1649.853516"/>
      <use xlink:href="#DejaVuSans-30" x="1713.476562"/>
      <use xlink:href="#DejaVuSans-32" x="1777.099609"/>
     </g>
    </g>
    <g id="line2d_25">
     <path d="M 66.6 83.926688 
L 76.6 83.926688 
L 86.6 83.926688 
" style="fill: none; stroke: #2ca02c; stroke-width: 1.5; stroke-linecap: square"/>
    </g>
    <g id="text_23">
     <!-- mapping at t=150.20000000000002 -->
     <g transform="translate(94.6 87.426688)scale(0.1 -0.1)">
      <use xlink:href="#DejaVuSans-6d"/>
      <use xlink:href="#DejaVuSans-61" x="97.412109"/>
      <use xlink:href="#DejaVuSans-70" x="158.691406"/>
      <use xlink:href="#DejaVuSans-70" x="222.167969"/>
      <use xlink:href="#DejaVuSans-69" x="285.644531"/>
      <use xlink:href="#DejaVuSans-6e" x="313.427734"/>
      <use xlink:href="#DejaVuSans-67" x="376.806641"/>
      <use xlink:href="#DejaVuSans-20" x="440.283203"/>
      <use xlink:href="#DejaVuSans-61" x="472.070312"/>
      <use xlink:href="#DejaVuSans-74" x="533.349609"/>
      <use xlink:href="#DejaVuSans-20" x="572.558594"/>
      <use xlink:href="#DejaVuSans-74" x="604.345703"/>
      <use xlink:href="#DejaVuSans-3d" x="643.554688"/>
      <use xlink:href="#DejaVuSans-31" x="727.34375"/>
      <use xlink:href="#DejaVuSans-35" x="790.966797"/>
      <use xlink:href="#DejaVuSans-30" x="854.589844"/>
      <use xlink:href="#DejaVuSans-2e" x="918.212891"/>
      <use xlink:href="#DejaVuSans-32" x="950"/>
      <use xlink:href="#DejaVuSans-30" x="1013.623047"/>
      <use xlink:href="#DejaVuSans-30" x="1077.246094"/>
      <use xlink:href="#DejaVuSans-30" x="1140.869141"/>
      <use xlink:href="#DejaVuSans-30" x="1204.492188"/>
      <use xlink:href="#DejaVuSans-30" x="1268.115234"/>
      <use xlink:href="#DejaVuSans-30" x="1331.738281"/>
      <use xlink:href="#DejaVuSans-30" x="1395.361328"/>
      <use xlink:href="#DejaVuSans-30" x="1458.984375"/>
      <use xlink:href="#DejaVuSans-30" x="1522.607422"/>
      <use xlink:href="#DejaVuSans-30" x="1586.230469"/>
      <use xlink:href="#DejaVuSans-30" x="1649.853516"/>
      <use xlink:href="#DejaVuSans-30" x="1713.476562"/>
      <use xlink:href="#DejaVuSans-32" x="1777.099609"/>
     </g>
    </g>
    <g id="line2d_26">
     <path d="M 66.6 98.604813 
L 76.6 98.604813 
L 86.6 98.604813 
" style="fill: none; stroke: #d62728; stroke-width: 1.5; stroke-linecap: square"/>
    </g>
    <g id="text_24">
     <!-- mapping at t=490.20000000000005 -->
     <g transform="translate(94.6 102.104813)scale(0.1 -0.1)">
      <defs>
       <path id="DejaVuSans-34" d="M 2419 4116 
L 825 1625 
L 2419 1625 
L 2419 4116 
z
M 2253 4666 
L 3047 4666 
L 3047 1625 
L 3713 1625 
L 3713 1100 
L 3047 1100 
L 3047 0 
L 2419 0 
L 2419 1100 
L 313 1100 
L 313 1709 
L 2253 4666 
z
" transform="scale(0.015625)"/>
       <path id="DejaVuSans-39" d="M 703 97 
L 703 672 
Q 941 559 1184 500 
Q 1428 441 1663 441 
Q 2288 441 2617 861 
Q 2947 1281 2994 2138 
Q 2813 1869 2534 1725 
Q 2256 1581 1919 1581 
Q 1219 1581 811 2004 
Q 403 2428 403 3163 
Q 403 3881 828 4315 
Q 1253 4750 1959 4750 
Q 2769 4750 3195 4129 
Q 3622 3509 3622 2328 
Q 3622 1225 3098 567 
Q 2575 -91 1691 -91 
Q 1453 -91 1209 -44 
Q 966 3 703 97 
z
M 1959 2075 
Q 2384 2075 2632 2365 
Q 2881 2656 2881 3163 
Q 2881 3666 2632 3958 
Q 2384 4250 1959 4250 
Q 1534 4250 1286 3958 
Q 1038 3666 1038 3163 
Q 1038 2656 1286 2365 
Q 1534 2075 1959 2075 
z
" transform="scale(0.015625)"/>
      </defs>
      <use xlink:href="#DejaVuSans-6d"/>
      <use xlink:href="#DejaVuSans-61" x="97.412109"/>
      <use xlink:href="#DejaVuSans-70" x="158.691406"/>
      <use xlink:href="#DejaVuSans-70" x="222.167969"/>
      <use xlink:href="#DejaVuSans-69" x="285.644531"/>
      <use xlink:href="#DejaVuSans-6e" x="313.427734"/>
      <use xlink:href="#DejaVuSans-67" x="376.806641"/>
      <use xlink:href="#DejaVuSans-20" x="440.283203"/>
      <use xlink:href="#DejaVuSans-61" x="472.070312"/>
      <use xlink:href="#DejaVuSans-74" x="533.349609"/>
      <use xlink:href="#DejaVuSans-20" x="572.558594"/>
      <use xlink:href="#DejaVuSans-74" x="604.345703"/>
      <use xlink:href="#DejaVuSans-3d" x="643.554688"/>
      <use xlink:href="#DejaVuSans-34" x="727.34375"/>
      <use xlink:href="#DejaVuSans-39" x="790.966797"/>
      <use xlink:href="#DejaVuSans-30" x="854.589844"/>
      <use xlink:href="#DejaVuSans-2e" x="918.212891"/>
      <use xlink:href="#DejaVuSans-32" x="950"/>
      <use xlink:href="#DejaVuSans-30" x="1013.623047"/>
      <use xlink:href="#DejaVuSans-30" x="1077.246094"/>
      <use xlink:href="#DejaVuSans-30" x="1140.869141"/>
      <use xlink:href="#DejaVuSans-30" x="1204.492188"/>
      <use xlink:href="#DejaVuSans-30" x="1268.115234"/>
      <use xlink:href="#DejaVuSans-30" x="1331.738281"/>
      <use xlink:href="#DejaVuSans-30" x="1395.361328"/>
      <use xlink:href="#DejaVuSans-30" x="1458.984375"/>
      <use xlink:href="#DejaVuSans-30" x="1522.607422"/>
      <use xlink:href="#DejaVuSans-30" x="1586.230469"/>
      <use xlink:href="#DejaVuSans-30" x="1649.853516"/>
      <use xlink:href="#DejaVuSans-30" x="1713.476562"/>
      <use xlink:href="#DejaVuSans-35" x="1777.099609"/>
     </g>
    </g>
    <g id="line2d_27">
     <path d="M 66.6 113.282938 
L 76.6 113.282938 
L 86.6 113.282938 
" style="fill: none; stroke: #9467bd; stroke-width: 1.5; stroke-linecap: square"/>
    </g>
    <g id="text_25">
     <!-- mapping at t=690.2 -->
     <g transform="translate(94.6 116.782938)scale(0.1 -0.1)">
      <defs>
       <path id="DejaVuSans-36" d="M 2113 2584 
Q 1688 2584 1439 2293 
Q 1191 2003 1191 1497 
Q 1191 994 1439 701 
Q 1688 409 2113 409 
Q 2538 409 2786 701 
Q 3034 994 3034 1497 
Q 3034 2003 2786 2293 
Q 2538 2584 2113 2584 
z
M 3366 4563 
L 3366 3988 
Q 3128 4100 2886 4159 
Q 2644 4219 2406 4219 
Q 1781 4219 1451 3797 
Q 1122 3375 1075 2522 
Q 1259 2794 1537 2939 
Q 1816 3084 2150 3084 
Q 2853 3084 3261 2657 
Q 3669 2231 3669 1497 
Q 3669 778 3244 343 
Q 2819 -91 2113 -91 
Q 1303 -91 875 529 
Q 447 1150 447 2328 
Q 447 3434 972 4092 
Q 1497 4750 2381 4750 
Q 2619 4750 2861 4703 
Q 3103 4656 3366 4563 
z
" transform="scale(0.015625)"/>
      </defs>
      <use xlink:href="#DejaVuSans-6d"/>
      <use xlink:href="#DejaVuSans-61" x="97.412109"/>
      <use xlink:href="#DejaVuSans-70" x="158.691406"/>
      <use xlink:href="#DejaVuSans-70" x="222.167969"/>
      <use xlink:href="#DejaVuSans-69" x="285.644531"/>
      <use xlink:href="#DejaVuSans-6e" x="313.427734"/>
      <use xlink:href="#DejaVuSans-67" x="376.806641"/>
      <use xlink:href="#DejaVuSans-20" x="440.283203"/>
      <use xlink:href="#DejaVuSans-61" x="472.070312"/>
      <use xlink:href="#DejaVuSans-74" x="533.349609"/>
      <use xlink:href="#DejaVuSans-20" x="572.558594"/>
      <use xlink:href="#DejaVuSans-74" x="604.345703"/>
      <use xlink:href="#DejaVuSans-3d" x="643.554688"/>
      <use xlink:href="#DejaVuSans-36" x="727.34375"/>
      <use xlink:href="#DejaVuSans-39" x="790.966797"/>
      <use xlink:href="#DejaVuSans-30" x="854.589844"/>
      <use xlink:href="#DejaVuSans-2e" x="918.212891"/>
      <use xlink:href="#DejaVuSans-32" x="950"/>
     </g>
    </g>
   </g>
  </g>
 </g>
 <defs>
  <clipPath id="p159ad591e3">
   <rect x="57.6" y="41.472" width="357.12" height="266.112"/>
  </clipPath>
 </defs>
</svg>
