<?xml version="1.0" encoding="utf-8" standalone="no"?>
<!DOCTYPE svg PUBLIC "-//W3C//DTD SVG 1.1//EN"
  "http://www.w3.org/Graphics/SVG/1.1/DTD/svg11.dtd">
<svg xmlns:xlink="http://www.w3.org/1999/xlink" width="460.8pt" height="345.6pt" viewBox="0 0 460.8 345.6" xmlns="http://www.w3.org/2000/svg" version="1.1">
 <metadata>
  <rdf:RDF xmlns:dc="http://purl.org/dc/elements/1.1/" xmlns:cc="http://creativecommons.org/ns#" xmlns:rdf="http://www.w3.org/1999/02/22-rdf-syntax-ns#">
   <cc:Work>
    <dc:type rdf:resource="http://purl.org/dc/dcmitype/StillImage"/>
    <dc:date>2022-08-18T11:59:31.118564</dc:date>
    <dc:format>image/svg+xml</dc:format>
    <dc:creator>
     <cc:Agent>
      <dc:title>Matplotlib v3.5.2, https://matplotlib.org/</dc:title>
     </cc:Agent>
    </dc:creator>
   </cc:Work>
  </rdf:RDF>
 </metadata>
 <defs>
  <style type="text/css">*{stroke-linejoin: round; stroke-linecap: butt}</style>
 </defs>
 <g id="figure_1">
  <g id="patch_1">
   <path d="M 0 345.6 
L 460.8 345.6 
L 460.8 0 
L 0 0 
z
" style="fill: #ffffff"/>
  </g>
  <g id="axes_1">
   <g id="patch_2">
    <path d="M 57.6 307.584 
L 414.72 307.584 
L 414.72 41.472 
L 57.6 41.472 
z
" style="fill: #ffffff"/>
   </g>
   <g id="matplotlib.axis_1">
    <g id="xtick_1">
     <g id="line2d_1">
      <defs>
       <path id="mae66d8f898" d="M 0 0 
L 0 3.5 
" style="stroke: #000000; stroke-width: 0.8"/>
      </defs>
      <g>
       <use xlink:href="#mae66d8f898" x="73.832727" y="307.584" style="stroke: #000000; stroke-width: 0.8"/>
      </g>
     </g>
     <g id="text_1">
      <!-- 0.00 -->
      <g transform="translate(62.699915 322.182437)scale(0.1 -0.1)">
       <defs>
        <path id="DejaVuSans-30" d="M 2034 4250 
Q 1547 4250 1301 3770 
Q 1056 3291 1056 2328 
Q 1056 1369 1301 889 
Q 1547 409 2034 409 
Q 2525 409 2770 889 
Q 3016 1369 3016 2328 
Q 3016 3291 2770 3770 
Q 2525 4250 2034 4250 
z
M 2034 4750 
Q 2819 4750 3233 4129 
Q 3647 3509 3647 2328 
Q 3647 1150 3233 529 
Q 2819 -91 2034 -91 
Q 1250 -91 836 529 
Q 422 1150 422 2328 
Q 422 3509 836 4129 
Q 1250 4750 2034 4750 
z
" transform="scale(0.015625)"/>
        <path id="DejaVuSans-2e" d="M 684 794 
L 1344 794 
L 1344 0 
L 684 0 
L 684 794 
z
" transform="scale(0.015625)"/>
       </defs>
       <use xlink:href="#DejaVuSans-30"/>
       <use xlink:href="#DejaVuSans-2e" x="63.623047"/>
       <use xlink:href="#DejaVuSans-30" x="95.410156"/>
       <use xlink:href="#DejaVuSans-30" x="159.033203"/>
      </g>
     </g>
    </g>
    <g id="xtick_2">
     <g id="line2d_2">
      <g>
       <use xlink:href="#mae66d8f898" x="114.524063" y="307.584" style="stroke: #000000; stroke-width: 0.8"/>
      </g>
     </g>
     <g id="text_2">
      <!-- 0.25 -->
      <g transform="translate(103.391251 322.182437)scale(0.1 -0.1)">
       <defs>
        <path id="DejaVuSans-32" d="M 1228 531 
L 3431 531 
L 3431 0 
L 469 0 
L 469 531 
Q 828 903 1448 1529 
Q 2069 2156 2228 2338 
Q 2531 2678 2651 2914 
Q 2772 3150 2772 3378 
Q 2772 3750 2511 3984 
Q 2250 4219 1831 4219 
Q 1534 4219 1204 4116 
Q 875 4013 500 3803 
L 500 4441 
Q 881 4594 1212 4672 
Q 1544 4750 1819 4750 
Q 2544 4750 2975 4387 
Q 3406 4025 3406 3419 
Q 3406 3131 3298 2873 
Q 3191 2616 2906 2266 
Q 2828 2175 2409 1742 
Q 1991 1309 1228 531 
z
" transform="scale(0.015625)"/>
        <path id="DejaVuSans-35" d="M 691 4666 
L 3169 4666 
L 3169 4134 
L 1269 4134 
L 1269 2991 
Q 1406 3038 1543 3061 
Q 1681 3084 1819 3084 
Q 2600 3084 3056 2656 
Q 3513 2228 3513 1497 
Q 3513 744 3044 326 
Q 2575 -91 1722 -91 
Q 1428 -91 1123 -41 
Q 819 9 494 109 
L 494 744 
Q 775 591 1075 516 
Q 1375 441 1709 441 
Q 2250 441 2565 725 
Q 2881 1009 2881 1497 
Q 2881 1984 2565 2268 
Q 2250 2553 1709 2553 
Q 1456 2553 1204 2497 
Q 953 2441 691 2322 
L 691 4666 
z
" transform="scale(0.015625)"/>
       </defs>
       <use xlink:href="#DejaVuSans-30"/>
       <use xlink:href="#DejaVuSans-2e" x="63.623047"/>
       <use xlink:href="#DejaVuSans-32" x="95.410156"/>
       <use xlink:href="#DejaVuSans-35" x="159.033203"/>
      </g>
     </g>
    </g>
    <g id="xtick_3">
     <g id="line2d_3">
      <g>
       <use xlink:href="#mae66d8f898" x="155.2154" y="307.584" style="stroke: #000000; stroke-width: 0.8"/>
      </g>
     </g>
     <g id="text_3">
      <!-- 0.50 -->
      <g transform="translate(144.082587 322.182437)scale(0.1 -0.1)">
       <use xlink:href="#DejaVuSans-30"/>
       <use xlink:href="#DejaVuSans-2e" x="63.623047"/>
       <use xlink:href="#DejaVuSans-35" x="95.410156"/>
       <use xlink:href="#DejaVuSans-30" x="159.033203"/>
      </g>
     </g>
    </g>
    <g id="xtick_4">
     <g id="line2d_4">
      <g>
       <use xlink:href="#mae66d8f898" x="195.906736" y="307.584" style="stroke: #000000; stroke-width: 0.8"/>
      </g>
     </g>
     <g id="text_4">
      <!-- 0.75 -->
      <g transform="translate(184.773923 322.182437)scale(0.1 -0.1)">
       <defs>
        <path id="DejaVuSans-37" d="M 525 4666 
L 3525 4666 
L 3525 4397 
L 1831 0 
L 1172 0 
L 2766 4134 
L 525 4134 
L 525 4666 
z
" transform="scale(0.015625)"/>
       </defs>
       <use xlink:href="#DejaVuSans-30"/>
       <use xlink:href="#DejaVuSans-2e" x="63.623047"/>
       <use xlink:href="#DejaVuSans-37" x="95.410156"/>
       <use xlink:href="#DejaVuSans-35" x="159.033203"/>
      </g>
     </g>
    </g>
    <g id="xtick_5">
     <g id="line2d_5">
      <g>
       <use xlink:href="#mae66d8f898" x="236.598072" y="307.584" style="stroke: #000000; stroke-width: 0.8"/>
      </g>
     </g>
     <g id="text_5">
      <!-- 1.00 -->
      <g transform="translate(225.465259 322.182437)scale(0.1 -0.1)">
       <defs>
        <path id="DejaVuSans-31" d="M 794 531 
L 1825 531 
L 1825 4091 
L 703 3866 
L 703 4441 
L 1819 4666 
L 2450 4666 
L 2450 531 
L 3481 531 
L 3481 0 
L 794 0 
L 794 531 
z
" transform="scale(0.015625)"/>
       </defs>
       <use xlink:href="#DejaVuSans-31"/>
       <use xlink:href="#DejaVuSans-2e" x="63.623047"/>
       <use xlink:href="#DejaVuSans-30" x="95.410156"/>
       <use xlink:href="#DejaVuSans-30" x="159.033203"/>
      </g>
     </g>
    </g>
    <g id="xtick_6">
     <g id="line2d_6">
      <g>
       <use xlink:href="#mae66d8f898" x="277.289408" y="307.584" style="stroke: #000000; stroke-width: 0.8"/>
      </g>
     </g>
     <g id="text_6">
      <!-- 1.25 -->
      <g transform="translate(266.156595 322.182437)scale(0.1 -0.1)">
       <use xlink:href="#DejaVuSans-31"/>
       <use xlink:href="#DejaVuSans-2e" x="63.623047"/>
       <use xlink:href="#DejaVuSans-32" x="95.410156"/>
       <use xlink:href="#DejaVuSans-35" x="159.033203"/>
      </g>
     </g>
    </g>
    <g id="xtick_7">
     <g id="line2d_7">
      <g>
       <use xlink:href="#mae66d8f898" x="317.980744" y="307.584" style="stroke: #000000; stroke-width: 0.8"/>
      </g>
     </g>
     <g id="text_7">
      <!-- 1.50 -->
      <g transform="translate(306.847932 322.182437)scale(0.1 -0.1)">
       <use xlink:href="#DejaVuSans-31"/>
       <use xlink:href="#DejaVuSans-2e" x="63.623047"/>
       <use xlink:href="#DejaVuSans-35" x="95.410156"/>
       <use xlink:href="#DejaVuSans-30" x="159.033203"/>
      </g>
     </g>
    </g>
    <g id="xtick_8">
     <g id="line2d_8">
      <g>
       <use xlink:href="#mae66d8f898" x="358.67208" y="307.584" style="stroke: #000000; stroke-width: 0.8"/>
      </g>
     </g>
     <g id="text_8">
      <!-- 1.75 -->
      <g transform="translate(347.539268 322.182437)scale(0.1 -0.1)">
       <use xlink:href="#DejaVuSans-31"/>
       <use xlink:href="#DejaVuSans-2e" x="63.623047"/>
       <use xlink:href="#DejaVuSans-37" x="95.410156"/>
       <use xlink:href="#DejaVuSans-35" x="159.033203"/>
      </g>
     </g>
    </g>
    <g id="xtick_9">
     <g id="line2d_9">
      <g>
       <use xlink:href="#mae66d8f898" x="399.363416" y="307.584" style="stroke: #000000; stroke-width: 0.8"/>
      </g>
     </g>
     <g id="text_9">
      <!-- 2.00 -->
      <g transform="translate(388.230604 322.182437)scale(0.1 -0.1)">
       <use xlink:href="#DejaVuSans-32"/>
       <use xlink:href="#DejaVuSans-2e" x="63.623047"/>
       <use xlink:href="#DejaVuSans-30" x="95.410156"/>
       <use xlink:href="#DejaVuSans-30" x="159.033203"/>
      </g>
     </g>
    </g>
    <g id="text_10">
     <!-- GT VS -->
     <g transform="translate(221.229531 335.860562)scale(0.1 -0.1)">
      <defs>
       <path id="DejaVuSans-47" d="M 3809 666 
L 3809 1919 
L 2778 1919 
L 2778 2438 
L 4434 2438 
L 4434 434 
Q 4069 175 3628 42 
Q 3188 -91 2688 -91 
Q 1594 -91 976 548 
Q 359 1188 359 2328 
Q 359 3472 976 4111 
Q 1594 4750 2688 4750 
Q 3144 4750 3555 4637 
Q 3966 4525 4313 4306 
L 4313 3634 
Q 3963 3931 3569 4081 
Q 3175 4231 2741 4231 
Q 1884 4231 1454 3753 
Q 1025 3275 1025 2328 
Q 1025 1384 1454 906 
Q 1884 428 2741 428 
Q 3075 428 3337 486 
Q 3600 544 3809 666 
z
" transform="scale(0.015625)"/>
       <path id="DejaVuSans-54" d="M -19 4666 
L 3928 4666 
L 3928 4134 
L 2272 4134 
L 2272 0 
L 1638 0 
L 1638 4134 
L -19 4134 
L -19 4666 
z
" transform="scale(0.015625)"/>
       <path id="DejaVuSans-20" transform="scale(0.015625)"/>
       <path id="DejaVuSans-56" d="M 1831 0 
L 50 4666 
L 709 4666 
L 2188 738 
L 3669 4666 
L 4325 4666 
L 2547 0 
L 1831 0 
z
" transform="scale(0.015625)"/>
       <path id="DejaVuSans-53" d="M 3425 4513 
L 3425 3897 
Q 3066 4069 2747 4153 
Q 2428 4238 2131 4238 
Q 1616 4238 1336 4038 
Q 1056 3838 1056 3469 
Q 1056 3159 1242 3001 
Q 1428 2844 1947 2747 
L 2328 2669 
Q 3034 2534 3370 2195 
Q 3706 1856 3706 1288 
Q 3706 609 3251 259 
Q 2797 -91 1919 -91 
Q 1588 -91 1214 -16 
Q 841 59 441 206 
L 441 856 
Q 825 641 1194 531 
Q 1563 422 1919 422 
Q 2459 422 2753 634 
Q 3047 847 3047 1241 
Q 3047 1584 2836 1778 
Q 2625 1972 2144 2069 
L 1759 2144 
Q 1053 2284 737 2584 
Q 422 2884 422 3419 
Q 422 4038 858 4394 
Q 1294 4750 2059 4750 
Q 2388 4750 2728 4690 
Q 3069 4631 3425 4513 
z
" transform="scale(0.015625)"/>
      </defs>
      <use xlink:href="#DejaVuSans-47"/>
      <use xlink:href="#DejaVuSans-54" x="73.865234"/>
      <use xlink:href="#DejaVuSans-20" x="134.949219"/>
      <use xlink:href="#DejaVuSans-56" x="166.736328"/>
      <use xlink:href="#DejaVuSans-53" x="235.144531"/>
     </g>
    </g>
   </g>
   <g id="matplotlib.axis_2">
    <g id="ytick_1">
     <g id="line2d_10">
      <defs>
       <path id="m76b98b02f0" d="M 0 0 
L -3.5 0 
" style="stroke: #000000; stroke-width: 0.8"/>
      </defs>
      <g>
       <use xlink:href="#m76b98b02f0" x="57.6" y="294.722694" style="stroke: #000000; stroke-width: 0.8"/>
      </g>
     </g>
     <g id="text_11">
      <!-- −0.5 -->
      <g transform="translate(26.317187 298.521913)scale(0.1 -0.1)">
       <defs>
        <path id="DejaVuSans-2212" d="M 678 2272 
L 4684 2272 
L 4684 1741 
L 678 1741 
L 678 2272 
z
" transform="scale(0.015625)"/>
       </defs>
       <use xlink:href="#DejaVuSans-2212"/>
       <use xlink:href="#DejaVuSans-30" x="83.789062"/>
       <use xlink:href="#DejaVuSans-2e" x="147.412109"/>
       <use xlink:href="#DejaVuSans-35" x="179.199219"/>
      </g>
     </g>
    </g>
    <g id="ytick_2">
     <g id="line2d_11">
      <g>
       <use xlink:href="#m76b98b02f0" x="57.6" y="256.423892" style="stroke: #000000; stroke-width: 0.8"/>
      </g>
     </g>
     <g id="text_12">
      <!-- 0.0 -->
      <g transform="translate(34.696875 260.223111)scale(0.1 -0.1)">
       <use xlink:href="#DejaVuSans-30"/>
       <use xlink:href="#DejaVuSans-2e" x="63.623047"/>
       <use xlink:href="#DejaVuSans-30" x="95.410156"/>
      </g>
     </g>
    </g>
    <g id="ytick_3">
     <g id="line2d_12">
      <g>
       <use xlink:href="#m76b98b02f0" x="57.6" y="218.12509" style="stroke: #000000; stroke-width: 0.8"/>
      </g>
     </g>
     <g id="text_13">
      <!-- 0.5 -->
      <g transform="translate(34.696875 221.924309)scale(0.1 -0.1)">
       <use xlink:href="#DejaVuSans-30"/>
       <use xlink:href="#DejaVuSans-2e" x="63.623047"/>
       <use xlink:href="#DejaVuSans-35" x="95.410156"/>
      </g>
     </g>
    </g>
    <g id="ytick_4">
     <g id="line2d_13">
      <g>
       <use xlink:href="#m76b98b02f0" x="57.6" y="179.826287" style="stroke: #000000; stroke-width: 0.8"/>
      </g>
     </g>
     <g id="text_14">
      <!-- 1.0 -->
      <g transform="translate(34.696875 183.625506)scale(0.1 -0.1)">
       <use xlink:href="#DejaVuSans-31"/>
       <use xlink:href="#DejaVuSans-2e" x="63.623047"/>
       <use xlink:href="#DejaVuSans-30" x="95.410156"/>
      </g>
     </g>
    </g>
    <g id="ytick_5">
     <g id="line2d_14">
      <g>
       <use xlink:href="#m76b98b02f0" x="57.6" y="141.527485" style="stroke: #000000; stroke-width: 0.8"/>
      </g>
     </g>
     <g id="text_15">
      <!-- 1.5 -->
      <g transform="translate(34.696875 145.326704)scale(0.1 -0.1)">
       <use xlink:href="#DejaVuSans-31"/>
       <use xlink:href="#DejaVuSans-2e" x="63.623047"/>
       <use xlink:href="#DejaVuSans-35" x="95.410156"/>
      </g>
     </g>
    </g>
    <g id="ytick_6">
     <g id="line2d_15">
      <g>
       <use xlink:href="#m76b98b02f0" x="57.6" y="103.228683" style="stroke: #000000; stroke-width: 0.8"/>
      </g>
     </g>
     <g id="text_16">
      <!-- 2.0 -->
      <g transform="translate(34.696875 107.027902)scale(0.1 -0.1)">
       <use xlink:href="#DejaVuSans-32"/>
       <use xlink:href="#DejaVuSans-2e" x="63.623047"/>
       <use xlink:href="#DejaVuSans-30" x="95.410156"/>
      </g>
     </g>
    </g>
    <g id="ytick_7">
     <g id="line2d_16">
      <g>
       <use xlink:href="#m76b98b02f0" x="57.6" y="64.929881" style="stroke: #000000; stroke-width: 0.8"/>
      </g>
     </g>
     <g id="text_17">
      <!-- 2.5 -->
      <g transform="translate(34.696875 68.729099)scale(0.1 -0.1)">
       <use xlink:href="#DejaVuSans-32"/>
       <use xlink:href="#DejaVuSans-2e" x="63.623047"/>
       <use xlink:href="#DejaVuSans-35" x="95.410156"/>
      </g>
     </g>
    </g>
    <g id="text_18">
     <!-- rVS -->
     <g transform="translate(20.2375 183.178)rotate(-90)scale(0.1 -0.1)">
      <defs>
       <path id="DejaVuSans-72" d="M 2631 2963 
Q 2534 3019 2420 3045 
Q 2306 3072 2169 3072 
Q 1681 3072 1420 2755 
Q 1159 2438 1159 1844 
L 1159 0 
L 581 0 
L 581 3500 
L 1159 3500 
L 1159 2956 
Q 1341 3275 1631 3429 
Q 1922 3584 2338 3584 
Q 2397 3584 2469 3576 
Q 2541 3569 2628 3553 
L 2631 2963 
z
" transform="scale(0.015625)"/>
      </defs>
      <use xlink:href="#DejaVuSans-72"/>
      <use xlink:href="#DejaVuSans-56" x="41.113281"/>
      <use xlink:href="#DejaVuSans-53" x="109.521484"/>
     </g>
    </g>
   </g>
   <g id="line2d_17">
    <path d="M 73.832727 201.074953 
L 79.670147 214.123371 
L 79.670147 214.121507 
L 91.379315 251.37691 
L 91.379315 251.375822 
L 94.396483 261.464529 
L 94.396483 261.460088 
L 96.538023 268.253432 
L 96.538023 268.251064 
L 106.733856 291.244105 
L 106.733856 291.241585 
L 109.699994 293.723574 
L 109.699994 293.721593 
L 118.396814 287.298755 
L 118.396814 287.299422 
L 123.425756 274.329766 
L 123.425756 274.331877 
L 137.802272 209.97281 
L 137.802272 209.974913 
L 147.751536 156.383081 
L 147.751536 156.383336 
L 154.737801 121.703564 
L 154.737801 121.703641 
L 161.797279 92.507585 
L 161.797279 92.509369 
L 177.185551 56.487702 
L 190.105865 56.413752 
L 190.105865 56.415702 
L 209.9356 86.861936 
L 209.9356 86.85981 
L 220.411419 102.63693 
L 229.811551 115.149064 
L 229.811551 115.147153 
L 238.439078 130.076508 
L 242.281112 139.038249 
L 242.281112 139.03631 
L 244.813887 145.876139 
L 244.813887 145.875441 
L 260.584036 201.791292 
L 260.584036 201.789026 
L 264.389795 216.567956 
L 264.389795 216.563173 
L 277.392431 260.024556 
L 277.392431 260.022448 
L 281.195979 269.439073 
L 281.195979 269.436353 
L 288.604715 282.828539 
L 288.604715 282.824872 
L 296.749776 290.082031 
L 296.749776 290.080518 
L 299.404173 290.773964 
L 299.404173 290.773541 
L 310.117046 285.247458 
L 310.117046 285.248581 
L 314.15748 279.922372 
L 314.15748 279.922625 
L 316.899438 275.491177 
L 316.899438 275.492196 
L 344.356541 234.159294 
L 344.356541 234.161353 
L 348.641936 233.650725 
L 348.641936 233.652399 
L 349.896364 233.831097 
L 349.896364 233.830416 
L 352.151633 234.440202 
L 352.151633 234.437112 
L 361.701819 238.345748 
L 361.701819 238.343344 
L 363.533776 238.74131 
L 363.533776 238.740761 
L 367.765016 238.355181 
L 367.765016 238.357775 
L 380.793591 218.674736 
L 380.793591 218.676046 
L 381.868222 215.517945 
L 394.165518 163.236314 
L 394.165518 163.237395 
" clip-path="url(#p8045b28abf)" style="fill: none; stroke: #1f77b4; stroke-width: 1.5; stroke-linecap: square"/>
   </g>
   <g id="line2d_18">
    <path d="M 83.063588 223.84527 
L 83.063588 223.846801 
L 83.063588 223.845209 
L 83.063588 223.846215 
L 84.622959 228.72056 
L 84.622959 228.719591 
L 95.924408 266.349694 
L 95.924408 266.348959 
L 97.762753 271.923618 
L 97.762753 271.922566 
L 104.152047 287.338859 
L 104.152047 287.33835 
L 118.885442 286.326231 
L 118.885442 286.327358 
L 120.185303 283.42471 
L 120.185303 283.425015 
L 127.239043 260.543069 
L 127.239043 260.544442 
L 137.65691 210.745161 
L 137.65691 210.746662 
L 146.55211 162.728651 
L 146.55211 162.730348 
L 156.771734 112.591291 
L 156.771734 112.5923 
L 166.02956 78.60692 
L 166.02956 78.607806 
L 168.854166 70.981426 
L 168.854166 70.98205 
L 171.008981 66.080516 
L 171.008981 66.082562 
L 174.799976 59.414736 
L 174.799976 59.415542 
L 177.788138 55.905896 
L 177.788138 55.906662 
L 180.389486 54.076602 
L 180.389486 54.07701 
L 181.728184 53.568 
L 181.728184 53.569407 
L 186.552791 54.018765 
L 186.552791 54.018085 
L 189.342496 55.770179 
L 189.342496 55.769235 
L 196.270036 63.848315 
L 196.270036 63.84664 
L 220.36199 102.569553 
L 220.36199 102.568834 
L 228.673576 113.577321 
L 228.673576 113.575267 
L 244.540874 140.43091 
L 244.540874 140.430202 
L 248.774535 148.890128 
L 248.774535 148.889468 
L 251.906018 154.870096 
L 251.906018 154.866866 
L 254.286725 159.019631 
L 254.286725 159.016892 
L 260.023681 166.645269 
L 260.023681 166.643248 
L 260.782887 167.335065 
L 260.782887 167.333678 
L 263.59919 169.14197 
L 263.59919 169.141417 
L 267.338699 169.619895 
L 275.021467 164.232049 
L 275.021467 164.232616 
L 278.379058 159.939353 
L 278.379058 159.939919 
L 283.396736 152.792109 
L 289.328573 145.550087 
L 289.328573 145.552095 
L 304.07791 147.514407 
L 304.07791 147.511705 
L 309.37446 156.333134 
L 309.37446 156.331739 
L 325.159996 193.201939 
L 325.159996 193.201143 
L 331.904169 207.131148 
L 331.904169 207.130764 
L 336.40064 214.675367 
L 336.40064 214.671564 
L 358.314952 236.340639 
L 360.455533 237.347264 
L 360.455533 237.345945 
L 371.899777 235.224189 
L 371.899777 235.22546 
L 373.645013 233.238596 
L 373.645013 233.240049 
L 375.584657 230.349457 
L 375.584657 230.349617 
L 378.593204 224.328916 
L 378.593204 224.330002 
" clip-path="url(#p8045b28abf)" style="fill: none; stroke: #ff7f0e; stroke-width: 1.5; stroke-linecap: square"/>
   </g>
   <g id="line2d_19">
    <path d="M 89.181542 243.877457 
L 89.181542 243.876559 
L 89.181542 243.878072 
L 153.069472 129.613097 
L 153.069472 129.616805 
L 216.891927 213.582204 
L 216.891927 213.58123 
L 286.087687 150.560365 
L 286.087687 150.561788 
L 316.090269 171.387323 
L 316.090269 171.386829 
L 334.560034 211.757481 
L 334.560034 211.757303 
L 344.221391 224.751183 
L 344.221391 224.74881 
L 361.291974 237.658958 
L 361.291974 237.657524 
L 361.843031 237.834676 
L 361.843031 237.834046 
L 398.487273 140.557616 
L 398.487273 140.557616 
" clip-path="url(#p8045b28abf)" style="fill: none; stroke: #2ca02c; stroke-width: 1.5; stroke-linecap: square"/>
   </g>
   <g id="line2d_20">
    <path d="M 80.560533 216.542568 
L 80.560533 216.541071 
L 80.560533 216.542723 
L 80.560533 216.542585 
L 85.918513 232.915611 
L 85.918513 232.915104 
L 87.315112 237.556168 
L 87.315112 237.555028 
L 106.132363 290.47532 
L 106.132363 290.474647 
L 132.289315 238.219465 
L 132.289315 238.220445 
L 135.269522 223.373423 
L 135.269522 223.373923 
L 149.239592 148.949064 
L 149.239592 148.951306 
L 168.991725 77.034794 
L 168.991725 77.03645 
L 170.288694 74.909928 
L 170.288694 74.91119 
L 178.234028 68.90321 
L 178.234028 68.903639 
L 190.944831 75.34714 
L 190.944831 75.344729 
L 191.635899 75.842355 
L 191.635899 75.840973 
L 195.120653 78.024099 
L 195.120653 78.022571 
L 211.641427 72.89697 
L 211.641427 72.898374 
L 236.430184 53.648376 
L 236.430184 53.649029 
L 238.798791 55.516453 
L 238.798791 55.515014 
L 281.141092 85.148162 
L 281.141092 85.146459 
L 285.237122 80.153385 
L 285.237122 80.155509 
L 289.475146 76.025063 
L 289.475146 76.025467 
L 292.456947 74.412 
L 292.456947 74.412501 
L 295.688035 74.341839 
L 295.688035 74.342824 
L 299.523971 76.971699 
L 299.523971 76.970801 
L 307.016649 91.316256 
L 307.016649 91.314961 
L 312.67597 109.417992 
L 312.67597 109.416176 
L 317.632558 128.723 
L 317.632558 128.721536 
L 331.926265 185.681803 
L 331.926265 185.681551 
L 336.039935 198.849943 
L 336.039935 198.847902 
L 337.452546 202.868025 
L 337.452546 202.865187 
L 341.393958 212.690638 
L 341.393958 212.689978 
L 348.080178 225.063716 
L 348.080178 225.062207 
L 348.7943 226.107522 
L 348.7943 226.105983 
L 359.931554 236.844222 
L 359.931554 236.841006 
L 380.36156 219.868745 
L 380.36156 219.869801 
L 384.822909 205.532951 
L 384.822909 205.533161 
" clip-path="url(#p8045b28abf)" style="fill: none; stroke: #d62728; stroke-width: 1.5; stroke-linecap: square"/>
   </g>
   <g id="line2d_21">
    <path d="M 74.047099 201.458242 
L 74.047099 201.45946 
L 74.047099 201.457798 
L 74.047099 201.458767 
L 76.402394 206.184541 
L 78.778593 211.808229 
L 78.778593 211.806823 
L 83.290767 224.542539 
L 83.290767 224.541842 
L 93.274318 257.762766 
L 93.274318 257.762043 
L 106.619392 291.466437 
L 106.619392 291.464658 
L 108.329821 293.457378 
L 108.329821 293.454385 
L 113.891658 295.488 
L 113.891658 295.487634 
L 120.731221 289.509074 
L 123.707031 284.716758 
L 123.707031 284.717804 
L 135.98841 260.624059 
L 135.98841 260.624919 
L 137.15628 258.57874 
L 137.15628 258.579602 
L 141.138356 252.58721 
L 141.138356 252.588009 
L 144.366968 249.074681 
L 144.366968 249.077734 
L 147.557398 246.927817 
L 147.557398 246.930002 
L 158.37806 248.970472 
L 158.37806 248.9688 
L 169.680886 260.033885 
L 169.680886 260.031307 
L 175.443638 265.15066 
L 175.443638 265.149445 
L 180.284744 267.646855 
L 180.284744 267.645355 
L 192.716706 263.737576 
L 192.716706 263.738326 
L 194.341366 262.230386 
L 194.341366 262.231691 
L 205.434452 249.699792 
L 205.434452 249.701758 
L 210.428238 245.013759 
L 210.428238 245.01711 
L 218.391684 242.164321 
L 218.391684 242.164857 
L 220.759155 242.668806 
L 220.759155 242.667862 
L 223.011515 243.721035 
L 223.011515 243.719987 
L 224.646579 244.806544 
L 224.646579 244.805522 
L 226.695034 246.507187 
L 226.695034 246.506054 
L 228.311038 248.069986 
L 228.311038 248.067902 
L 239.847876 260.403378 
L 239.847876 260.401451 
L 250.521514 260.226052 
L 250.521514 260.228487 
L 260.069214 238.890986 
L 260.069214 238.892393 
L 268.482278 203.00721 
L 268.482278 203.00779 
L 269.909042 195.789537 
L 269.909042 195.79006 
L 279.450387 145.249904 
L 279.450387 145.25238 
L 286.486667 112.87036 
L 286.486667 112.870936 
L 287.639516 108.520356 
L 287.639516 108.521062 
L 301.422534 86.714829 
L 301.422534 86.715611 
L 316.498 124.761897 
L 316.498 124.761584 
L 319.736646 137.743238 
L 319.736646 137.742674 
L 325.053639 159.611487 
L 325.053639 159.607282 
L 329.448049 176.776431 
L 331.905779 185.609167 
L 331.905779 185.608925 
L 334.399768 193.854554 
L 334.399768 193.853868 
L 342.148847 214.346502 
L 343.496911 217.129978 
L 343.496911 217.129789 
L 347.560016 224.273907 
L 347.560016 224.273073 
L 349.838594 227.545601 
L 349.838594 227.545181 
L 361.36477 237.500449 
L 361.36477 237.499815 
L 363.208452 238.066394 
L 363.208452 238.065589 
L 364.963139 238.282461 
L 364.963139 238.281165 
L 369.150108 237.281918 
L 369.150108 237.282413 
L 369.628004 237.012212 
L 369.628004 237.01273 
L 384.769618 205.729917 
L 384.769618 205.73081 
L 387.973391 192.877437 
L 387.973391 192.878565 
L 394.746458 160.23527 
L 394.746458 160.237782 
" clip-path="url(#p8045b28abf)" style="fill: none; stroke: #9467bd; stroke-width: 1.5; stroke-linecap: square"/>
   </g>
   <g id="line2d_22">
    <path d="M 85.132517 230.33291 
L 85.132517 230.33545 
L 85.132517 230.331057 
L 85.132517 230.331447 
L 98.272867 273.401423 
L 98.272867 273.401029 
L 106.313304 291.04248 
L 106.313304 291.04155 
L 146.644465 247.403886 
L 146.644465 247.404358 
L 304.875053 90.580101 
L 304.875053 90.583836 
L 331.839448 186.15922 
L 331.839448 186.157485 
L 355.349324 219.615857 
L 355.349324 219.611625 
L 359.478796 213.032587 
L 359.478796 213.036208 
L 366.643353 192.089901 
L 375.279763 152.606801 
L 375.279763 152.608198 
L 379.229458 130.817816 
L 379.229458 130.818757 
" clip-path="url(#p8045b28abf)" style="fill: none; stroke: #8c564b; stroke-width: 1.5; stroke-linecap: square"/>
   </g>
   <g id="patch_3">
    <path d="M 57.6 307.584 
L 57.6 41.472 
" style="fill: none; stroke: #000000; stroke-width: 0.8; stroke-linejoin: miter; stroke-linecap: square"/>
   </g>
   <g id="patch_4">
    <path d="M 414.72 307.584 
L 414.72 41.472 
" style="fill: none; stroke: #000000; stroke-width: 0.8; stroke-linejoin: miter; stroke-linecap: square"/>
   </g>
   <g id="patch_5">
    <path d="M 57.6 307.584 
L 414.72 307.584 
" style="fill: none; stroke: #000000; stroke-width: 0.8; stroke-linejoin: miter; stroke-linecap: square"/>
   </g>
   <g id="patch_6">
    <path d="M 57.6 41.472 
L 414.72 41.472 
" style="fill: none; stroke: #000000; stroke-width: 0.8; stroke-linejoin: miter; stroke-linecap: square"/>
   </g>
   <g id="text_19">
    <!-- Evolvement of rVS mapping over time -->
    <g transform="translate(121.493437 35.472)scale(0.12 -0.12)">
     <defs>
      <path id="DejaVuSans-45" d="M 628 4666 
L 3578 4666 
L 3578 4134 
L 1259 4134 
L 1259 2753 
L 3481 2753 
L 3481 2222 
L 1259 2222 
L 1259 531 
L 3634 531 
L 3634 0 
L 628 0 
L 628 4666 
z
" transform="scale(0.015625)"/>
      <path id="DejaVuSans-76" d="M 191 3500 
L 800 3500 
L 1894 563 
L 2988 3500 
L 3597 3500 
L 2284 0 
L 1503 0 
L 191 3500 
z
" transform="scale(0.015625)"/>
      <path id="DejaVuSans-6f" d="M 1959 3097 
Q 1497 3097 1228 2736 
Q 959 2375 959 1747 
Q 959 1119 1226 758 
Q 1494 397 1959 397 
Q 2419 397 2687 759 
Q 2956 1122 2956 1747 
Q 2956 2369 2687 2733 
Q 2419 3097 1959 3097 
z
M 1959 3584 
Q 2709 3584 3137 3096 
Q 3566 2609 3566 1747 
Q 3566 888 3137 398 
Q 2709 -91 1959 -91 
Q 1206 -91 779 398 
Q 353 888 353 1747 
Q 353 2609 779 3096 
Q 1206 3584 1959 3584 
z
" transform="scale(0.015625)"/>
      <path id="DejaVuSans-6c" d="M 603 4863 
L 1178 4863 
L 1178 0 
L 603 0 
L 603 4863 
z
" transform="scale(0.015625)"/>
      <path id="DejaVuSans-65" d="M 3597 1894 
L 3597 1613 
L 953 1613 
Q 991 1019 1311 708 
Q 1631 397 2203 397 
Q 2534 397 2845 478 
Q 3156 559 3463 722 
L 3463 178 
Q 3153 47 2828 -22 
Q 2503 -91 2169 -91 
Q 1331 -91 842 396 
Q 353 884 353 1716 
Q 353 2575 817 3079 
Q 1281 3584 2069 3584 
Q 2775 3584 3186 3129 
Q 3597 2675 3597 1894 
z
M 3022 2063 
Q 3016 2534 2758 2815 
Q 2500 3097 2075 3097 
Q 1594 3097 1305 2825 
Q 1016 2553 972 2059 
L 3022 2063 
z
" transform="scale(0.015625)"/>
      <path id="DejaVuSans-6d" d="M 3328 2828 
Q 3544 3216 3844 3400 
Q 4144 3584 4550 3584 
Q 5097 3584 5394 3201 
Q 5691 2819 5691 2113 
L 5691 0 
L 5113 0 
L 5113 2094 
Q 5113 2597 4934 2840 
Q 4756 3084 4391 3084 
Q 3944 3084 3684 2787 
Q 3425 2491 3425 1978 
L 3425 0 
L 2847 0 
L 2847 2094 
Q 2847 2600 2669 2842 
Q 2491 3084 2119 3084 
Q 1678 3084 1418 2786 
Q 1159 2488 1159 1978 
L 1159 0 
L 581 0 
L 581 3500 
L 1159 3500 
L 1159 2956 
Q 1356 3278 1631 3431 
Q 1906 3584 2284 3584 
Q 2666 3584 2933 3390 
Q 3200 3197 3328 2828 
z
" transform="scale(0.015625)"/>
      <path id="DejaVuSans-6e" d="M 3513 2113 
L 3513 0 
L 2938 0 
L 2938 2094 
Q 2938 2591 2744 2837 
Q 2550 3084 2163 3084 
Q 1697 3084 1428 2787 
Q 1159 2491 1159 1978 
L 1159 0 
L 581 0 
L 581 3500 
L 1159 3500 
L 1159 2956 
Q 1366 3272 1645 3428 
Q 1925 3584 2291 3584 
Q 2894 3584 3203 3211 
Q 3513 2838 3513 2113 
z
" transform="scale(0.015625)"/>
      <path id="DejaVuSans-74" d="M 1172 4494 
L 1172 3500 
L 2356 3500 
L 2356 3053 
L 1172 3053 
L 1172 1153 
Q 1172 725 1289 603 
Q 1406 481 1766 481 
L 2356 481 
L 2356 0 
L 1766 0 
Q 1100 0 847 248 
Q 594 497 594 1153 
L 594 3053 
L 172 3053 
L 172 3500 
L 594 3500 
L 594 4494 
L 1172 4494 
z
" transform="scale(0.015625)"/>
      <path id="DejaVuSans-66" d="M 2375 4863 
L 2375 4384 
L 1825 4384 
Q 1516 4384 1395 4259 
Q 1275 4134 1275 3809 
L 1275 3500 
L 2222 3500 
L 2222 3053 
L 1275 3053 
L 1275 0 
L 697 0 
L 697 3053 
L 147 3053 
L 147 3500 
L 697 3500 
L 697 3744 
Q 697 4328 969 4595 
Q 1241 4863 1831 4863 
L 2375 4863 
z
" transform="scale(0.015625)"/>
      <path id="DejaVuSans-61" d="M 2194 1759 
Q 1497 1759 1228 1600 
Q 959 1441 959 1056 
Q 959 750 1161 570 
Q 1363 391 1709 391 
Q 2188 391 2477 730 
Q 2766 1069 2766 1631 
L 2766 1759 
L 2194 1759 
z
M 3341 1997 
L 3341 0 
L 2766 0 
L 2766 531 
Q 2569 213 2275 61 
Q 1981 -91 1556 -91 
Q 1019 -91 701 211 
Q 384 513 384 1019 
Q 384 1609 779 1909 
Q 1175 2209 1959 2209 
L 2766 2209 
L 2766 2266 
Q 2766 2663 2505 2880 
Q 2244 3097 1772 3097 
Q 1472 3097 1187 3025 
Q 903 2953 641 2809 
L 641 3341 
Q 956 3463 1253 3523 
Q 1550 3584 1831 3584 
Q 2591 3584 2966 3190 
Q 3341 2797 3341 1997 
z
" transform="scale(0.015625)"/>
      <path id="DejaVuSans-70" d="M 1159 525 
L 1159 -1331 
L 581 -1331 
L 581 3500 
L 1159 3500 
L 1159 2969 
Q 1341 3281 1617 3432 
Q 1894 3584 2278 3584 
Q 2916 3584 3314 3078 
Q 3713 2572 3713 1747 
Q 3713 922 3314 415 
Q 2916 -91 2278 -91 
Q 1894 -91 1617 61 
Q 1341 213 1159 525 
z
M 3116 1747 
Q 3116 2381 2855 2742 
Q 2594 3103 2138 3103 
Q 1681 3103 1420 2742 
Q 1159 2381 1159 1747 
Q 1159 1113 1420 752 
Q 1681 391 2138 391 
Q 2594 391 2855 752 
Q 3116 1113 3116 1747 
z
" transform="scale(0.015625)"/>
      <path id="DejaVuSans-69" d="M 603 3500 
L 1178 3500 
L 1178 0 
L 603 0 
L 603 3500 
z
M 603 4863 
L 1178 4863 
L 1178 4134 
L 603 4134 
L 603 4863 
z
" transform="scale(0.015625)"/>
      <path id="DejaVuSans-67" d="M 2906 1791 
Q 2906 2416 2648 2759 
Q 2391 3103 1925 3103 
Q 1463 3103 1205 2759 
Q 947 2416 947 1791 
Q 947 1169 1205 825 
Q 1463 481 1925 481 
Q 2391 481 2648 825 
Q 2906 1169 2906 1791 
z
M 3481 434 
Q 3481 -459 3084 -895 
Q 2688 -1331 1869 -1331 
Q 1566 -1331 1297 -1286 
Q 1028 -1241 775 -1147 
L 775 -588 
Q 1028 -725 1275 -790 
Q 1522 -856 1778 -856 
Q 2344 -856 2625 -561 
Q 2906 -266 2906 331 
L 2906 616 
Q 2728 306 2450 153 
Q 2172 0 1784 0 
Q 1141 0 747 490 
Q 353 981 353 1791 
Q 353 2603 747 3093 
Q 1141 3584 1784 3584 
Q 2172 3584 2450 3431 
Q 2728 3278 2906 2969 
L 2906 3500 
L 3481 3500 
L 3481 434 
z
" transform="scale(0.015625)"/>
     </defs>
     <use xlink:href="#DejaVuSans-45"/>
     <use xlink:href="#DejaVuSans-76" x="63.183594"/>
     <use xlink:href="#DejaVuSans-6f" x="122.363281"/>
     <use xlink:href="#DejaVuSans-6c" x="183.544922"/>
     <use xlink:href="#DejaVuSans-76" x="211.328125"/>
     <use xlink:href="#DejaVuSans-65" x="270.507812"/>
     <use xlink:href="#DejaVuSans-6d" x="332.03125"/>
     <use xlink:href="#DejaVuSans-65" x="429.443359"/>
     <use xlink:href="#DejaVuSans-6e" x="490.966797"/>
     <use xlink:href="#DejaVuSans-74" x="554.345703"/>
     <use xlink:href="#DejaVuSans-20" x="593.554688"/>
     <use xlink:href="#DejaVuSans-6f" x="625.341797"/>
     <use xlink:href="#DejaVuSans-66" x="686.523438"/>
     <use xlink:href="#DejaVuSans-20" x="721.728516"/>
     <use xlink:href="#DejaVuSans-72" x="753.515625"/>
     <use xlink:href="#DejaVuSans-56" x="794.628906"/>
     <use xlink:href="#DejaVuSans-53" x="863.037109"/>
     <use xlink:href="#DejaVuSans-20" x="926.513672"/>
     <use xlink:href="#DejaVuSans-6d" x="958.300781"/>
     <use xlink:href="#DejaVuSans-61" x="1055.712891"/>
     <use xlink:href="#DejaVuSans-70" x="1116.992188"/>
     <use xlink:href="#DejaVuSans-70" x="1180.46875"/>
     <use xlink:href="#DejaVuSans-69" x="1243.945312"/>
     <use xlink:href="#DejaVuSans-6e" x="1271.728516"/>
     <use xlink:href="#DejaVuSans-67" x="1335.107422"/>
     <use xlink:href="#DejaVuSans-20" x="1398.583984"/>
     <use xlink:href="#DejaVuSans-6f" x="1430.371094"/>
     <use xlink:href="#DejaVuSans-76" x="1491.552734"/>
     <use xlink:href="#DejaVuSans-65" x="1550.732422"/>
     <use xlink:href="#DejaVuSans-72" x="1612.255859"/>
     <use xlink:href="#DejaVuSans-20" x="1653.369141"/>
     <use xlink:href="#DejaVuSans-74" x="1685.15625"/>
     <use xlink:href="#DejaVuSans-69" x="1724.365234"/>
     <use xlink:href="#DejaVuSans-6d" x="1752.148438"/>
     <use xlink:href="#DejaVuSans-65" x="1849.560547"/>
    </g>
   </g>
   <g id="legend_1">
    <g id="patch_7">
     <path d="M 191.645 137.54075 
L 407.72 137.54075 
Q 409.72 137.54075 409.72 135.54075 
L 409.72 48.472 
Q 409.72 46.472 407.72 46.472 
L 191.645 46.472 
Q 189.645 46.472 189.645 48.472 
L 189.645 135.54075 
Q 189.645 137.54075 191.645 137.54075 
z
" style="fill: #ffffff; opacity: 0.8; stroke: #cccccc; stroke-linejoin: miter"/>
    </g>
    <g id="line2d_23">
     <path d="M 193.645 54.570438 
L 203.645 54.570438 
L 213.645 54.570438 
" style="fill: none; stroke: #1f77b4; stroke-width: 1.5; stroke-linecap: square"/>
    </g>
    <g id="text_20">
     <!-- mapping at t=0 -->
     <g transform="translate(221.645 58.070438)scale(0.1 -0.1)">
      <defs>
       <path id="DejaVuSans-3d" d="M 678 2906 
L 4684 2906 
L 4684 2381 
L 678 2381 
L 678 2906 
z
M 678 1631 
L 4684 1631 
L 4684 1100 
L 678 1100 
L 678 1631 
z
" transform="scale(0.015625)"/>
      </defs>
      <use xlink:href="#DejaVuSans-6d"/>
      <use xlink:href="#DejaVuSans-61" x="97.412109"/>
      <use xlink:href="#DejaVuSans-70" x="158.691406"/>
      <use xlink:href="#DejaVuSans-70" x="222.167969"/>
      <use xlink:href="#DejaVuSans-69" x="285.644531"/>
      <use xlink:href="#DejaVuSans-6e" x="313.427734"/>
      <use xlink:href="#DejaVuSans-67" x="376.806641"/>
      <use xlink:href="#DejaVuSans-20" x="440.283203"/>
      <use xlink:href="#DejaVuSans-61" x="472.070312"/>
      <use xlink:href="#DejaVuSans-74" x="533.349609"/>
      <use xlink:href="#DejaVuSans-20" x="572.558594"/>
      <use xlink:href="#DejaVuSans-74" x="604.345703"/>
      <use xlink:href="#DejaVuSans-3d" x="643.554688"/>
      <use xlink:href="#DejaVuSans-30" x="727.34375"/>
     </g>
    </g>
    <g id="line2d_24">
     <path d="M 193.645 69.248563 
L 203.645 69.248563 
L 213.645 69.248563 
" style="fill: none; stroke: #ff7f0e; stroke-width: 1.5; stroke-linecap: square"/>
    </g>
    <g id="text_21">
     <!-- mapping at t=225.20000000000002 -->
     <g transform="translate(221.645 72.748563)scale(0.1 -0.1)">
      <use xlink:href="#DejaVuSans-6d"/>
      <use xlink:href="#DejaVuSans-61" x="97.412109"/>
      <use xlink:href="#DejaVuSans-70" x="158.691406"/>
      <use xlink:href="#DejaVuSans-70" x="222.167969"/>
      <use xlink:href="#DejaVuSans-69" x="285.644531"/>
      <use xlink:href="#DejaVuSans-6e" x="313.427734"/>
      <use xlink:href="#DejaVuSans-67" x="376.806641"/>
      <use xlink:href="#DejaVuSans-20" x="440.283203"/>
      <use xlink:href="#DejaVuSans-61" x="472.070312"/>
      <use xlink:href="#DejaVuSans-74" x="533.349609"/>
      <use xlink:href="#DejaVuSans-20" x="572.558594"/>
      <use xlink:href="#DejaVuSans-74" x="604.345703"/>
      <use xlink:href="#DejaVuSans-3d" x="643.554688"/>
      <use xlink:href="#DejaVuSans-32" x="727.34375"/>
      <use xlink:href="#DejaVuSans-32" x="790.966797"/>
      <use xlink:href="#DejaVuSans-35" x="854.589844"/>
      <use xlink:href="#DejaVuSans-2e" x="918.212891"/>
      <use xlink:href="#DejaVuSans-32" x="950"/>
      <use xlink:href="#DejaVuSans-30" x="1013.623047"/>
      <use xlink:href="#DejaVuSans-30" x="1077.246094"/>
      <use xlink:href="#DejaVuSans-30" x="1140.869141"/>
      <use xlink:href="#DejaVuSans-30" x="1204.492188"/>
      <use xlink:href="#DejaVuSans-30" x="1268.115234"/>
      <use xlink:href="#DejaVuSans-30" x="1331.738281"/>
      <use xlink:href="#DejaVuSans-30" x="1395.361328"/>
      <use xlink:href="#DejaVuSans-30" x="1458.984375"/>
      <use xlink:href="#DejaVuSans-30" x="1522.607422"/>
      <use xlink:href="#DejaVuSans-30" x="1586.230469"/>
      <use xlink:href="#DejaVuSans-30" x="1649.853516"/>
      <use xlink:href="#DejaVuSans-30" x="1713.476562"/>
      <use xlink:href="#DejaVuSans-32" x="1777.099609"/>
     </g>
    </g>
    <g id="line2d_25">
     <path d="M 193.645 83.926688 
L 203.645 83.926688 
L 213.645 83.926688 
" style="fill: none; stroke: #2ca02c; stroke-width: 1.5; stroke-linecap: square"/>
    </g>
    <g id="text_22">
     <!-- mapping at t=535.2 -->
     <g transform="translate(221.645 87.426688)scale(0.1 -0.1)">
      <defs>
       <path id="DejaVuSans-33" d="M 2597 2516 
Q 3050 2419 3304 2112 
Q 3559 1806 3559 1356 
Q 3559 666 3084 287 
Q 2609 -91 1734 -91 
Q 1441 -91 1130 -33 
Q 819 25 488 141 
L 488 750 
Q 750 597 1062 519 
Q 1375 441 1716 441 
Q 2309 441 2620 675 
Q 2931 909 2931 1356 
Q 2931 1769 2642 2001 
Q 2353 2234 1838 2234 
L 1294 2234 
L 1294 2753 
L 1863 2753 
Q 2328 2753 2575 2939 
Q 2822 3125 2822 3475 
Q 2822 3834 2567 4026 
Q 2313 4219 1838 4219 
Q 1578 4219 1281 4162 
Q 984 4106 628 3988 
L 628 4550 
Q 988 4650 1302 4700 
Q 1616 4750 1894 4750 
Q 2613 4750 3031 4423 
Q 3450 4097 3450 3541 
Q 3450 3153 3228 2886 
Q 3006 2619 2597 2516 
z
" transform="scale(0.015625)"/>
      </defs>
      <use xlink:href="#DejaVuSans-6d"/>
      <use xlink:href="#DejaVuSans-61" x="97.412109"/>
      <use xlink:href="#DejaVuSans-70" x="158.691406"/>
      <use xlink:href="#DejaVuSans-70" x="222.167969"/>
      <use xlink:href="#DejaVuSans-69" x="285.644531"/>
      <use xlink:href="#DejaVuSans-6e" x="313.427734"/>
      <use xlink:href="#DejaVuSans-67" x="376.806641"/>
      <use xlink:href="#DejaVuSans-20" x="440.283203"/>
      <use xlink:href="#DejaVuSans-61" x="472.070312"/>
      <use xlink:href="#DejaVuSans-74" x="533.349609"/>
      <use xlink:href="#DejaVuSans-20" x="572.558594"/>
      <use xlink:href="#DejaVuSans-74" x="604.345703"/>
      <use xlink:href="#DejaVuSans-3d" x="643.554688"/>
      <use xlink:href="#DejaVuSans-35" x="727.34375"/>
      <use xlink:href="#DejaVuSans-33" x="790.966797"/>
      <use xlink:href="#DejaVuSans-35" x="854.589844"/>
      <use xlink:href="#DejaVuSans-2e" x="918.212891"/>
      <use xlink:href="#DejaVuSans-32" x="950"/>
     </g>
    </g>
    <g id="line2d_26">
     <path d="M 193.645 98.604813 
L 203.645 98.604813 
L 213.645 98.604813 
" style="fill: none; stroke: #d62728; stroke-width: 1.5; stroke-linecap: square"/>
    </g>
    <g id="text_23">
     <!-- mapping at t=585.2 -->
     <g transform="translate(221.645 102.104813)scale(0.1 -0.1)">
      <defs>
       <path id="DejaVuSans-38" d="M 2034 2216 
Q 1584 2216 1326 1975 
Q 1069 1734 1069 1313 
Q 1069 891 1326 650 
Q 1584 409 2034 409 
Q 2484 409 2743 651 
Q 3003 894 3003 1313 
Q 3003 1734 2745 1975 
Q 2488 2216 2034 2216 
z
M 1403 2484 
Q 997 2584 770 2862 
Q 544 3141 544 3541 
Q 544 4100 942 4425 
Q 1341 4750 2034 4750 
Q 2731 4750 3128 4425 
Q 3525 4100 3525 3541 
Q 3525 3141 3298 2862 
Q 3072 2584 2669 2484 
Q 3125 2378 3379 2068 
Q 3634 1759 3634 1313 
Q 3634 634 3220 271 
Q 2806 -91 2034 -91 
Q 1263 -91 848 271 
Q 434 634 434 1313 
Q 434 1759 690 2068 
Q 947 2378 1403 2484 
z
M 1172 3481 
Q 1172 3119 1398 2916 
Q 1625 2713 2034 2713 
Q 2441 2713 2670 2916 
Q 2900 3119 2900 3481 
Q 2900 3844 2670 4047 
Q 2441 4250 2034 4250 
Q 1625 4250 1398 4047 
Q 1172 3844 1172 3481 
z
" transform="scale(0.015625)"/>
      </defs>
      <use xlink:href="#DejaVuSans-6d"/>
      <use xlink:href="#DejaVuSans-61" x="97.412109"/>
      <use xlink:href="#DejaVuSans-70" x="158.691406"/>
      <use xlink:href="#DejaVuSans-70" x="222.167969"/>
      <use xlink:href="#DejaVuSans-69" x="285.644531"/>
      <use xlink:href="#DejaVuSans-6e" x="313.427734"/>
      <use xlink:href="#DejaVuSans-67" x="376.806641"/>
      <use xlink:href="#DejaVuSans-20" x="440.283203"/>
      <use xlink:href="#DejaVuSans-61" x="472.070312"/>
      <use xlink:href="#DejaVuSans-74" x="533.349609"/>
      <use xlink:href="#DejaVuSans-20" x="572.558594"/>
      <use xlink:href="#DejaVuSans-74" x="604.345703"/>
      <use xlink:href="#DejaVuSans-3d" x="643.554688"/>
      <use xlink:href="#DejaVuSans-35" x="727.34375"/>
      <use xlink:href="#DejaVuSans-38" x="790.966797"/>
      <use xlink:href="#DejaVuSans-35" x="854.589844"/>
      <use xlink:href="#DejaVuSans-2e" x="918.212891"/>
      <use xlink:href="#DejaVuSans-32" x="950"/>
     </g>
    </g>
    <g id="line2d_27">
     <path d="M 193.645 113.282938 
L 203.645 113.282938 
L 213.645 113.282938 
" style="fill: none; stroke: #9467bd; stroke-width: 1.5; stroke-linecap: square"/>
    </g>
    <g id="text_24">
     <!-- mapping at t=785.2 -->
     <g transform="translate(221.645 116.782938)scale(0.1 -0.1)">
      <use xlink:href="#DejaVuSans-6d"/>
      <use xlink:href="#DejaVuSans-61" x="97.412109"/>
      <use xlink:href="#DejaVuSans-70" x="158.691406"/>
      <use xlink:href="#DejaVuSans-70" x="222.167969"/>
      <use xlink:href="#DejaVuSans-69" x="285.644531"/>
      <use xlink:href="#DejaVuSans-6e" x="313.427734"/>
      <use xlink:href="#DejaVuSans-67" x="376.806641"/>
      <use xlink:href="#DejaVuSans-20" x="440.283203"/>
      <use xlink:href="#DejaVuSans-61" x="472.070312"/>
      <use xlink:href="#DejaVuSans-74" x="533.349609"/>
      <use xlink:href="#DejaVuSans-20" x="572.558594"/>
      <use xlink:href="#DejaVuSans-74" x="604.345703"/>
      <use xlink:href="#DejaVuSans-3d" x="643.554688"/>
      <use xlink:href="#DejaVuSans-37" x="727.34375"/>
      <use xlink:href="#DejaVuSans-38" x="790.966797"/>
      <use xlink:href="#DejaVuSans-35" x="854.589844"/>
      <use xlink:href="#DejaVuSans-2e" x="918.212891"/>
      <use xlink:href="#DejaVuSans-32" x="950"/>
     </g>
    </g>
    <g id="line2d_28">
     <path d="M 193.645 127.961063 
L 203.645 127.961063 
L 213.645 127.961063 
" style="fill: none; stroke: #8c564b; stroke-width: 1.5; stroke-linecap: square"/>
    </g>
    <g id="text_25">
     <!-- mapping at t=1145.2 -->
     <g transform="translate(221.645 131.461063)scale(0.1 -0.1)">
      <defs>
       <path id="DejaVuSans-34" d="M 2419 4116 
L 825 1625 
L 2419 1625 
L 2419 4116 
z
M 2253 4666 
L 3047 4666 
L 3047 1625 
L 3713 1625 
L 3713 1100 
L 3047 1100 
L 3047 0 
L 2419 0 
L 2419 1100 
L 313 1100 
L 313 1709 
L 2253 4666 
z
" transform="scale(0.015625)"/>
      </defs>
      <use xlink:href="#DejaVuSans-6d"/>
      <use xlink:href="#DejaVuSans-61" x="97.412109"/>
      <use xlink:href="#DejaVuSans-70" x="158.691406"/>
      <use xlink:href="#DejaVuSans-70" x="222.167969"/>
      <use xlink:href="#DejaVuSans-69" x="285.644531"/>
      <use xlink:href="#DejaVuSans-6e" x="313.427734"/>
      <use xlink:href="#DejaVuSans-67" x="376.806641"/>
      <use xlink:href="#DejaVuSans-20" x="440.283203"/>
      <use xlink:href="#DejaVuSans-61" x="472.070312"/>
      <use xlink:href="#DejaVuSans-74" x="533.349609"/>
      <use xlink:href="#DejaVuSans-20" x="572.558594"/>
      <use xlink:href="#DejaVuSans-74" x="604.345703"/>
      <use xlink:href="#DejaVuSans-3d" x="643.554688"/>
      <use xlink:href="#DejaVuSans-31" x="727.34375"/>
      <use xlink:href="#DejaVuSans-31" x="790.966797"/>
      <use xlink:href="#DejaVuSans-34" x="854.589844"/>
      <use xlink:href="#DejaVuSans-35" x="918.212891"/>
      <use xlink:href="#DejaVuSans-2e" x="981.835938"/>
      <use xlink:href="#DejaVuSans-32" x="1013.623047"/>
     </g>
    </g>
   </g>
  </g>
 </g>
 <defs>
  <clipPath id="p8045b28abf">
   <rect x="57.6" y="41.472" width="357.12" height="266.112"/>
  </clipPath>
 </defs>
</svg>
