<?xml version="1.0" encoding="utf-8" standalone="no"?>
<!DOCTYPE svg PUBLIC "-//W3C//DTD SVG 1.1//EN"
  "http://www.w3.org/Graphics/SVG/1.1/DTD/svg11.dtd">
<svg xmlns:xlink="http://www.w3.org/1999/xlink" width="460.8pt" height="345.6pt" viewBox="0 0 460.8 345.6" xmlns="http://www.w3.org/2000/svg" version="1.1">
 <metadata>
  <rdf:RDF xmlns:dc="http://purl.org/dc/elements/1.1/" xmlns:cc="http://creativecommons.org/ns#" xmlns:rdf="http://www.w3.org/1999/02/22-rdf-syntax-ns#">
   <cc:Work>
    <dc:type rdf:resource="http://purl.org/dc/dcmitype/StillImage"/>
    <dc:date>2022-08-17T17:49:01.191942</dc:date>
    <dc:format>image/svg+xml</dc:format>
    <dc:creator>
     <cc:Agent>
      <dc:title>Matplotlib v3.5.2, https://matplotlib.org/</dc:title>
     </cc:Agent>
    </dc:creator>
   </cc:Work>
  </rdf:RDF>
 </metadata>
 <defs>
  <style type="text/css">*{stroke-linejoin: round; stroke-linecap: butt}</style>
 </defs>
 <g id="figure_1">
  <g id="patch_1">
   <path d="M 0 345.6 
L 460.8 345.6 
L 460.8 0 
L 0 0 
z
" style="fill: #ffffff"/>
  </g>
  <g id="axes_1">
   <g id="patch_2">
    <path d="M 57.6 307.584 
L 414.72 307.584 
L 414.72 41.472 
L 57.6 41.472 
z
" style="fill: #ffffff"/>
   </g>
   <g id="matplotlib.axis_1">
    <g id="xtick_1">
     <g id="line2d_1">
      <defs>
       <path id="mcdb65e4451" d="M 0 0 
L 0 3.5 
" style="stroke: #000000; stroke-width: 0.8"/>
      </defs>
      <g>
       <use xlink:href="#mcdb65e4451" x="73.832727" y="307.584" style="stroke: #000000; stroke-width: 0.8"/>
      </g>
     </g>
     <g id="text_1">
      <!-- 0.00 -->
      <g transform="translate(62.699915 322.182437)scale(0.1 -0.1)">
       <defs>
        <path id="DejaVuSans-30" d="M 2034 4250 
Q 1547 4250 1301 3770 
Q 1056 3291 1056 2328 
Q 1056 1369 1301 889 
Q 1547 409 2034 409 
Q 2525 409 2770 889 
Q 3016 1369 3016 2328 
Q 3016 3291 2770 3770 
Q 2525 4250 2034 4250 
z
M 2034 4750 
Q 2819 4750 3233 4129 
Q 3647 3509 3647 2328 
Q 3647 1150 3233 529 
Q 2819 -91 2034 -91 
Q 1250 -91 836 529 
Q 422 1150 422 2328 
Q 422 3509 836 4129 
Q 1250 4750 2034 4750 
z
" transform="scale(0.015625)"/>
        <path id="DejaVuSans-2e" d="M 684 794 
L 1344 794 
L 1344 0 
L 684 0 
L 684 794 
z
" transform="scale(0.015625)"/>
       </defs>
       <use xlink:href="#DejaVuSans-30"/>
       <use xlink:href="#DejaVuSans-2e" x="63.623047"/>
       <use xlink:href="#DejaVuSans-30" x="95.410156"/>
       <use xlink:href="#DejaVuSans-30" x="159.033203"/>
      </g>
     </g>
    </g>
    <g id="xtick_2">
     <g id="line2d_2">
      <g>
       <use xlink:href="#mcdb65e4451" x="114.804763" y="307.584" style="stroke: #000000; stroke-width: 0.8"/>
      </g>
     </g>
     <g id="text_2">
      <!-- 0.25 -->
      <g transform="translate(103.67195 322.182437)scale(0.1 -0.1)">
       <defs>
        <path id="DejaVuSans-32" d="M 1228 531 
L 3431 531 
L 3431 0 
L 469 0 
L 469 531 
Q 828 903 1448 1529 
Q 2069 2156 2228 2338 
Q 2531 2678 2651 2914 
Q 2772 3150 2772 3378 
Q 2772 3750 2511 3984 
Q 2250 4219 1831 4219 
Q 1534 4219 1204 4116 
Q 875 4013 500 3803 
L 500 4441 
Q 881 4594 1212 4672 
Q 1544 4750 1819 4750 
Q 2544 4750 2975 4387 
Q 3406 4025 3406 3419 
Q 3406 3131 3298 2873 
Q 3191 2616 2906 2266 
Q 2828 2175 2409 1742 
Q 1991 1309 1228 531 
z
" transform="scale(0.015625)"/>
        <path id="DejaVuSans-35" d="M 691 4666 
L 3169 4666 
L 3169 4134 
L 1269 4134 
L 1269 2991 
Q 1406 3038 1543 3061 
Q 1681 3084 1819 3084 
Q 2600 3084 3056 2656 
Q 3513 2228 3513 1497 
Q 3513 744 3044 326 
Q 2575 -91 1722 -91 
Q 1428 -91 1123 -41 
Q 819 9 494 109 
L 494 744 
Q 775 591 1075 516 
Q 1375 441 1709 441 
Q 2250 441 2565 725 
Q 2881 1009 2881 1497 
Q 2881 1984 2565 2268 
Q 2250 2553 1709 2553 
Q 1456 2553 1204 2497 
Q 953 2441 691 2322 
L 691 4666 
z
" transform="scale(0.015625)"/>
       </defs>
       <use xlink:href="#DejaVuSans-30"/>
       <use xlink:href="#DejaVuSans-2e" x="63.623047"/>
       <use xlink:href="#DejaVuSans-32" x="95.410156"/>
       <use xlink:href="#DejaVuSans-35" x="159.033203"/>
      </g>
     </g>
    </g>
    <g id="xtick_3">
     <g id="line2d_3">
      <g>
       <use xlink:href="#mcdb65e4451" x="155.776798" y="307.584" style="stroke: #000000; stroke-width: 0.8"/>
      </g>
     </g>
     <g id="text_3">
      <!-- 0.50 -->
      <g transform="translate(144.643985 322.182437)scale(0.1 -0.1)">
       <use xlink:href="#DejaVuSans-30"/>
       <use xlink:href="#DejaVuSans-2e" x="63.623047"/>
       <use xlink:href="#DejaVuSans-35" x="95.410156"/>
       <use xlink:href="#DejaVuSans-30" x="159.033203"/>
      </g>
     </g>
    </g>
    <g id="xtick_4">
     <g id="line2d_4">
      <g>
       <use xlink:href="#mcdb65e4451" x="196.748833" y="307.584" style="stroke: #000000; stroke-width: 0.8"/>
      </g>
     </g>
     <g id="text_4">
      <!-- 0.75 -->
      <g transform="translate(185.616021 322.182437)scale(0.1 -0.1)">
       <defs>
        <path id="DejaVuSans-37" d="M 525 4666 
L 3525 4666 
L 3525 4397 
L 1831 0 
L 1172 0 
L 2766 4134 
L 525 4134 
L 525 4666 
z
" transform="scale(0.015625)"/>
       </defs>
       <use xlink:href="#DejaVuSans-30"/>
       <use xlink:href="#DejaVuSans-2e" x="63.623047"/>
       <use xlink:href="#DejaVuSans-37" x="95.410156"/>
       <use xlink:href="#DejaVuSans-35" x="159.033203"/>
      </g>
     </g>
    </g>
    <g id="xtick_5">
     <g id="line2d_5">
      <g>
       <use xlink:href="#mcdb65e4451" x="237.720868" y="307.584" style="stroke: #000000; stroke-width: 0.8"/>
      </g>
     </g>
     <g id="text_5">
      <!-- 1.00 -->
      <g transform="translate(226.588056 322.182437)scale(0.1 -0.1)">
       <defs>
        <path id="DejaVuSans-31" d="M 794 531 
L 1825 531 
L 1825 4091 
L 703 3866 
L 703 4441 
L 1819 4666 
L 2450 4666 
L 2450 531 
L 3481 531 
L 3481 0 
L 794 0 
L 794 531 
z
" transform="scale(0.015625)"/>
       </defs>
       <use xlink:href="#DejaVuSans-31"/>
       <use xlink:href="#DejaVuSans-2e" x="63.623047"/>
       <use xlink:href="#DejaVuSans-30" x="95.410156"/>
       <use xlink:href="#DejaVuSans-30" x="159.033203"/>
      </g>
     </g>
    </g>
    <g id="xtick_6">
     <g id="line2d_6">
      <g>
       <use xlink:href="#mcdb65e4451" x="278.692904" y="307.584" style="stroke: #000000; stroke-width: 0.8"/>
      </g>
     </g>
     <g id="text_6">
      <!-- 1.25 -->
      <g transform="translate(267.560091 322.182437)scale(0.1 -0.1)">
       <use xlink:href="#DejaVuSans-31"/>
       <use xlink:href="#DejaVuSans-2e" x="63.623047"/>
       <use xlink:href="#DejaVuSans-32" x="95.410156"/>
       <use xlink:href="#DejaVuSans-35" x="159.033203"/>
      </g>
     </g>
    </g>
    <g id="xtick_7">
     <g id="line2d_7">
      <g>
       <use xlink:href="#mcdb65e4451" x="319.664939" y="307.584" style="stroke: #000000; stroke-width: 0.8"/>
      </g>
     </g>
     <g id="text_7">
      <!-- 1.50 -->
      <g transform="translate(308.532126 322.182437)scale(0.1 -0.1)">
       <use xlink:href="#DejaVuSans-31"/>
       <use xlink:href="#DejaVuSans-2e" x="63.623047"/>
       <use xlink:href="#DejaVuSans-35" x="95.410156"/>
       <use xlink:href="#DejaVuSans-30" x="159.033203"/>
      </g>
     </g>
    </g>
    <g id="xtick_8">
     <g id="line2d_8">
      <g>
       <use xlink:href="#mcdb65e4451" x="360.636974" y="307.584" style="stroke: #000000; stroke-width: 0.8"/>
      </g>
     </g>
     <g id="text_8">
      <!-- 1.75 -->
      <g transform="translate(349.504162 322.182437)scale(0.1 -0.1)">
       <use xlink:href="#DejaVuSans-31"/>
       <use xlink:href="#DejaVuSans-2e" x="63.623047"/>
       <use xlink:href="#DejaVuSans-37" x="95.410156"/>
       <use xlink:href="#DejaVuSans-35" x="159.033203"/>
      </g>
     </g>
    </g>
    <g id="xtick_9">
     <g id="line2d_9">
      <g>
       <use xlink:href="#mcdb65e4451" x="401.60901" y="307.584" style="stroke: #000000; stroke-width: 0.8"/>
      </g>
     </g>
     <g id="text_9">
      <!-- 2.00 -->
      <g transform="translate(390.476197 322.182437)scale(0.1 -0.1)">
       <use xlink:href="#DejaVuSans-32"/>
       <use xlink:href="#DejaVuSans-2e" x="63.623047"/>
       <use xlink:href="#DejaVuSans-30" x="95.410156"/>
       <use xlink:href="#DejaVuSans-30" x="159.033203"/>
      </g>
     </g>
    </g>
    <g id="text_10">
     <!-- GT VS -->
     <g transform="translate(221.229531 335.860562)scale(0.1 -0.1)">
      <defs>
       <path id="DejaVuSans-47" d="M 3809 666 
L 3809 1919 
L 2778 1919 
L 2778 2438 
L 4434 2438 
L 4434 434 
Q 4069 175 3628 42 
Q 3188 -91 2688 -91 
Q 1594 -91 976 548 
Q 359 1188 359 2328 
Q 359 3472 976 4111 
Q 1594 4750 2688 4750 
Q 3144 4750 3555 4637 
Q 3966 4525 4313 4306 
L 4313 3634 
Q 3963 3931 3569 4081 
Q 3175 4231 2741 4231 
Q 1884 4231 1454 3753 
Q 1025 3275 1025 2328 
Q 1025 1384 1454 906 
Q 1884 428 2741 428 
Q 3075 428 3337 486 
Q 3600 544 3809 666 
z
" transform="scale(0.015625)"/>
       <path id="DejaVuSans-54" d="M -19 4666 
L 3928 4666 
L 3928 4134 
L 2272 4134 
L 2272 0 
L 1638 0 
L 1638 4134 
L -19 4134 
L -19 4666 
z
" transform="scale(0.015625)"/>
       <path id="DejaVuSans-20" transform="scale(0.015625)"/>
       <path id="DejaVuSans-56" d="M 1831 0 
L 50 4666 
L 709 4666 
L 2188 738 
L 3669 4666 
L 4325 4666 
L 2547 0 
L 1831 0 
z
" transform="scale(0.015625)"/>
       <path id="DejaVuSans-53" d="M 3425 4513 
L 3425 3897 
Q 3066 4069 2747 4153 
Q 2428 4238 2131 4238 
Q 1616 4238 1336 4038 
Q 1056 3838 1056 3469 
Q 1056 3159 1242 3001 
Q 1428 2844 1947 2747 
L 2328 2669 
Q 3034 2534 3370 2195 
Q 3706 1856 3706 1288 
Q 3706 609 3251 259 
Q 2797 -91 1919 -91 
Q 1588 -91 1214 -16 
Q 841 59 441 206 
L 441 856 
Q 825 641 1194 531 
Q 1563 422 1919 422 
Q 2459 422 2753 634 
Q 3047 847 3047 1241 
Q 3047 1584 2836 1778 
Q 2625 1972 2144 2069 
L 1759 2144 
Q 1053 2284 737 2584 
Q 422 2884 422 3419 
Q 422 4038 858 4394 
Q 1294 4750 2059 4750 
Q 2388 4750 2728 4690 
Q 3069 4631 3425 4513 
z
" transform="scale(0.015625)"/>
      </defs>
      <use xlink:href="#DejaVuSans-47"/>
      <use xlink:href="#DejaVuSans-54" x="73.865234"/>
      <use xlink:href="#DejaVuSans-20" x="134.949219"/>
      <use xlink:href="#DejaVuSans-56" x="166.736328"/>
      <use xlink:href="#DejaVuSans-53" x="235.144531"/>
     </g>
    </g>
   </g>
   <g id="matplotlib.axis_2">
    <g id="ytick_1">
     <g id="line2d_10">
      <defs>
       <path id="ma2abb026ed" d="M 0 0 
L -3.5 0 
" style="stroke: #000000; stroke-width: 0.8"/>
      </defs>
      <g>
       <use xlink:href="#ma2abb026ed" x="57.6" y="297.125907" style="stroke: #000000; stroke-width: 0.8"/>
      </g>
     </g>
     <g id="text_11">
      <!-- −3 -->
      <g transform="translate(35.857813 300.925126)scale(0.1 -0.1)">
       <defs>
        <path id="DejaVuSans-2212" d="M 678 2272 
L 4684 2272 
L 4684 1741 
L 678 1741 
L 678 2272 
z
" transform="scale(0.015625)"/>
        <path id="DejaVuSans-33" d="M 2597 2516 
Q 3050 2419 3304 2112 
Q 3559 1806 3559 1356 
Q 3559 666 3084 287 
Q 2609 -91 1734 -91 
Q 1441 -91 1130 -33 
Q 819 25 488 141 
L 488 750 
Q 750 597 1062 519 
Q 1375 441 1716 441 
Q 2309 441 2620 675 
Q 2931 909 2931 1356 
Q 2931 1769 2642 2001 
Q 2353 2234 1838 2234 
L 1294 2234 
L 1294 2753 
L 1863 2753 
Q 2328 2753 2575 2939 
Q 2822 3125 2822 3475 
Q 2822 3834 2567 4026 
Q 2313 4219 1838 4219 
Q 1578 4219 1281 4162 
Q 984 4106 628 3988 
L 628 4550 
Q 988 4650 1302 4700 
Q 1616 4750 1894 4750 
Q 2613 4750 3031 4423 
Q 3450 4097 3450 3541 
Q 3450 3153 3228 2886 
Q 3006 2619 2597 2516 
z
" transform="scale(0.015625)"/>
       </defs>
       <use xlink:href="#DejaVuSans-2212"/>
       <use xlink:href="#DejaVuSans-33" x="83.789062"/>
      </g>
     </g>
    </g>
    <g id="ytick_2">
     <g id="line2d_11">
      <g>
       <use xlink:href="#ma2abb026ed" x="57.6" y="257.948391" style="stroke: #000000; stroke-width: 0.8"/>
      </g>
     </g>
     <g id="text_12">
      <!-- −2 -->
      <g transform="translate(35.857813 261.74761)scale(0.1 -0.1)">
       <use xlink:href="#DejaVuSans-2212"/>
       <use xlink:href="#DejaVuSans-32" x="83.789062"/>
      </g>
     </g>
    </g>
    <g id="ytick_3">
     <g id="line2d_12">
      <g>
       <use xlink:href="#ma2abb026ed" x="57.6" y="218.770876" style="stroke: #000000; stroke-width: 0.8"/>
      </g>
     </g>
     <g id="text_13">
      <!-- −1 -->
      <g transform="translate(35.857813 222.570095)scale(0.1 -0.1)">
       <use xlink:href="#DejaVuSans-2212"/>
       <use xlink:href="#DejaVuSans-31" x="83.789062"/>
      </g>
     </g>
    </g>
    <g id="ytick_4">
     <g id="line2d_13">
      <g>
       <use xlink:href="#ma2abb026ed" x="57.6" y="179.593361" style="stroke: #000000; stroke-width: 0.8"/>
      </g>
     </g>
     <g id="text_14">
      <!-- 0 -->
      <g transform="translate(44.2375 183.392579)scale(0.1 -0.1)">
       <use xlink:href="#DejaVuSans-30"/>
      </g>
     </g>
    </g>
    <g id="ytick_5">
     <g id="line2d_14">
      <g>
       <use xlink:href="#ma2abb026ed" x="57.6" y="140.415845" style="stroke: #000000; stroke-width: 0.8"/>
      </g>
     </g>
     <g id="text_15">
      <!-- 1 -->
      <g transform="translate(44.2375 144.215064)scale(0.1 -0.1)">
       <use xlink:href="#DejaVuSans-31"/>
      </g>
     </g>
    </g>
    <g id="ytick_6">
     <g id="line2d_15">
      <g>
       <use xlink:href="#ma2abb026ed" x="57.6" y="101.23833" style="stroke: #000000; stroke-width: 0.8"/>
      </g>
     </g>
     <g id="text_16">
      <!-- 2 -->
      <g transform="translate(44.2375 105.037548)scale(0.1 -0.1)">
       <use xlink:href="#DejaVuSans-32"/>
      </g>
     </g>
    </g>
    <g id="ytick_7">
     <g id="line2d_16">
      <g>
       <use xlink:href="#ma2abb026ed" x="57.6" y="62.060814" style="stroke: #000000; stroke-width: 0.8"/>
      </g>
     </g>
     <g id="text_17">
      <!-- 3 -->
      <g transform="translate(44.2375 65.860033)scale(0.1 -0.1)">
       <use xlink:href="#DejaVuSans-33"/>
      </g>
     </g>
    </g>
    <g id="text_18">
     <!-- rVS -->
     <g transform="translate(29.778125 183.178)rotate(-90)scale(0.1 -0.1)">
      <defs>
       <path id="DejaVuSans-72" d="M 2631 2963 
Q 2534 3019 2420 3045 
Q 2306 3072 2169 3072 
Q 1681 3072 1420 2755 
Q 1159 2438 1159 1844 
L 1159 0 
L 581 0 
L 581 3500 
L 1159 3500 
L 1159 2956 
Q 1341 3275 1631 3429 
Q 1922 3584 2338 3584 
Q 2397 3584 2469 3576 
Q 2541 3569 2628 3553 
L 2631 2963 
z
" transform="scale(0.015625)"/>
      </defs>
      <use xlink:href="#DejaVuSans-72"/>
      <use xlink:href="#DejaVuSans-56" x="41.113281"/>
      <use xlink:href="#DejaVuSans-53" x="109.521484"/>
     </g>
    </g>
   </g>
   <g id="line2d_17">
    <path d="M 73.832727 180.443219 
L 94.63827 233.03822 
L 94.63827 233.038129 
L 109.928876 270.593949 
L 109.928876 270.591464 
L 124.165736 293.137455 
L 124.165736 293.13668 
L 139.179817 295.488 
L 139.179817 295.4863 
L 140.94358 294.14752 
L 140.94358 294.14881 
L 147.369073 286.574753 
L 147.369073 286.575733 
L 185.132415 216.336402 
L 185.132415 216.336591 
L 190.848337 212.274594 
L 190.848337 212.275478 
L 207.841017 210.210298 
L 207.841017 210.211267 
L 211.131876 210.125009 
L 211.131876 210.125035 
L 240.395717 196.230486 
L 240.395717 196.231291 
L 287.588006 195.816918 
L 287.588006 195.817425 
L 335.45783 155.013972 
L 335.45783 155.014753 
L 339.867875 148.976311 
L 339.867875 148.977027 
L 348.976455 139.83328 
L 348.976455 139.834436 
L 383.085107 125.692991 
L 383.085107 125.693529 
" clip-path="url(#p2dc4444417)" style="fill: none; stroke: #1f77b4; stroke-width: 1.5; stroke-linecap: square"/>
   </g>
   <g id="line2d_18">
    <path d="M 172.721173 189.440287 
L 172.721173 189.43854 
L 172.721173 189.439405 
L 172.721173 189.439831 
L 172.721173 189.439656 
L 172.721173 189.438582 
L 172.721173 189.43865 
L 172.721173 189.4385 
L 172.721173 189.439865 
L 172.721173 189.438618 
L 172.721173 189.439419 
L 172.721173 189.439525 
L 172.721173 189.439556 
L 172.721173 189.437992 
L 172.721173 189.439196 
L 172.721173 189.438884 
L 172.721173 189.438335 
L 172.721173 189.438876 
L 172.721173 189.439977 
L 172.721173 189.439791 
L 172.721173 189.438694 
L 172.721173 189.43856 
L 172.721173 189.439949 
L 172.721173 189.439018 
L 172.721173 189.438896 
L 202.430016 211.784401 
L 202.430016 211.782886 
L 202.430016 211.782407 
L 202.430016 211.782141 
L 202.430016 211.783007 
L 202.430016 211.783942 
L 202.430016 211.782626 
L 202.430016 211.7832 
L 202.430016 211.783415 
L 202.430016 211.782498 
L 202.430016 211.782425 
L 202.430016 211.78204 
L 202.430016 211.782688 
L 202.430016 211.782648 
L 202.430016 211.782437 
L 202.430016 211.783166 
L 202.430016 211.782664 
L 202.430016 211.782708 
L 202.430016 211.783376 
L 202.430016 211.782675 
L 202.430016 211.782569 
L 202.430016 211.783115 
L 202.430016 211.783061 
L 202.430016 211.783096 
L 202.430016 211.782736 
L 312.812938 190.175709 
L 312.812938 190.175478 
L 312.812938 190.175614 
L 312.812938 190.175851 
L 312.812938 190.175822 
L 312.812938 190.175128 
L 312.812938 190.175371 
L 312.812938 190.175269 
L 312.812938 190.175697 
L 312.812938 190.175615 
L 312.812938 190.175253 
L 312.812938 190.174817 
L 312.812938 190.175832 
L 312.812938 190.175373 
L 312.812938 190.175118 
L 312.812938 190.17517 
L 312.812938 190.175811 
L 312.812938 190.175314 
L 312.812938 190.175404 
L 312.812938 190.175818 
L 312.812938 190.175329 
L 312.812938 190.175035 
L 312.812938 190.175829 
L 312.812938 190.175314 
L 312.812938 190.175434 
L 385.350414 124.399972 
L 385.350414 124.400203 
L 385.350414 124.400352 
L 385.350414 124.40014 
L 385.350414 124.400938 
L 385.350414 124.400486 
L 385.350414 124.40056 
L 385.350414 124.400788 
L 385.350414 124.399455 
L 385.350414 124.400391 
L 385.350414 124.400555 
L 385.350414 124.398666 
L 385.350414 124.400551 
L 385.350414 124.400534 
L 385.350414 124.400596 
L 385.350414 124.400392 
L 385.350414 124.400416 
L 385.350414 124.400197 
L 385.350414 124.400476 
L 385.350414 124.400359 
L 385.350414 124.399992 
L 385.350414 124.400258 
L 385.350414 124.400908 
L 385.350414 124.400328 
L 385.350414 124.400597 
" clip-path="url(#p2dc4444417)" style="fill: none; stroke: #ff7f0e; stroke-width: 1.5; stroke-linecap: square"/>
   </g>
   <g id="line2d_19">
    <path d="M 140.52196 138.05264 
L 140.52196 138.052739 
L 140.52196 138.053028 
L 140.52196 138.053212 
L 140.52196 138.052127 
L 140.52196 138.052933 
L 140.52196 138.052737 
L 140.52196 138.052913 
L 140.52196 138.053087 
L 140.52196 138.052459 
L 140.52196 138.052568 
L 140.52196 138.052726 
L 140.52196 138.052835 
L 140.52196 138.052141 
L 140.52196 138.051891 
L 140.52196 138.052719 
L 140.52196 138.052582 
L 140.52196 138.05303 
L 140.52196 138.052583 
L 140.52196 138.052663 
L 140.52196 138.052806 
L 140.52196 138.053078 
L 140.52196 138.052287 
L 140.52196 138.052969 
L 140.52196 138.052542 
L 149.958365 147.695417 
L 149.958365 147.695445 
L 149.958365 147.695422 
L 149.958365 147.69479 
L 149.958365 147.6947 
L 149.958365 147.694569 
L 149.958365 147.69547 
L 149.958365 147.695188 
L 149.958365 147.694838 
L 149.958365 147.695188 
L 149.958365 147.69477 
L 149.958365 147.69517 
L 149.958365 147.694886 
L 149.958365 147.694997 
L 149.958365 147.695056 
L 149.958365 147.695865 
L 149.958365 147.695341 
L 149.958365 147.695666 
L 149.958365 147.695719 
L 149.958365 147.695118 
L 149.958365 147.695364 
L 149.958365 147.696052 
L 149.958365 147.696285 
L 149.958365 147.695551 
L 149.958365 147.695359 
L 216.77879 208.419394 
L 216.77879 208.419252 
L 216.77879 208.41945 
L 216.77879 208.419515 
L 216.77879 208.419761 
L 216.77879 208.419729 
L 216.77879 208.419382 
L 216.77879 208.420145 
L 216.77879 208.419154 
L 216.77879 208.419514 
L 216.77879 208.419818 
L 216.77879 208.419322 
L 216.77879 208.419501 
L 216.77879 208.419229 
L 216.77879 208.419179 
L 216.77879 208.419396 
L 216.77879 208.419904 
L 216.77879 208.420153 
L 216.77879 208.419463 
L 216.77879 208.419934 
L 216.77879 208.419844 
L 216.77879 208.419715 
L 216.77879 208.419511 
L 216.77879 208.419475 
L 216.77879 208.42 
L 352.316372 119.220413 
L 352.316372 119.21899 
L 352.316372 119.219546 
L 352.316372 119.219351 
L 352.316372 119.219216 
L 352.316372 119.21899 
L 352.316372 119.219052 
L 352.316372 119.220197 
L 352.316372 119.219417 
L 352.316372 119.219458 
L 352.316372 119.218917 
L 352.316372 119.220202 
L 352.316372 119.220122 
L 352.316372 119.220069 
L 352.316372 119.218997 
L 352.316372 119.219891 
L 352.316372 119.219569 
L 352.316372 119.220023 
L 352.316372 119.219559 
L 352.316372 119.219131 
L 352.316372 119.219907 
L 352.316372 119.219567 
L 352.316372 119.219467 
L 352.316372 119.219538 
L 352.316372 119.219683 
" clip-path="url(#p2dc4444417)" style="fill: none; stroke: #2ca02c; stroke-width: 1.5; stroke-linecap: square"/>
   </g>
   <g id="line2d_20">
    <path d="M 76.993649 166.48884 
L 76.993649 166.490065 
L 76.993649 166.488408 
L 76.993649 166.488522 
L 84.074847 169.129803 
L 84.074847 169.129394 
L 86.861658 169.497336 
L 86.861658 169.496356 
L 95.082572 168.299953 
L 95.082572 168.300419 
L 96.931307 167.551799 
L 96.931307 167.553075 
L 98.807766 166.6103 
L 98.807766 166.610995 
L 101.932438 164.645982 
L 101.932438 164.646474 
L 104.380079 162.779061 
L 104.380079 162.780434 
L 111.744761 155.722625 
L 111.744761 155.722899 
L 121.321335 145.274268 
L 121.321335 145.274866 
L 122.74159 143.849695 
L 122.74159 143.849998 
L 124.762894 141.968619 
L 124.762894 141.968977 
L 127.58235 139.719353 
L 127.58235 139.720407 
L 133.81048 136.883895 
L 133.81048 136.884094 
L 135.332048 136.734623 
L 135.332048 136.734961 
L 139.461905 137.546758 
L 139.461905 137.546202 
L 142.45994 139.290613 
L 142.45994 139.290471 
L 147.548067 144.409721 
L 147.548067 144.409089 
L 151.796937 150.520611 
L 151.796937 150.520468 
L 157.008382 159.695168 
L 157.008382 159.694612 
L 165.908439 177.093433 
L 165.908439 177.092659 
L 182.13879 202.278855 
L 182.13879 202.277964 
L 183.847664 203.982179 
L 183.847664 203.981823 
L 196.546128 211.156023 
L 196.546128 211.155693 
L 200.773426 211.753351 
L 200.773426 211.752497 
L 223.309136 202.246272 
L 223.309136 202.247804 
L 227.304039 198.075847 
L 227.304039 198.075855 
L 231.348113 193.04055 
L 232.729956 191.139901 
L 232.729956 191.140959 
L 237.45901 184.015651 
L 237.45901 184.015943 
L 241.51779 177.250357 
L 241.51779 177.250939 
L 244.535384 171.945024 
L 244.535384 171.945161 
L 250.656081 160.892354 
L 250.656081 160.892984 
L 257.935807 148.319478 
L 257.935807 148.320282 
L 265.372746 137.649751 
L 265.372746 137.650253 
L 268.365612 134.269516 
L 268.365612 134.270248 
L 273.213318 130.061955 
L 273.213318 130.062511 
L 280.663959 126.560551 
L 280.663959 126.561042 
L 280.904089 126.500471 
L 280.904089 126.500924 
L 299.6445 127.055147 
L 299.6445 127.054559 
L 306.576432 127.396093 
L 306.576432 127.3954 
L 310.370413 127.206309 
L 310.370413 127.206409 
L 314.590901 126.666215 
L 314.590901 126.668056 
L 350.050337 119.69006 
L 350.050337 119.691082 
L 358.34919 117.176235 
L 358.34919 117.177661 
L 360.711724 115.926974 
L 360.711724 115.927972 
L 362.201868 114.975562 
L 362.201868 114.975962 
L 364.194238 113.485018 
L 364.194238 113.485261 
L 369.351255 108.350487 
L 369.351255 108.350879 
L 372.817586 103.806052 
L 378.678453 94.209864 
L 378.678453 94.210747 
L 380.227572 91.320563 
L 380.227572 91.321626 
L 384.306018 83.184352 
L 384.306018 83.184591 
L 394.469142 61.596364 
L 394.469142 61.597064 
L 398.487273 53.568 
L 398.487273 53.5694 
" clip-path="url(#p2dc4444417)" style="fill: none; stroke: #d62728; stroke-width: 1.5; stroke-linecap: square"/>
   </g>
   <g id="line2d_21">
    <path d="M 77.208501 160.463072 
L 77.208501 160.461889 
L 77.208501 160.463814 
L 77.208501 160.46216 
L 80.858376 162.996023 
L 80.858376 162.99502 
L 97.380134 166.37274 
L 97.380134 166.372217 
L 99.705865 165.435064 
L 99.705865 165.435446 
L 106.178307 161.070833 
L 106.178307 161.071763 
L 113.829636 153.448767 
L 113.829636 153.449054 
L 142.325348 139.190817 
L 142.325348 139.19129 
L 142.649321 139.433165 
L 142.649321 139.43281 
L 154.790429 155.614029 
L 154.790429 155.613588 
L 157.013904 159.705512 
L 157.013904 159.705287 
L 168.951447 182.841973 
L 168.951447 182.841906 
L 172.189095 188.551913 
L 172.189095 188.551763 
L 174.580679 192.419201 
L 174.580679 192.418395 
L 182.880509 203.041989 
L 182.880509 203.041872 
L 186.828582 206.502466 
L 186.828582 206.502057 
L 190.253795 208.726411 
L 190.253795 208.725904 
L 195.082939 210.766464 
L 195.082939 210.766265 
L 200.963839 211.762384 
L 200.963839 211.76189 
L 202.140526 211.785582 
L 202.140526 211.78519 
L 214.084134 208.848325 
L 214.084134 208.848374 
L 218.778046 206.004522 
L 218.778046 206.00464 
L 221.218544 204.107241 
L 221.218544 204.108371 
L 226.944486 198.484969 
L 226.944486 198.485183 
L 232.251807 191.809326 
L 232.251807 191.809664 
L 234.823884 188.10063 
L 234.823884 188.100734 
L 237.194438 184.437689 
L 237.194438 184.438113 
L 249.374133 163.208943 
L 249.374133 163.208956 
L 254.198901 154.606521 
L 254.198901 154.607047 
L 266.344984 136.487719 
L 266.344984 136.488192 
L 283.207901 126.117255 
L 283.207901 126.117502 
L 292.12126 126.453182 
L 292.12126 126.45279 
L 295.586804 127.077221 
L 295.586804 127.076736 
L 304.443897 128.959415 
L 304.443897 128.958714 
L 313.224169 130.615037 
L 313.224169 130.614502 
L 324.041038 132.373924 
L 324.041038 132.373061 
L 343.030373 135.772228 
L 343.030373 135.770004 
L 354.710635 137.331498 
L 354.710635 137.331206 
L 363.577643 137.671568 
L 367.640624 137.557675 
L 367.640624 137.558389 
L 371.3191 137.324496 
L 371.3191 137.325558 
L 382.116618 136.118859 
L 382.116618 136.119204 
L 397.601879 134.007711 
L 397.601879 134.008551 
" clip-path="url(#p2dc4444417)" style="fill: none; stroke: #9467bd; stroke-width: 1.5; stroke-linecap: square"/>
   </g>
   <g id="line2d_22">
    <path d="M 75.376711 159.102831 
L 75.376711 159.102127 
L 75.376711 159.10352 
L 75.376711 159.102838 
L 79.099902 161.817758 
L 79.099902 161.817343 
L 81.851105 163.616696 
L 81.851105 163.615789 
L 91.195814 167.086143 
L 91.195814 167.085784 
L 95.98768 166.758746 
L 95.98768 166.759378 
L 105.337033 161.770063 
L 105.337033 161.770403 
L 107.780022 159.647535 
L 107.780022 159.647794 
L 115.255764 151.87539 
L 115.255764 151.875894 
L 117.970355 148.86555 
L 117.970355 148.865836 
L 130.162205 138.145695 
L 130.162205 138.145897 
L 144.837337 141.355037 
L 144.837337 141.354986 
L 147.493689 144.340042 
L 147.493689 144.33983 
L 151.218326 149.603329 
L 151.218326 149.602992 
L 158.355034 162.26504 
L 158.355034 162.264827 
L 176.612539 195.435459 
L 176.612539 195.435182 
L 181.008546 201.04487 
L 181.008546 201.044644 
L 189.291169 208.170378 
L 189.291169 208.169965 
L 200.281961 211.722861 
L 200.281961 211.722237 
L 203.912225 211.715139 
L 203.912225 211.715407 
L 207.848899 211.110517 
L 207.848899 211.110702 
L 219.14596 205.752277 
L 219.14596 205.753055 
L 227.330234 198.284547 
L 227.330234 198.285123 
L 230.569425 194.56336 
L 230.569425 194.564152 
L 232.980663 191.567327 
L 232.980663 191.567917 
L 237.482198 185.593526 
L 237.482198 185.5941 
L 267.073619 148.430604 
L 267.073619 148.431446 
L 274.9441 141.268168 
L 274.9441 141.268597 
L 286.102605 135.121036 
L 286.102605 135.12182 
L 287.940464 134.823406 
L 287.940464 134.824237 
L 292.963198 135.363054 
L 292.963198 135.362704 
L 294.412374 135.911273 
L 302.702261 142.356113 
L 302.702261 142.355658 
L 318.093282 162.613509 
L 318.093282 162.613023 
L 327.235179 171.077498 
L 327.235179 171.076693 
L 331.157985 172.388386 
L 331.157985 172.387412 
L 335.111391 172.108257 
L 335.111391 172.108881 
L 336.755399 171.535088 
L 336.755399 171.536881 
L 343.841746 166.451365 
L 349.630814 160.158789 
L 349.630814 160.159645 
L 360.360651 147.917082 
L 360.360651 147.917484 
L 369.252174 140.74838 
L 369.252174 140.750478 
L 380.363516 136.572603 
L 380.363516 136.57335 
L 381.319083 136.376029 
L 381.319083 136.37716 
L 389.572613 135.073723 
L 389.572613 135.07447 
L 395.626565 134.252613 
L 395.626565 134.253337 
" clip-path="url(#p2dc4444417)" style="fill: none; stroke: #8c564b; stroke-width: 1.5; stroke-linecap: square"/>
   </g>
   <g id="line2d_23">
    <path d="M 100.882234 165.236827 
L 100.948127 165.196463 
L 100.882234 165.237465 
L 100.948127 165.196791 
L 114.223901 153.063285 
L 114.223901 153.063515 
L 138.226812 137.112107 
L 138.226812 137.112569 
L 145.295176 141.820104 
L 145.295176 141.819684 
L 169.415552 183.690277 
L 169.415552 183.689703 
L 195.439183 210.87006 
L 195.439183 210.869808 
L 205.126292 211.595546 
L 205.126292 211.595141 
L 207.502548 211.189073 
L 207.502548 211.189598 
L 231.89342 192.942318 
L 231.89342 192.942927 
L 273.729479 145.965844 
L 273.729479 145.967008 
L 283.905536 140.316222 
L 291.521815 137.742915 
L 291.521815 137.744617 
L 309.182508 138.938015 
L 309.182508 138.937501 
L 316.60103 141.728629 
L 316.60103 141.72845 
L 343.776848 140.636526 
L 343.776848 140.638787 
L 360.495236 119.786703 
L 360.495236 119.787074 
L 367.968837 107.328109 
L 367.968837 107.328487 
L 387.453182 78.952382 
L 387.453182 78.953471 
L 390.510634 75.764654 
L 390.510634 75.765473 
" clip-path="url(#p2dc4444417)" style="fill: none; stroke: #e377c2; stroke-width: 1.5; stroke-linecap: square"/>
   </g>
   <g id="patch_3">
    <path d="M 57.6 307.584 
L 57.6 41.472 
" style="fill: none; stroke: #000000; stroke-width: 0.8; stroke-linejoin: miter; stroke-linecap: square"/>
   </g>
   <g id="patch_4">
    <path d="M 414.72 307.584 
L 414.72 41.472 
" style="fill: none; stroke: #000000; stroke-width: 0.8; stroke-linejoin: miter; stroke-linecap: square"/>
   </g>
   <g id="patch_5">
    <path d="M 57.6 307.584 
L 414.72 307.584 
" style="fill: none; stroke: #000000; stroke-width: 0.8; stroke-linejoin: miter; stroke-linecap: square"/>
   </g>
   <g id="patch_6">
    <path d="M 57.6 41.472 
L 414.72 41.472 
" style="fill: none; stroke: #000000; stroke-width: 0.8; stroke-linejoin: miter; stroke-linecap: square"/>
   </g>
   <g id="text_19">
    <!-- Evolvement of rVS mapping over time -->
    <g transform="translate(121.493437 35.472)scale(0.12 -0.12)">
     <defs>
      <path id="DejaVuSans-45" d="M 628 4666 
L 3578 4666 
L 3578 4134 
L 1259 4134 
L 1259 2753 
L 3481 2753 
L 3481 2222 
L 1259 2222 
L 1259 531 
L 3634 531 
L 3634 0 
L 628 0 
L 628 4666 
z
" transform="scale(0.015625)"/>
      <path id="DejaVuSans-76" d="M 191 3500 
L 800 3500 
L 1894 563 
L 2988 3500 
L 3597 3500 
L 2284 0 
L 1503 0 
L 191 3500 
z
" transform="scale(0.015625)"/>
      <path id="DejaVuSans-6f" d="M 1959 3097 
Q 1497 3097 1228 2736 
Q 959 2375 959 1747 
Q 959 1119 1226 758 
Q 1494 397 1959 397 
Q 2419 397 2687 759 
Q 2956 1122 2956 1747 
Q 2956 2369 2687 2733 
Q 2419 3097 1959 3097 
z
M 1959 3584 
Q 2709 3584 3137 3096 
Q 3566 2609 3566 1747 
Q 3566 888 3137 398 
Q 2709 -91 1959 -91 
Q 1206 -91 779 398 
Q 353 888 353 1747 
Q 353 2609 779 3096 
Q 1206 3584 1959 3584 
z
" transform="scale(0.015625)"/>
      <path id="DejaVuSans-6c" d="M 603 4863 
L 1178 4863 
L 1178 0 
L 603 0 
L 603 4863 
z
" transform="scale(0.015625)"/>
      <path id="DejaVuSans-65" d="M 3597 1894 
L 3597 1613 
L 953 1613 
Q 991 1019 1311 708 
Q 1631 397 2203 397 
Q 2534 397 2845 478 
Q 3156 559 3463 722 
L 3463 178 
Q 3153 47 2828 -22 
Q 2503 -91 2169 -91 
Q 1331 -91 842 396 
Q 353 884 353 1716 
Q 353 2575 817 3079 
Q 1281 3584 2069 3584 
Q 2775 3584 3186 3129 
Q 3597 2675 3597 1894 
z
M 3022 2063 
Q 3016 2534 2758 2815 
Q 2500 3097 2075 3097 
Q 1594 3097 1305 2825 
Q 1016 2553 972 2059 
L 3022 2063 
z
" transform="scale(0.015625)"/>
      <path id="DejaVuSans-6d" d="M 3328 2828 
Q 3544 3216 3844 3400 
Q 4144 3584 4550 3584 
Q 5097 3584 5394 3201 
Q 5691 2819 5691 2113 
L 5691 0 
L 5113 0 
L 5113 2094 
Q 5113 2597 4934 2840 
Q 4756 3084 4391 3084 
Q 3944 3084 3684 2787 
Q 3425 2491 3425 1978 
L 3425 0 
L 2847 0 
L 2847 2094 
Q 2847 2600 2669 2842 
Q 2491 3084 2119 3084 
Q 1678 3084 1418 2786 
Q 1159 2488 1159 1978 
L 1159 0 
L 581 0 
L 581 3500 
L 1159 3500 
L 1159 2956 
Q 1356 3278 1631 3431 
Q 1906 3584 2284 3584 
Q 2666 3584 2933 3390 
Q 3200 3197 3328 2828 
z
" transform="scale(0.015625)"/>
      <path id="DejaVuSans-6e" d="M 3513 2113 
L 3513 0 
L 2938 0 
L 2938 2094 
Q 2938 2591 2744 2837 
Q 2550 3084 2163 3084 
Q 1697 3084 1428 2787 
Q 1159 2491 1159 1978 
L 1159 0 
L 581 0 
L 581 3500 
L 1159 3500 
L 1159 2956 
Q 1366 3272 1645 3428 
Q 1925 3584 2291 3584 
Q 2894 3584 3203 3211 
Q 3513 2838 3513 2113 
z
" transform="scale(0.015625)"/>
      <path id="DejaVuSans-74" d="M 1172 4494 
L 1172 3500 
L 2356 3500 
L 2356 3053 
L 1172 3053 
L 1172 1153 
Q 1172 725 1289 603 
Q 1406 481 1766 481 
L 2356 481 
L 2356 0 
L 1766 0 
Q 1100 0 847 248 
Q 594 497 594 1153 
L 594 3053 
L 172 3053 
L 172 3500 
L 594 3500 
L 594 4494 
L 1172 4494 
z
" transform="scale(0.015625)"/>
      <path id="DejaVuSans-66" d="M 2375 4863 
L 2375 4384 
L 1825 4384 
Q 1516 4384 1395 4259 
Q 1275 4134 1275 3809 
L 1275 3500 
L 2222 3500 
L 2222 3053 
L 1275 3053 
L 1275 0 
L 697 0 
L 697 3053 
L 147 3053 
L 147 3500 
L 697 3500 
L 697 3744 
Q 697 4328 969 4595 
Q 1241 4863 1831 4863 
L 2375 4863 
z
" transform="scale(0.015625)"/>
      <path id="DejaVuSans-61" d="M 2194 1759 
Q 1497 1759 1228 1600 
Q 959 1441 959 1056 
Q 959 750 1161 570 
Q 1363 391 1709 391 
Q 2188 391 2477 730 
Q 2766 1069 2766 1631 
L 2766 1759 
L 2194 1759 
z
M 3341 1997 
L 3341 0 
L 2766 0 
L 2766 531 
Q 2569 213 2275 61 
Q 1981 -91 1556 -91 
Q 1019 -91 701 211 
Q 384 513 384 1019 
Q 384 1609 779 1909 
Q 1175 2209 1959 2209 
L 2766 2209 
L 2766 2266 
Q 2766 2663 2505 2880 
Q 2244 3097 1772 3097 
Q 1472 3097 1187 3025 
Q 903 2953 641 2809 
L 641 3341 
Q 956 3463 1253 3523 
Q 1550 3584 1831 3584 
Q 2591 3584 2966 3190 
Q 3341 2797 3341 1997 
z
" transform="scale(0.015625)"/>
      <path id="DejaVuSans-70" d="M 1159 525 
L 1159 -1331 
L 581 -1331 
L 581 3500 
L 1159 3500 
L 1159 2969 
Q 1341 3281 1617 3432 
Q 1894 3584 2278 3584 
Q 2916 3584 3314 3078 
Q 3713 2572 3713 1747 
Q 3713 922 3314 415 
Q 2916 -91 2278 -91 
Q 1894 -91 1617 61 
Q 1341 213 1159 525 
z
M 3116 1747 
Q 3116 2381 2855 2742 
Q 2594 3103 2138 3103 
Q 1681 3103 1420 2742 
Q 1159 2381 1159 1747 
Q 1159 1113 1420 752 
Q 1681 391 2138 391 
Q 2594 391 2855 752 
Q 3116 1113 3116 1747 
z
" transform="scale(0.015625)"/>
      <path id="DejaVuSans-69" d="M 603 3500 
L 1178 3500 
L 1178 0 
L 603 0 
L 603 3500 
z
M 603 4863 
L 1178 4863 
L 1178 4134 
L 603 4134 
L 603 4863 
z
" transform="scale(0.015625)"/>
      <path id="DejaVuSans-67" d="M 2906 1791 
Q 2906 2416 2648 2759 
Q 2391 3103 1925 3103 
Q 1463 3103 1205 2759 
Q 947 2416 947 1791 
Q 947 1169 1205 825 
Q 1463 481 1925 481 
Q 2391 481 2648 825 
Q 2906 1169 2906 1791 
z
M 3481 434 
Q 3481 -459 3084 -895 
Q 2688 -1331 1869 -1331 
Q 1566 -1331 1297 -1286 
Q 1028 -1241 775 -1147 
L 775 -588 
Q 1028 -725 1275 -790 
Q 1522 -856 1778 -856 
Q 2344 -856 2625 -561 
Q 2906 -266 2906 331 
L 2906 616 
Q 2728 306 2450 153 
Q 2172 0 1784 0 
Q 1141 0 747 490 
Q 353 981 353 1791 
Q 353 2603 747 3093 
Q 1141 3584 1784 3584 
Q 2172 3584 2450 3431 
Q 2728 3278 2906 2969 
L 2906 3500 
L 3481 3500 
L 3481 434 
z
" transform="scale(0.015625)"/>
     </defs>
     <use xlink:href="#DejaVuSans-45"/>
     <use xlink:href="#DejaVuSans-76" x="63.183594"/>
     <use xlink:href="#DejaVuSans-6f" x="122.363281"/>
     <use xlink:href="#DejaVuSans-6c" x="183.544922"/>
     <use xlink:href="#DejaVuSans-76" x="211.328125"/>
     <use xlink:href="#DejaVuSans-65" x="270.507812"/>
     <use xlink:href="#DejaVuSans-6d" x="332.03125"/>
     <use xlink:href="#DejaVuSans-65" x="429.443359"/>
     <use xlink:href="#DejaVuSans-6e" x="490.966797"/>
     <use xlink:href="#DejaVuSans-74" x="554.345703"/>
     <use xlink:href="#DejaVuSans-20" x="593.554688"/>
     <use xlink:href="#DejaVuSans-6f" x="625.341797"/>
     <use xlink:href="#DejaVuSans-66" x="686.523438"/>
     <use xlink:href="#DejaVuSans-20" x="721.728516"/>
     <use xlink:href="#DejaVuSans-72" x="753.515625"/>
     <use xlink:href="#DejaVuSans-56" x="794.628906"/>
     <use xlink:href="#DejaVuSans-53" x="863.037109"/>
     <use xlink:href="#DejaVuSans-20" x="926.513672"/>
     <use xlink:href="#DejaVuSans-6d" x="958.300781"/>
     <use xlink:href="#DejaVuSans-61" x="1055.712891"/>
     <use xlink:href="#DejaVuSans-70" x="1116.992188"/>
     <use xlink:href="#DejaVuSans-70" x="1180.46875"/>
     <use xlink:href="#DejaVuSans-69" x="1243.945312"/>
     <use xlink:href="#DejaVuSans-6e" x="1271.728516"/>
     <use xlink:href="#DejaVuSans-67" x="1335.107422"/>
     <use xlink:href="#DejaVuSans-20" x="1398.583984"/>
     <use xlink:href="#DejaVuSans-6f" x="1430.371094"/>
     <use xlink:href="#DejaVuSans-76" x="1491.552734"/>
     <use xlink:href="#DejaVuSans-65" x="1550.732422"/>
     <use xlink:href="#DejaVuSans-72" x="1612.255859"/>
     <use xlink:href="#DejaVuSans-20" x="1653.369141"/>
     <use xlink:href="#DejaVuSans-74" x="1685.15625"/>
     <use xlink:href="#DejaVuSans-69" x="1724.365234"/>
     <use xlink:href="#DejaVuSans-6d" x="1752.148438"/>
     <use xlink:href="#DejaVuSans-65" x="1849.560547"/>
    </g>
   </g>
   <g id="legend_1">
    <g id="patch_7">
     <path d="M 191.645 302.584 
L 407.72 302.584 
Q 409.72 302.584 409.72 300.584 
L 409.72 198.837125 
Q 409.72 196.837125 407.72 196.837125 
L 191.645 196.837125 
Q 189.645 196.837125 189.645 198.837125 
L 189.645 300.584 
Q 189.645 302.584 191.645 302.584 
z
" style="fill: #ffffff; opacity: 0.8; stroke: #cccccc; stroke-linejoin: miter"/>
    </g>
    <g id="line2d_24">
     <path d="M 193.645 204.935563 
L 203.645 204.935563 
L 213.645 204.935563 
" style="fill: none; stroke: #1f77b4; stroke-width: 1.5; stroke-linecap: square"/>
    </g>
    <g id="text_20">
     <!-- mapping at t=0 -->
     <g transform="translate(221.645 208.435563)scale(0.1 -0.1)">
      <defs>
       <path id="DejaVuSans-3d" d="M 678 2906 
L 4684 2906 
L 4684 2381 
L 678 2381 
L 678 2906 
z
M 678 1631 
L 4684 1631 
L 4684 1100 
L 678 1100 
L 678 1631 
z
" transform="scale(0.015625)"/>
      </defs>
      <use xlink:href="#DejaVuSans-6d"/>
      <use xlink:href="#DejaVuSans-61" x="97.412109"/>
      <use xlink:href="#DejaVuSans-70" x="158.691406"/>
      <use xlink:href="#DejaVuSans-70" x="222.167969"/>
      <use xlink:href="#DejaVuSans-69" x="285.644531"/>
      <use xlink:href="#DejaVuSans-6e" x="313.427734"/>
      <use xlink:href="#DejaVuSans-67" x="376.806641"/>
      <use xlink:href="#DejaVuSans-20" x="440.283203"/>
      <use xlink:href="#DejaVuSans-61" x="472.070312"/>
      <use xlink:href="#DejaVuSans-74" x="533.349609"/>
      <use xlink:href="#DejaVuSans-20" x="572.558594"/>
      <use xlink:href="#DejaVuSans-74" x="604.345703"/>
      <use xlink:href="#DejaVuSans-3d" x="643.554688"/>
      <use xlink:href="#DejaVuSans-30" x="727.34375"/>
     </g>
    </g>
    <g id="line2d_25">
     <path d="M 193.645 219.613688 
L 203.645 219.613688 
L 213.645 219.613688 
" style="fill: none; stroke: #ff7f0e; stroke-width: 1.5; stroke-linecap: square"/>
    </g>
    <g id="text_21">
     <!-- mapping at t=80.2 -->
     <g transform="translate(221.645 223.113688)scale(0.1 -0.1)">
      <defs>
       <path id="DejaVuSans-38" d="M 2034 2216 
Q 1584 2216 1326 1975 
Q 1069 1734 1069 1313 
Q 1069 891 1326 650 
Q 1584 409 2034 409 
Q 2484 409 2743 651 
Q 3003 894 3003 1313 
Q 3003 1734 2745 1975 
Q 2488 2216 2034 2216 
z
M 1403 2484 
Q 997 2584 770 2862 
Q 544 3141 544 3541 
Q 544 4100 942 4425 
Q 1341 4750 2034 4750 
Q 2731 4750 3128 4425 
Q 3525 4100 3525 3541 
Q 3525 3141 3298 2862 
Q 3072 2584 2669 2484 
Q 3125 2378 3379 2068 
Q 3634 1759 3634 1313 
Q 3634 634 3220 271 
Q 2806 -91 2034 -91 
Q 1263 -91 848 271 
Q 434 634 434 1313 
Q 434 1759 690 2068 
Q 947 2378 1403 2484 
z
M 1172 3481 
Q 1172 3119 1398 2916 
Q 1625 2713 2034 2713 
Q 2441 2713 2670 2916 
Q 2900 3119 2900 3481 
Q 2900 3844 2670 4047 
Q 2441 4250 2034 4250 
Q 1625 4250 1398 4047 
Q 1172 3844 1172 3481 
z
" transform="scale(0.015625)"/>
      </defs>
      <use xlink:href="#DejaVuSans-6d"/>
      <use xlink:href="#DejaVuSans-61" x="97.412109"/>
      <use xlink:href="#DejaVuSans-70" x="158.691406"/>
      <use xlink:href="#DejaVuSans-70" x="222.167969"/>
      <use xlink:href="#DejaVuSans-69" x="285.644531"/>
      <use xlink:href="#DejaVuSans-6e" x="313.427734"/>
      <use xlink:href="#DejaVuSans-67" x="376.806641"/>
      <use xlink:href="#DejaVuSans-20" x="440.283203"/>
      <use xlink:href="#DejaVuSans-61" x="472.070312"/>
      <use xlink:href="#DejaVuSans-74" x="533.349609"/>
      <use xlink:href="#DejaVuSans-20" x="572.558594"/>
      <use xlink:href="#DejaVuSans-74" x="604.345703"/>
      <use xlink:href="#DejaVuSans-3d" x="643.554688"/>
      <use xlink:href="#DejaVuSans-38" x="727.34375"/>
      <use xlink:href="#DejaVuSans-30" x="790.966797"/>
      <use xlink:href="#DejaVuSans-2e" x="854.589844"/>
      <use xlink:href="#DejaVuSans-32" x="886.376953"/>
     </g>
    </g>
    <g id="line2d_26">
     <path d="M 193.645 234.291812 
L 203.645 234.291812 
L 213.645 234.291812 
" style="fill: none; stroke: #2ca02c; stroke-width: 1.5; stroke-linecap: square"/>
    </g>
    <g id="text_22">
     <!-- mapping at t=100.2 -->
     <g transform="translate(221.645 237.791812)scale(0.1 -0.1)">
      <use xlink:href="#DejaVuSans-6d"/>
      <use xlink:href="#DejaVuSans-61" x="97.412109"/>
      <use xlink:href="#DejaVuSans-70" x="158.691406"/>
      <use xlink:href="#DejaVuSans-70" x="222.167969"/>
      <use xlink:href="#DejaVuSans-69" x="285.644531"/>
      <use xlink:href="#DejaVuSans-6e" x="313.427734"/>
      <use xlink:href="#DejaVuSans-67" x="376.806641"/>
      <use xlink:href="#DejaVuSans-20" x="440.283203"/>
      <use xlink:href="#DejaVuSans-61" x="472.070312"/>
      <use xlink:href="#DejaVuSans-74" x="533.349609"/>
      <use xlink:href="#DejaVuSans-20" x="572.558594"/>
      <use xlink:href="#DejaVuSans-74" x="604.345703"/>
      <use xlink:href="#DejaVuSans-3d" x="643.554688"/>
      <use xlink:href="#DejaVuSans-31" x="727.34375"/>
      <use xlink:href="#DejaVuSans-30" x="790.966797"/>
      <use xlink:href="#DejaVuSans-30" x="854.589844"/>
      <use xlink:href="#DejaVuSans-2e" x="918.212891"/>
      <use xlink:href="#DejaVuSans-32" x="950"/>
     </g>
    </g>
    <g id="line2d_27">
     <path d="M 193.645 248.969938 
L 203.645 248.969938 
L 213.645 248.969938 
" style="fill: none; stroke: #d62728; stroke-width: 1.5; stroke-linecap: square"/>
    </g>
    <g id="text_23">
     <!-- mapping at t=120.2 -->
     <g transform="translate(221.645 252.469938)scale(0.1 -0.1)">
      <use xlink:href="#DejaVuSans-6d"/>
      <use xlink:href="#DejaVuSans-61" x="97.412109"/>
      <use xlink:href="#DejaVuSans-70" x="158.691406"/>
      <use xlink:href="#DejaVuSans-70" x="222.167969"/>
      <use xlink:href="#DejaVuSans-69" x="285.644531"/>
      <use xlink:href="#DejaVuSans-6e" x="313.427734"/>
      <use xlink:href="#DejaVuSans-67" x="376.806641"/>
      <use xlink:href="#DejaVuSans-20" x="440.283203"/>
      <use xlink:href="#DejaVuSans-61" x="472.070312"/>
      <use xlink:href="#DejaVuSans-74" x="533.349609"/>
      <use xlink:href="#DejaVuSans-20" x="572.558594"/>
      <use xlink:href="#DejaVuSans-74" x="604.345703"/>
      <use xlink:href="#DejaVuSans-3d" x="643.554688"/>
      <use xlink:href="#DejaVuSans-31" x="727.34375"/>
      <use xlink:href="#DejaVuSans-32" x="790.966797"/>
      <use xlink:href="#DejaVuSans-30" x="854.589844"/>
      <use xlink:href="#DejaVuSans-2e" x="918.212891"/>
      <use xlink:href="#DejaVuSans-32" x="950"/>
     </g>
    </g>
    <g id="line2d_28">
     <path d="M 193.645 263.648063 
L 203.645 263.648063 
L 213.645 263.648063 
" style="fill: none; stroke: #9467bd; stroke-width: 1.5; stroke-linecap: square"/>
    </g>
    <g id="text_24">
     <!-- mapping at t=490.20000000000005 -->
     <g transform="translate(221.645 267.148063)scale(0.1 -0.1)">
      <defs>
       <path id="DejaVuSans-34" d="M 2419 4116 
L 825 1625 
L 2419 1625 
L 2419 4116 
z
M 2253 4666 
L 3047 4666 
L 3047 1625 
L 3713 1625 
L 3713 1100 
L 3047 1100 
L 3047 0 
L 2419 0 
L 2419 1100 
L 313 1100 
L 313 1709 
L 2253 4666 
z
" transform="scale(0.015625)"/>
       <path id="DejaVuSans-39" d="M 703 97 
L 703 672 
Q 941 559 1184 500 
Q 1428 441 1663 441 
Q 2288 441 2617 861 
Q 2947 1281 2994 2138 
Q 2813 1869 2534 1725 
Q 2256 1581 1919 1581 
Q 1219 1581 811 2004 
Q 403 2428 403 3163 
Q 403 3881 828 4315 
Q 1253 4750 1959 4750 
Q 2769 4750 3195 4129 
Q 3622 3509 3622 2328 
Q 3622 1225 3098 567 
Q 2575 -91 1691 -91 
Q 1453 -91 1209 -44 
Q 966 3 703 97 
z
M 1959 2075 
Q 2384 2075 2632 2365 
Q 2881 2656 2881 3163 
Q 2881 3666 2632 3958 
Q 2384 4250 1959 4250 
Q 1534 4250 1286 3958 
Q 1038 3666 1038 3163 
Q 1038 2656 1286 2365 
Q 1534 2075 1959 2075 
z
" transform="scale(0.015625)"/>
      </defs>
      <use xlink:href="#DejaVuSans-6d"/>
      <use xlink:href="#DejaVuSans-61" x="97.412109"/>
      <use xlink:href="#DejaVuSans-70" x="158.691406"/>
      <use xlink:href="#DejaVuSans-70" x="222.167969"/>
      <use xlink:href="#DejaVuSans-69" x="285.644531"/>
      <use xlink:href="#DejaVuSans-6e" x="313.427734"/>
      <use xlink:href="#DejaVuSans-67" x="376.806641"/>
      <use xlink:href="#DejaVuSans-20" x="440.283203"/>
      <use xlink:href="#DejaVuSans-61" x="472.070312"/>
      <use xlink:href="#DejaVuSans-74" x="533.349609"/>
      <use xlink:href="#DejaVuSans-20" x="572.558594"/>
      <use xlink:href="#DejaVuSans-74" x="604.345703"/>
      <use xlink:href="#DejaVuSans-3d" x="643.554688"/>
      <use xlink:href="#DejaVuSans-34" x="727.34375"/>
      <use xlink:href="#DejaVuSans-39" x="790.966797"/>
      <use xlink:href="#DejaVuSans-30" x="854.589844"/>
      <use xlink:href="#DejaVuSans-2e" x="918.212891"/>
      <use xlink:href="#DejaVuSans-32" x="950"/>
      <use xlink:href="#DejaVuSans-30" x="1013.623047"/>
      <use xlink:href="#DejaVuSans-30" x="1077.246094"/>
      <use xlink:href="#DejaVuSans-30" x="1140.869141"/>
      <use xlink:href="#DejaVuSans-30" x="1204.492188"/>
      <use xlink:href="#DejaVuSans-30" x="1268.115234"/>
      <use xlink:href="#DejaVuSans-30" x="1331.738281"/>
      <use xlink:href="#DejaVuSans-30" x="1395.361328"/>
      <use xlink:href="#DejaVuSans-30" x="1458.984375"/>
      <use xlink:href="#DejaVuSans-30" x="1522.607422"/>
      <use xlink:href="#DejaVuSans-30" x="1586.230469"/>
      <use xlink:href="#DejaVuSans-30" x="1649.853516"/>
      <use xlink:href="#DejaVuSans-30" x="1713.476562"/>
      <use xlink:href="#DejaVuSans-35" x="1777.099609"/>
     </g>
    </g>
    <g id="line2d_29">
     <path d="M 193.645 278.326188 
L 203.645 278.326188 
L 213.645 278.326188 
" style="fill: none; stroke: #8c564b; stroke-width: 1.5; stroke-linecap: square"/>
    </g>
    <g id="text_25">
     <!-- mapping at t=825.2 -->
     <g transform="translate(221.645 281.826188)scale(0.1 -0.1)">
      <use xlink:href="#DejaVuSans-6d"/>
      <use xlink:href="#DejaVuSans-61" x="97.412109"/>
      <use xlink:href="#DejaVuSans-70" x="158.691406"/>
      <use xlink:href="#DejaVuSans-70" x="222.167969"/>
      <use xlink:href="#DejaVuSans-69" x="285.644531"/>
      <use xlink:href="#DejaVuSans-6e" x="313.427734"/>
      <use xlink:href="#DejaVuSans-67" x="376.806641"/>
      <use xlink:href="#DejaVuSans-20" x="440.283203"/>
      <use xlink:href="#DejaVuSans-61" x="472.070312"/>
      <use xlink:href="#DejaVuSans-74" x="533.349609"/>
      <use xlink:href="#DejaVuSans-20" x="572.558594"/>
      <use xlink:href="#DejaVuSans-74" x="604.345703"/>
      <use xlink:href="#DejaVuSans-3d" x="643.554688"/>
      <use xlink:href="#DejaVuSans-38" x="727.34375"/>
      <use xlink:href="#DejaVuSans-32" x="790.966797"/>
      <use xlink:href="#DejaVuSans-35" x="854.589844"/>
      <use xlink:href="#DejaVuSans-2e" x="918.212891"/>
      <use xlink:href="#DejaVuSans-32" x="950"/>
     </g>
    </g>
    <g id="line2d_30">
     <path d="M 193.645 293.004312 
L 203.645 293.004312 
L 213.645 293.004312 
" style="fill: none; stroke: #e377c2; stroke-width: 1.5; stroke-linecap: square"/>
    </g>
    <g id="text_26">
     <!-- mapping at t=1090.2 -->
     <g transform="translate(221.645 296.504312)scale(0.1 -0.1)">
      <use xlink:href="#DejaVuSans-6d"/>
      <use xlink:href="#DejaVuSans-61" x="97.412109"/>
      <use xlink:href="#DejaVuSans-70" x="158.691406"/>
      <use xlink:href="#DejaVuSans-70" x="222.167969"/>
      <use xlink:href="#DejaVuSans-69" x="285.644531"/>
      <use xlink:href="#DejaVuSans-6e" x="313.427734"/>
      <use xlink:href="#DejaVuSans-67" x="376.806641"/>
      <use xlink:href="#DejaVuSans-20" x="440.283203"/>
      <use xlink:href="#DejaVuSans-61" x="472.070312"/>
      <use xlink:href="#DejaVuSans-74" x="533.349609"/>
      <use xlink:href="#DejaVuSans-20" x="572.558594"/>
      <use xlink:href="#DejaVuSans-74" x="604.345703"/>
      <use xlink:href="#DejaVuSans-3d" x="643.554688"/>
      <use xlink:href="#DejaVuSans-31" x="727.34375"/>
      <use xlink:href="#DejaVuSans-30" x="790.966797"/>
      <use xlink:href="#DejaVuSans-39" x="854.589844"/>
      <use xlink:href="#DejaVuSans-30" x="918.212891"/>
      <use xlink:href="#DejaVuSans-2e" x="981.835938"/>
      <use xlink:href="#DejaVuSans-32" x="1013.623047"/>
     </g>
    </g>
   </g>
  </g>
 </g>
 <defs>
  <clipPath id="p2dc4444417">
   <rect x="57.6" y="41.472" width="357.12" height="266.112"/>
  </clipPath>
 </defs>
</svg>
